<svg width="265" height="36" viewBox="0 0 265 36" fill="none" xmlns="http://www.w3.org/2000/svg">
<g opacity="0.6" clip-path="url(#clip0_4841_17693)">
<path d="M252.037 12.6663L254.576 18.7271H249.148L252.212 12.6663H252.037ZM240.436 25.3666H246.609L248.053 22.2682H255.846L257.29 25.3666H263.463L254.926 7.72921H248.929L240.436 25.3666ZM233.169 25.3666H239.341V7.72921H233.169V25.3666ZM213.206 19.3059C213.206 23.528 217.54 25.3666 222.619 25.3666C227.346 25.3666 232.031 23.9706 232.031 19.7145C232.031 16.616 228.747 15.4924 225.683 14.7774C222.225 14.0623 219.16 14.0623 219.16 12.6663C219.16 11.5427 220.955 11.2703 221.874 11.2703C223.669 11.2703 225.508 11.6789 225.508 13.2452H230.936C230.936 9.43167 226.602 7.59302 222.225 7.59302C218.066 7.59302 213.163 8.98902 213.163 12.9387C213.163 16.0372 216.796 17.1608 219.685 17.7396C222.969 18.4547 226.033 18.7271 226.033 20.2933C226.033 21.6893 224.238 21.9958 222.4 21.9958C220.036 21.9958 218.416 21.2807 218.416 19.1697H212.988L213.206 19.3059ZM202.875 12.6663L205.414 18.7271H199.986L203.05 12.6663H202.875ZM191.493 25.3666H197.49L198.935 22.2682H206.902L208.347 25.3666H214.52L205.983 7.72921H199.811L191.493 25.3666ZM171.53 25.3666H173.894V10.4191L187.115 25.3666H189.654V7.72921H187.465V22.5406L174.069 7.89946H171.53V25.3666ZM166.802 25.3666H168.991V7.72921H166.802V25.3666ZM144.345 25.3666H150.298V18.3185H158.091V25.3666H163.913V7.72921H158.091V14.0623H150.298V7.89946H144.301V25.3666H144.345ZM142.506 14.0964C142.506 10.1467 137.603 7.76326 132.919 7.76326C126.396 7.76326 122.062 11.713 122.062 16.6501C122.062 21.451 126.396 25.4007 132.919 25.4007C138.347 25.4007 142.506 22.847 142.9 18.3525H137.472C137.121 20.4636 135.677 21.5872 132.919 21.5872C129.285 21.5872 127.84 19.0335 127.84 16.6501C127.84 14.0964 129.285 11.5768 132.919 11.5768C135.283 11.5768 137.078 12.428 137.253 14.1304H142.681H142.506V14.0964ZM103.194 25.3666H121.668V21.4169H108.972V18.0461H120.223V14.505H109.366V11.2703H121.318V7.89946H103.194V25.3666ZM101.355 7.72921H82.312V11.6789H89.01V25.3666H95.0075V11.6789H101.705V7.72921H101.355Z" fill="white"/>
<path d="M46.5892 14.3687C47.1146 14.6411 47.6837 14.3687 47.5086 13.7899L44.6193 9.84018H43.5248L25.401 34.7982C24.6568 35.377 23.6061 35.377 23.2121 34.7982L17.0395 26.7626L16.6893 25.639V18.5908C16.6893 17.8758 16.3391 17.4672 15.77 17.1948L1.27965 7.32054C0.360322 6.91195 0.754318 5.92454 2.02386 5.92454H27.9401L34.2878 8.75061C34.638 9.023 34.638 9.32945 34.2878 9.46564L31.7487 13.1429C31.7487 13.4153 31.3985 13.5515 31.2234 13.4153L26.1452 11.3043L25.0508 11.0319H18.3091C17.7837 11.0319 17.5648 11.6107 17.9588 11.8831L22.5117 14.7092C23.037 15.1178 23.2559 15.6966 23.2559 16.1052V25.4006C23.2559 25.9794 24.1752 26.1156 24.5254 25.673L43.3935 0.306442C43.7437 -0.102147 45.1884 -0.102147 45.1884 0.306442L64.5817 26.388C65.5011 27.2393 64.2315 28.0905 63.1371 27.784L40.6355 17.5012C40.2853 17.5012 40.1102 17.0926 40.2853 16.9224L42.9995 13.3813C42.9995 13.1089 43.5248 13.1089 43.9188 13.1089L46.633 14.5049V14.3687H46.5892Z" fill="white"/>
</g>
<defs>
<clipPath id="clip0_4841_17693">
<rect width="263.571" height="36" fill="white" transform="translate(0.519043)"/>
</clipPath>
</defs>
</svg>
