<svg width="115" height="40" viewBox="0 0 115 40" fill="none" xmlns="http://www.w3.org/2000/svg">
<g opacity="0.6">
<path fill-rule="evenodd" clip-rule="evenodd" d="M0.0908203 20.5542V21.271C0.213916 22.925 1.18213 24.3435 2.56497 25.0965V42H33.0406V9.41312H20.0647V29.532H15.5626V9.41312H6.86009V5.22628H27.456C28.2909 6.60085 29.7977 7.52218 31.5237 7.52218C34.153 7.52218 36.2846 5.39057 36.2846 2.76098C36.2846 0.131615 34.153 -2 31.5237 -2C29.6752 -2 28.0764 -0.944489 27.2874 0.594605H2.56497V13.445H11.5309V33.5637H24.0966V13.445H28.4081V37.4751H7.19775V25.0447C8.63145 24.2244 9.59972 22.6831 9.59972 20.9126C9.59972 18.2832 7.46811 16.1516 4.83874 16.1516C2.32971 16.1516 0.274046 18.0922 0.0908203 20.5542ZM6.64177 20.9126C6.64177 21.9085 5.83447 22.7158 4.83874 22.7158C3.84279 22.7158 3.03549 21.9085 3.03549 20.9126C3.03549 19.9169 3.84279 19.1096 4.83874 19.1096C5.83447 19.1096 6.64177 19.9169 6.64177 20.9126ZM29.7204 2.76098C29.7204 1.76525 30.5277 0.957956 31.5237 0.957956C32.5194 0.957956 33.3267 1.76525 33.3267 2.76098C33.3267 3.75693 32.5194 4.56423 31.5237 4.56423C30.5277 4.56423 29.7204 3.75693 29.7204 2.76098ZM80.9125 17.3169H84.0279V11.5021C84.0279 10.4322 83.7504 9.52329 83.196 8.77401C82.6429 8.02538 81.7747 7.65074 80.5914 7.65074C79.9741 7.65074 79.427 7.79223 78.9485 8.07565C78.4698 8.35884 78.1182 8.7016 77.8919 9.10437H77.854V3.04453H74.7577V17.3169H77.854V12.2384C77.854 11.6596 78.0043 11.1813 78.3064 10.8038C78.6084 10.4262 79.0185 10.2372 79.5335 10.2372C80.4528 10.2372 80.9125 10.8977 80.9125 12.2195V17.3169ZM50.7059 6.70706H54.4818V3.95059H43.702V6.70706H47.4783V17.3169H50.7059V6.70706ZM60.4478 11.5398H56.4651C56.5023 11.0491 56.7226 10.6275 57.1251 10.275C57.5279 9.92253 58.019 9.7465 58.5982 9.7465C59.1892 9.7465 59.646 9.91611 59.9668 10.256C60.2872 10.5959 60.4478 11.0241 60.4478 11.5398ZM63.2799 13.4655C63.2926 13.3145 63.299 13.0691 63.299 12.729C63.299 11.1432 62.865 9.89464 61.9959 8.98194C61.1277 8.06947 59.989 7.61312 58.5792 7.61312C57.1187 7.61312 55.9075 8.07567 54.945 9.00054C53.9821 9.92564 53.5005 11.1432 53.5005 12.6535C53.5005 14.1893 53.9945 15.4005 54.9822 16.2882C55.9702 17.1752 57.2011 17.6184 58.6733 17.6184C60.5988 17.6184 62.0214 16.952 62.9401 15.6175L60.7876 14.2584C60.3091 14.9131 59.6174 15.2399 58.7114 15.2399C58.1452 15.2399 57.641 15.0703 57.2011 14.7302C56.7604 14.3908 56.5144 13.969 56.4651 13.4655H63.2799ZM73.4939 8.87787L71.6989 10.9548C71.5357 10.7283 71.3008 10.5458 70.9912 10.4072C70.6834 10.2688 70.371 10.1995 70.0575 10.1995C69.4154 10.1995 68.893 10.4356 68.4903 10.9072C68.0875 11.3793 67.8862 11.9492 67.8862 12.6161C67.8862 13.2833 68.0875 13.8496 68.4903 14.3151C68.893 14.7807 69.4271 15.0134 70.0953 15.0134C70.8249 15.0134 71.3851 14.7807 71.7748 14.3151L73.4939 16.4106C72.662 17.2161 71.5049 17.6184 70.0194 17.6184C68.4962 17.6184 67.2383 17.1656 66.2433 16.2596C65.2493 15.3533 64.7518 14.139 64.7518 12.6161C64.7518 11.1184 65.2522 9.90991 66.2535 8.99146C67.2543 8.07279 68.5035 7.61312 70.0006 7.61312C70.6673 7.61312 71.3255 7.72959 71.9734 7.9623C72.6211 8.19546 73.1277 8.50035 73.4939 8.87787ZM56.3131 31.5566C56.3131 33.1677 55.7877 34.4705 54.7373 35.4645C53.686 36.4589 52.2923 36.9555 50.5551 36.9555C48.8187 36.9555 47.4339 36.4622 46.4023 35.4738C45.3698 34.486 44.8542 33.1799 44.8542 31.5566V23.2312H48.0636V31.2925C48.0636 32.085 48.2707 32.743 48.6867 33.2653C49.1019 33.7877 49.7307 34.049 50.5741 34.049C51.4299 34.049 52.0625 33.7877 52.4717 33.2653C52.8802 32.743 53.0855 32.085 53.0855 31.2925V23.2312H56.3131V31.5566ZM68.8491 36.5975L65.0727 31.4435L68.6974 27.1958H64.9399L61.9387 31.0093H61.8818V22.3249H58.7671V36.5975H61.8818V32.0849H61.9387L65.0158 36.5975H68.8491ZM76.2108 27.0069L76.0797 29.7255C75.8403 29.6624 75.576 29.6312 75.2859 29.6312C74.543 29.6312 73.9899 29.861 73.6253 30.32C73.2603 30.7795 73.0779 31.261 73.0779 31.7646V36.5975H69.9818V27.1958H72.9641V28.5548H73.0022C73.2413 28.0642 73.5874 27.6707 74.0397 27.3745C74.4934 27.0791 74.9967 26.9309 75.5498 26.9309C75.8519 26.9309 76.0722 26.9564 76.2108 27.0069ZM82.7055 32.5008V32.8216C82.7055 33.4135 82.5363 33.8818 82.1962 34.2276C81.8561 34.5741 81.3776 34.7471 80.7603 34.7471C80.3956 34.7471 80.0819 34.6683 79.8177 34.5108C79.5523 34.3538 79.4207 34.1116 79.4207 33.7841C79.4207 32.9281 80.3839 32.5008 82.3085 32.5008H82.7055ZM77.0234 28.4793L78.5904 30.1595C79.2821 29.5173 80.0558 29.1963 80.9122 29.1963C81.4155 29.1963 81.8242 29.313 82.1393 29.5459C82.4531 29.7793 82.6107 30.1156 82.6107 30.5565V30.7073C78.5833 30.7073 76.5695 31.7645 76.5695 33.8789C76.5695 34.5713 76.7593 35.1498 77.1357 35.6153C77.5136 36.0816 77.9441 36.3989 78.4301 36.5689C78.9146 36.7388 79.4325 36.8236 79.9871 36.8236C80.5533 36.8236 81.0814 36.7133 81.5732 36.493C82.0634 36.2733 82.4223 35.9742 82.6486 35.5962H82.7055V36.5975H85.5377V31.8586C85.5377 30.1216 85.2038 28.8599 84.5369 28.0737C83.8699 27.287 82.7624 26.8937 81.2142 26.8937C79.5405 26.8937 78.1427 27.4218 77.0234 28.4793ZM87.8784 36.5975H90.9732V27.1958H87.8784V36.5975ZM91.2011 24.1935C91.2011 24.6722 91.0273 25.075 90.6816 25.4018C90.3355 25.7293 89.9171 25.8927 89.4266 25.8927C88.9348 25.8927 88.5161 25.7264 88.1703 25.3923C87.8246 25.0595 87.6506 24.6598 87.6506 24.1935C87.6506 23.7405 87.8246 23.3444 88.1703 23.0043C88.5161 22.6642 88.9348 22.495 89.4266 22.495C89.9171 22.495 90.3355 22.6613 90.6816 22.9948C91.0273 23.3289 91.2011 23.7281 91.2011 24.1935ZM99.6013 36.5975H102.717V30.7826C102.717 29.7129 102.437 28.8037 101.876 28.0547C101.316 27.306 100.45 26.9309 99.2803 26.9309C98.6515 26.9309 98.0808 27.082 97.5716 27.384C97.0623 27.6862 96.6945 28.0573 96.4671 28.4982H96.4291V27.1958H93.4275V36.5975H96.5429V31.4995C96.5429 30.9336 96.6875 30.4555 96.9775 30.0654C97.2667 29.675 97.6752 29.4802 98.2048 29.4802C99.1357 29.4802 99.6013 30.1404 99.6013 31.4623V36.5975ZM107.549 30.8204H111.533C111.533 30.3047 111.373 29.8763 111.052 29.5364C110.731 29.1963 110.274 29.0271 109.683 29.0271C109.104 29.0271 108.613 29.2029 108.211 29.5552C107.808 29.9077 107.587 30.3293 107.549 30.8204ZM114.385 32.0097C114.385 32.3495 114.377 32.5949 114.365 32.7459H107.549C107.599 33.2494 107.846 33.671 108.287 34.0109C108.726 34.351 109.231 34.5201 109.797 34.5201C110.703 34.5201 111.394 34.1933 111.873 33.5388L114.026 34.8981C113.106 36.2326 111.683 36.8993 109.759 36.8993C108.287 36.8993 107.055 36.4558 106.067 35.5685C105.079 34.6806 104.586 33.4697 104.586 31.9337C104.586 30.4236 105.068 29.2058 106.031 28.2807C106.992 27.3563 108.203 26.8937 109.664 26.8937C111.074 26.8937 112.213 27.3496 113.081 28.2623C113.95 29.175 114.385 30.4236 114.385 32.0097Z" fill="white"/>
</g>
</svg>
