<svg width="124" height="32" viewBox="0 0 124 32" fill="none" xmlns="http://www.w3.org/2000/svg">
<g opacity="0.6" clip-path="url(#clip0_4841_17700)">
<path d="M12.7587 2.98296H15.4296C17.0562 2.74273 18.7174 2.95394 20.2326 3.59364C22.1336 4.74021 23.5125 6.58608 24.075 8.73748C24.4733 9.86489 24.4733 9.86489 25.4339 9.4656H26.1836V0.54022H1.04414V2.11391H2.07502C2.523 2.1108 2.96598 2.20834 3.37142 2.39937C3.77686 2.59041 4.13446 2.87008 4.41794 3.21783C5.37853 4.76803 5.54254 6.50613 5.54254 15.5489C5.54254 25.1555 5.33168 27.5043 4.41794 28.7021C4.19236 29.0101 3.90031 29.263 3.56359 29.4419C3.22686 29.6209 2.85416 29.7213 2.47332 29.7356C1.04414 29.994 1.04414 29.9705 1.04414 30.6047C0.965105 30.8167 0.965105 31.0502 1.04414 31.2623H16.9057C17.0106 31.0549 17.0654 30.8255 17.0654 30.5929C17.0654 30.3603 17.0106 30.131 16.9057 29.9235C16.5215 29.8164 16.13 29.7378 15.7342 29.6886C15.3061 29.6376 14.883 29.5512 14.469 29.4303C13.8763 28.9965 13.4068 28.4151 13.1068 27.7437C12.8069 27.0722 12.6869 26.3339 12.7587 25.6017C12.5244 24.0515 12.4073 21.2095 12.4073 18.8607V17.0052H13.3444C14.5121 16.9694 15.679 17.0959 16.812 17.381C17.3547 17.7173 17.8168 18.1695 18.1651 18.7054C18.5134 19.2414 18.7394 19.8478 18.8269 20.4814L19.0377 21.2095H20.4669V10.8044H19.1549L18.944 11.8144C18.8553 12.4623 18.6162 13.0804 18.2459 13.6189C17.8756 14.1573 17.3845 14.6012 16.812 14.9148C16.2575 15.0802 15.6734 15.1203 15.1016 15.0322H12.4073V12.4955C12.4073 9.86489 12.5479 4.32176 12.6416 3.45271L12.7587 2.98296ZM122.407 21.6088C121.3 19.8219 119.572 18.5085 117.557 17.9212C116.013 17.4371 114.585 16.6374 113.364 15.5724C113.089 15.306 112.883 14.9762 112.765 14.6118C112.646 14.2475 112.619 13.8596 112.684 13.482C112.686 12.7414 112.981 12.0318 113.504 11.509C113.859 11.1367 114.308 10.8679 114.803 10.7313C115.298 10.5948 115.821 10.5957 116.316 10.7339C117.34 11.0266 118.266 11.5915 118.996 12.3689C119.726 13.1462 120.233 14.1071 120.463 15.1497C120.837 16.2066 120.884 16.2066 121.564 15.9248L121.985 15.7603V9.91187L121.681 9.77094C119.374 8.9588 116.928 8.62323 114.488 8.78445C112.387 8.83781 110.382 9.67542 108.865 11.1332C108.177 11.7789 107.638 12.5675 107.286 13.4439C106.934 14.3202 106.777 15.2631 106.827 16.2066C106.84 17.6491 107.411 19.0301 108.42 20.0586C109.535 21.1578 110.903 21.9646 112.403 22.4074C116.034 23.8402 117.089 24.7562 117.089 26.4238C117.104 27.1271 116.881 27.8147 116.455 28.3739C116.029 28.933 115.427 29.3304 114.746 29.5007C113.928 29.6809 113.08 29.6809 112.262 29.5007C111.191 29.084 110.235 28.4168 109.473 27.5548C108.711 26.6928 108.165 25.6609 107.881 24.5448L107.577 23.7932H107.155C106.953 23.8082 106.755 23.8558 106.569 23.9341H106.335V30.6047H106.733C108.316 31.1325 109.949 31.4946 111.606 31.6851H113.949C114.965 31.7598 115.987 31.6646 116.972 31.4032C118.222 31.1719 119.39 30.6166 120.36 29.7925C121.33 28.9685 122.068 27.9042 122.501 26.7057C122.781 26.0362 122.924 25.3175 122.923 24.5918C123.015 23.5693 122.837 22.5405 122.407 21.6088ZM100.337 9.4656C98.933 8.87467 97.4202 8.58801 95.898 8.62444C94.3757 8.66088 92.8784 9.01957 91.5041 9.67699C90.2124 10.3104 89.0675 11.2083 88.1434 12.3128C87.2192 13.4173 86.5364 14.7038 86.1389 16.0892C85.6321 17.6005 85.4174 19.1948 85.5063 20.7867C85.4895 21.6529 85.5601 22.5185 85.7171 23.3704C86.0955 25.4651 87.1042 27.3935 88.6078 28.8966C90.1113 30.3997 92.0377 31.4056 94.1282 31.779C95.4895 31.951 96.867 31.951 98.2283 31.779C99.6409 31.5294 100.993 31.0112 102.211 30.2523C103.219 29.6859 104.072 28.8792 104.695 27.9036C104.655 27.7505 104.584 27.6071 104.488 27.4819C104.391 27.3568 104.27 27.2526 104.132 27.1754C103.865 27.2725 103.613 27.4069 103.383 27.5747C102.217 28.3447 100.841 28.7306 99.4466 28.6786C98.5209 28.7414 97.5929 28.5969 96.7298 28.2557C95.8666 27.9144 95.09 27.385 94.4562 26.7057C93.9659 26.2491 93.5612 25.7082 93.2613 25.1085C92.5333 23.6483 92.141 22.0431 92.1133 20.4109V19.4949H105.093V19.0251C105.122 18.5558 105.122 18.0852 105.093 17.6159C105.088 15.9574 104.646 14.3297 103.811 12.8982C102.975 11.4667 101.777 10.2824 100.337 9.4656ZM93.8002 17.5924H92.1601V16.2066C92.699 12.6599 94.0345 10.546 95.6745 10.546C97.3146 10.546 98.0174 12.6365 98.322 16.465V17.5454H96.9163L93.8002 17.5924ZM60.1091 8.6905C59.2995 8.65902 58.4947 8.82845 57.7661 9.18374C56.1826 9.95468 54.9036 11.2369 54.1346 12.8244L53.83 13.3881V8.6905H53.7129C53.4317 8.6905 44.763 10.4286 44.4818 10.546C44.2007 10.6635 44.2944 10.687 44.2944 11.1097C44.2944 11.5325 44.2944 11.603 44.4818 11.6265L45.3955 11.8144C45.6515 11.8207 45.9026 11.8853 46.1299 12.0033C46.3572 12.1213 46.5548 12.2896 46.7076 12.4955C47.2933 13.2706 47.4105 14.6329 47.4105 20.4344C47.5262 23.0462 47.4164 25.6631 47.0824 28.2559C47.0038 28.6468 46.8061 29.0037 46.5165 29.2771C46.2269 29.5506 45.8598 29.7272 45.4658 29.7826L44.6692 29.947H44.3647V30.6047C44.2797 30.8237 44.2797 31.0667 44.3647 31.2858H57.4616V30.6047C57.507 30.3799 57.507 30.1483 57.4616 29.9235C56.673 29.8927 55.8888 29.7905 55.1186 29.6182C54.6992 29.3982 54.3561 29.0561 54.1344 28.6368C53.9128 28.2176 53.823 27.7408 53.8769 27.2694C53.6895 25.9071 53.5958 21.9142 53.6426 18.8607C53.6895 15.8073 53.6426 15.6194 53.9003 15.408C54.6843 14.8054 55.6545 14.4978 56.6415 14.539C57.572 14.5593 58.4855 14.7923 59.3125 15.2201C59.5992 15.3797 59.9067 15.4983 60.2262 15.5724C60.2262 15.5724 62.5691 9.88838 62.5691 9.63001C62.2693 9.28074 61.8873 9.01192 61.4578 8.84787C61.0283 8.68383 60.5647 8.62974 60.1091 8.6905ZM44.3178 18.5554C44.236 16.877 43.7554 15.2424 42.9158 13.7879C42.0763 12.3335 40.9022 11.1012 39.4914 10.1937C37.8148 9.28697 35.9495 8.787 34.0452 8.73397C32.1409 8.68094 30.2508 9.07633 28.5265 9.88838C26.0887 11.1771 24.2481 13.3678 23.3956 15.9952C22.515 18.9369 22.515 22.0729 23.3956 25.0145C23.8572 26.6222 24.72 28.0854 25.9025 29.2658C27.3752 30.7065 29.2742 31.6295 31.3146 31.8965C32.6244 32.0063 33.941 32.0063 35.2507 31.8965C35.7327 31.823 36.2099 31.721 36.6799 31.5911C38.5869 31.0563 40.3026 29.9881 41.6262 28.5115C42.9498 27.0349 43.8265 25.2109 44.1538 23.253C44.3877 21.6986 44.4427 20.1224 44.3178 18.5554ZM34.5713 30.2993C32.2284 31.0039 30.4712 28.7256 29.8854 23.9341C29.6703 21.4255 29.6703 18.9031 29.8854 16.3945C30.354 12.5425 31.5489 10.593 33.3998 10.593C33.7732 10.5698 34.1468 10.6366 34.4892 10.7878C34.8316 10.939 35.1329 11.1702 35.3679 11.4621C36.9376 13.0358 37.7108 16.1596 37.7108 20.8572C37.9057 23.5158 37.4889 26.1837 36.4925 28.6552C36.0525 29.376 35.3717 29.9169 34.5713 30.1819V30.2993ZM76.7438 9.16026C76.0827 9.07497 75.4134 9.07497 74.7523 9.16026C73.4832 9.15917 72.2288 9.43152 71.0739 9.95884L70.3476 10.2642V5.16732C70.4745 3.44723 70.4745 1.72009 70.3476 0C70.0665 0 61.1165 1.71461 60.9759 1.78508C60.9068 1.95849 60.9068 2.15188 60.9759 2.3253C60.9759 2.81854 60.9759 2.79505 62.0303 3.02993C62.3263 3.09648 62.6106 3.20733 62.8737 3.35876C63.331 3.7899 63.6354 4.35896 63.7406 4.97942C64.0073 6.7669 64.0937 8.57678 63.9983 10.3816V31.0039L64.6309 31.1449C65.5681 31.3563 68.2156 31.8025 69.0824 31.8965C70.8135 32.0345 72.5527 32.0345 74.2837 31.8965C76.2051 31.6997 78.0364 30.9811 79.5805 29.8181C81.1246 28.6551 82.3229 27.0917 83.0462 25.2964C83.4774 24.1442 83.7761 22.9464 83.9365 21.7262C84.076 20.0735 84.0209 18.4101 83.7725 16.7703C83.5212 14.9322 82.7119 13.2161 81.4546 11.8547C80.1972 10.4934 78.5526 9.55268 76.7438 9.16026ZM70.6053 29.9C70.6053 29.5947 70.371 19.307 70.4179 15.1966V11.9788L71.0973 11.8144C71.5558 11.7485 72.0212 11.7485 72.4797 11.8144C72.9866 11.7627 73.4966 11.8781 73.9323 12.1432C74.8072 12.7486 75.5338 13.545 76.0573 14.4726C76.5808 15.4002 76.8876 16.4348 76.9546 17.4984C77.1253 19.2088 77.1253 20.9319 76.9546 22.6423C76.8144 25.1281 75.859 27.4979 74.2368 29.3833C73.7764 29.8217 73.1982 30.1156 72.5734 30.2288C72.1005 30.3113 71.617 30.3113 71.1442 30.2288C70.699 30.2288 70.699 30.0879 70.699 29.9H70.6053Z" fill="white"/>
</g>
<defs>
<clipPath id="clip0_4841_17700">
<rect width="123" height="32" fill="white" transform="translate(0.384766)"/>
</clipPath>
</defs>
</svg>
