<svg width="178" height="40" viewBox="0 0 178 40" fill="none" xmlns="http://www.w3.org/2000/svg">
<g opacity="0.6">
<path fill-rule="evenodd" clip-rule="evenodd" d="M8.22264 0.174805C10.0699 -0.172547 12.0257 -0.00632334 13.7604 0.710091C16.3092 1.74534 18.3257 3.88349 19.2221 6.40117C19.9764 8.46886 19.9287 10.7674 19.2149 12.839C18.7445 14.1992 17.9718 15.4369 17.1628 16.6307C14.5835 20.3864 11.9679 24.1185 9.39671 27.8789C8.30067 27.9064 7.20365 27.8799 6.10762 27.8926C8.33711 24.6783 10.6113 21.4911 12.8246 18.2668C11.3666 19.1211 9.57918 19.2718 7.92661 18.989C6.00222 18.6484 4.26247 17.5897 2.98699 16.1748C1.21988 14.2158 0.229304 11.5894 0.404729 8.98653C0.559813 6.8093 1.49972 4.69567 2.9961 3.06142C4.35174 1.58586 6.20602 0.528963 8.22264 0.174805ZM9.08641 2.68467C6.9452 2.99692 5.03711 4.37371 4.03135 6.21235C3.30937 7.50205 3.04785 9.01779 3.26889 10.466C3.54455 12.2968 4.60614 13.9956 6.12293 15.1209C7.26043 15.9752 8.70013 16.4772 10.1489 16.4125C11.5997 16.4693 13.0669 16.0309 14.2176 15.1737C15.5589 14.1952 16.4754 12.7156 16.805 11.1305C17.1942 9.2418 16.7867 7.21148 15.6999 5.59592C14.8613 4.33839 13.5799 3.3443 12.0945 2.898C11.1274 2.59663 10.0881 2.55263 9.08641 2.68467ZM52.0773 0.0583388C55.3561 -0.225454 58.714 0.606317 61.489 2.30794C64.4394 4.10655 66.7458 6.91197 67.7556 10.148C68.9003 13.752 68.3933 17.7903 66.4579 21.0577C64.7861 23.913 62.0628 26.1665 58.9015 27.3603C55.8205 28.5365 52.3348 28.7048 49.1522 27.8066C45.9708 26.9209 43.0985 25.0158 41.1265 22.4463C39.8865 20.8414 39.0035 18.9763 38.5888 17.0123C37.7949 13.2784 38.6852 9.25167 40.9724 6.14391C43.4929 2.65734 47.6822 0.35773 52.0773 0.0583388ZM51.8735 2.69645C48.2438 3.07805 44.8555 5.14086 42.9393 8.14107C40.869 11.3094 40.506 15.4917 42.1729 18.895C43.0377 20.6995 44.4012 22.27 46.061 23.4423C48.4517 25.1391 51.4892 26.0061 54.4507 25.7214C58.124 25.4473 61.5934 23.4316 63.5917 20.4491C65.6225 17.4752 66.1284 13.5601 64.8185 10.2204C64.1139 8.40917 62.9185 6.77984 61.3967 5.52149C58.8163 3.34915 55.274 2.28062 51.8735 2.69645ZM22.5871 0.45456C27.8702 0.453615 33.1525 0.45456 38.4357 0.45456C38.4357 1.27566 38.4357 2.09569 38.4357 2.91669C36.2732 2.91763 34.1115 2.91574 31.9501 2.91763C31.9471 11.241 31.9501 19.5653 31.9481 27.8898C31.0041 27.8898 30.0602 27.8898 29.1163 27.8898C29.1154 19.5653 29.1173 11.241 29.1154 2.91669C26.9397 2.91574 24.7629 2.91763 22.5873 2.91669C22.5873 2.09569 22.5861 1.27566 22.5873 0.45456H22.5871ZM76.1676 0.456455C80.4543 0.452516 84.7409 0.455505 89.0275 0.45456C89.0285 1.27566 89.0275 2.09569 89.0275 2.91669C85.5065 2.91669 81.9841 2.91763 78.4631 2.91573C77.9906 5.45415 77.4897 7.98752 77.0457 10.5297C78.5847 9.6852 80.3458 9.16466 82.1282 9.23717C84.1528 9.26641 86.1442 10.0092 87.7044 11.248C89.9593 13.0152 91.3219 15.7776 91.3655 18.5752C91.4416 21.4609 90.1428 24.3721 87.8514 26.242C86.4787 27.381 84.7531 28.112 82.9555 28.3175C80.9572 28.5376 78.8817 28.1737 77.1237 27.2176C74.1764 25.649 72.2744 22.5266 72.0728 19.3082C73.0044 19.3082 73.9371 19.3082 74.8699 19.3082C75.0008 20.9022 75.6476 22.4679 76.7719 23.6509C77.7878 24.7459 79.1981 25.5042 80.7097 25.7058C82.4101 25.9552 84.2076 25.5415 85.5997 24.5638C87.018 23.5804 88.0076 22.0637 88.3756 20.4208C88.9758 17.8393 88.0279 14.9565 85.8896 13.2736C84.4428 12.1159 82.4607 11.5943 80.6093 11.928C78.7256 12.2382 77.0658 13.3333 75.8483 14.7247C75.0971 14.4723 74.3478 14.2139 73.5995 13.9536C74.4634 9.45633 75.3272 4.95797 76.1676 0.456733V0.456455ZM52.3033 5.0721C52.2698 4.53493 52.7849 4.04187 53.3405 4.07313C53.8891 4.04955 54.3868 4.53981 54.3635 5.0663C54.3655 8.26605 54.3606 11.4669 54.3668 14.6667C54.312 15.109 53.8912 15.4554 53.4451 15.5151C51.1457 15.4661 48.8422 15.5141 46.5406 15.4887C45.8736 15.4994 45.3353 14.7469 45.612 14.1559C45.757 13.7449 46.203 13.4719 46.6482 13.4837C48.5319 13.4837 50.4167 13.4865 52.3004 13.4815C52.3055 10.679 52.2985 7.8755 52.3034 5.07195L52.3033 5.0721ZM4.37404 33.3842C4.60921 33.3851 4.84438 33.3851 5.08057 33.3833C6.06514 35.5496 7.0202 37.7289 7.98531 39.9041C7.75827 39.9041 7.53106 39.9051 7.30402 39.9081C6.95124 39.1732 6.64904 38.4158 6.29124 37.6829C5.25309 37.6975 4.21477 37.6732 3.17666 37.6937L3.12686 37.7229C2.77722 38.4422 2.48106 39.1859 2.13544 39.9071C1.90627 39.9052 1.67707 39.9042 1.44794 39.9052C2.42735 37.7329 3.38339 35.5518 4.37404 33.3843V33.3842ZM3.39152 37.1418C4.27563 37.1476 5.15876 37.1446 6.04274 37.1437C5.63012 36.1182 5.17796 35.1084 4.7289 34.0985C4.26848 35.1063 3.8204 36.1202 3.39152 37.1418V37.1418ZM8.83187 33.3851C9.64001 33.396 10.4501 33.3578 11.257 33.4194C11.842 33.4438 12.4393 33.6601 12.8205 34.1025C13.5363 34.893 13.3943 36.2709 12.4687 36.855C11.5846 37.4216 10.4703 37.2239 9.47072 37.265C9.46765 38.1447 9.47072 39.0245 9.46961 39.9051C9.25573 39.9042 9.04282 39.9042 8.82992 39.9051C8.83089 37.7319 8.82783 35.5586 8.83187 33.3851ZM9.47366 33.9469C9.46357 34.8569 9.47268 35.7659 9.46961 36.676C10.3163 36.6172 11.245 36.8511 12.0216 36.4274C12.8073 35.9744 12.8315 34.7337 12.0702 34.2472C11.3037 33.7531 10.3355 33.9978 9.47366 33.9469ZM14.2054 33.3851C15.125 33.4008 16.0507 33.3401 16.9662 33.4556C17.7134 33.5603 18.4089 34.0937 18.5741 34.8227C18.7831 35.4881 18.5621 36.2709 18.0125 36.7268C17.1344 37.4471 15.9037 37.223 14.8441 37.265C14.8411 38.1447 14.8441 39.0245 14.8431 39.9051C14.6292 39.9042 14.4163 39.9042 14.2034 39.9051C14.2044 37.7319 14.2013 35.5586 14.2054 33.3851ZM14.8481 33.9469C14.8371 34.8558 14.8462 35.7659 14.8431 36.676C15.4099 36.676 15.9766 36.6838 16.5434 36.672C17.0503 36.6447 17.5998 36.4284 17.837 35.9675C18.1899 35.3598 17.9679 34.4899 17.3099 34.168C16.5536 33.7824 15.6654 33.9939 14.8481 33.9469ZM19.6802 33.3851C19.8922 33.3851 20.1051 33.3851 20.318 33.387C20.318 35.3637 20.317 37.3393 20.3191 39.3159C21.2559 39.3208 22.1926 39.3159 23.1305 39.3178C23.1294 39.5135 23.1294 39.7083 23.1305 39.9049C21.9797 39.9049 20.829 39.9049 19.6783 39.9049C19.6792 37.7317 19.6763 35.5584 19.6802 33.385V33.3851ZM23.9385 33.3851C25.1593 33.3861 26.3799 33.3851 27.6006 33.3851C27.6006 33.5701 27.6006 33.7551 27.6015 33.941C26.5948 33.9449 25.588 33.9361 24.5812 33.9458C24.5743 34.7414 24.5691 35.5369 24.5843 36.3325C25.5556 36.3403 26.5279 36.3337 27.5002 36.3364C27.4992 36.5175 27.5002 36.7004 27.5002 36.8825C26.5279 36.8864 25.5547 36.8756 24.5822 36.8883C24.5691 37.6975 24.5783 38.5069 24.5772 39.3161C25.5849 39.321 26.5928 39.3161 27.6015 39.318C27.6006 39.5137 27.6006 39.7084 27.6015 39.905C26.3799 39.905 25.1582 39.905 23.9366 39.905C23.9375 37.7318 23.9344 35.5585 23.9385 33.3851V33.3851ZM31.3387 33.3851C31.5516 33.3851 31.7645 33.3851 31.9774 33.387C31.9764 35.5594 31.9774 37.7318 31.9774 39.905C31.7635 39.904 31.5506 39.904 31.3377 39.905C31.3377 37.7318 31.3354 35.5585 31.3387 33.385L31.3387 33.3851ZM33.3675 33.3851C33.6635 33.3851 33.9595 33.3851 34.2566 33.3833C35.5381 35.1856 36.7721 37.0224 38.0778 38.8082C38.0981 37.0009 38.0797 35.1935 38.087 33.3862C38.304 33.3853 38.5209 33.3853 38.7389 33.3853C38.7408 35.5587 38.7389 37.732 38.7398 39.9052C38.5178 39.9052 38.2968 39.9043 38.0758 39.9033C36.9768 38.3122 35.8565 36.7349 34.7493 35.1486C34.504 34.812 34.288 34.4549 34.0143 34.1388C33.993 36.0606 34.0111 37.9835 34.0052 39.9053C33.7912 39.9043 33.5783 39.9043 33.3654 39.9053C33.3664 37.732 33.3634 35.5588 33.3673 33.3853L33.3675 33.3851ZM39.5399 33.3851C40.7848 33.3851 42.0309 33.3851 43.2769 33.3861C43.2769 33.5699 43.2769 33.755 43.2779 33.9409C42.7618 33.9437 42.2458 33.9369 41.7308 33.9457C41.7206 35.9322 41.7298 37.9185 41.7268 39.905C41.5077 39.904 41.2898 39.905 41.0718 39.905C41.0718 37.9176 41.0718 35.9292 41.0718 33.9418C40.5598 33.9408 40.0488 33.9418 39.5378 33.9409C39.5378 33.755 39.5387 33.5699 39.5397 33.385L39.5399 33.3851ZM44.1143 33.3851C45.3351 33.3861 46.5558 33.3851 47.7764 33.3851C47.7754 33.5701 47.7764 33.756 47.7774 33.941C46.7706 33.9449 45.7638 33.9361 44.757 33.9458C44.7488 34.7414 44.7459 35.5369 44.7589 36.3315C45.7312 36.3412 46.7035 36.3325 47.6758 36.3364C47.6748 36.5175 47.6748 36.7004 47.6758 36.8825C46.7035 36.8874 45.7302 36.8756 44.758 36.8883C44.7448 37.6975 44.7539 38.5069 44.7527 39.3161C45.7607 39.321 46.7684 39.3161 47.7772 39.318C47.7762 39.5137 47.7762 39.7084 47.7772 39.905C46.5555 39.905 45.3337 39.905 44.1121 39.905C44.1131 37.7318 44.1101 35.5585 44.1141 33.3851L44.1143 33.3851ZM48.9809 33.3842C49.1928 33.3851 49.4058 33.3861 49.6186 33.387C49.6186 35.3637 49.6176 37.3393 49.6196 39.3159C50.5564 39.3208 51.4932 39.3159 52.4312 39.3178C52.4302 39.5135 52.4302 39.7083 52.4312 39.9049C51.2803 39.9049 50.1296 39.9049 48.979 39.9049C48.9799 37.7317 48.9767 35.5573 48.9809 33.384V33.3842ZM53.2392 33.3851C53.4511 33.3851 53.664 33.3851 53.8769 33.387C53.8769 35.3637 53.8746 37.3393 53.8779 39.3159C54.8147 39.3208 55.7515 39.3159 56.6893 39.3178C56.6883 39.5135 56.6883 39.7083 56.6893 39.9049C55.5386 39.9049 54.3879 39.9049 53.2371 39.9049C53.2371 37.7317 53.2351 35.5584 53.239 33.385L53.2392 33.3851ZM57.4973 33.3851C57.7093 33.3851 57.9221 33.3851 58.135 33.387C58.1341 35.5594 58.135 37.7318 58.135 39.905C57.9211 39.904 57.7083 39.904 57.4954 39.905C57.4954 37.7318 57.4934 35.5585 57.4973 33.385V33.3851ZM60.4933 34.0995C61.7597 33.0475 63.8036 33.0132 65.1013 34.033C65.4836 34.3177 65.8 34.6836 66.0017 35.1084C65.7584 35.1103 65.515 35.1103 65.2727 35.1112C64.7962 34.3998 63.9506 33.9526 63.0818 33.8831C62.1571 33.8264 61.1827 34.16 60.5846 34.8607C60.0482 35.4625 59.7816 36.2893 59.9306 37.0761C60.101 38.2308 61.1332 39.1584 62.3071 39.3531C63.6881 39.6398 65.2493 38.7992 65.6275 37.4674C64.3684 37.4568 63.1091 37.4665 61.8499 37.4626C61.8489 37.2757 61.8499 37.0898 61.8509 36.9039C63.3737 36.902 64.8956 36.9058 66.4184 36.902C66.3302 37.5008 66.1406 38.0929 65.7562 38.5802C65.1369 39.4051 64.124 39.914 63.0777 39.9922C61.9391 40.0539 60.7691 39.5832 60.0462 38.723C59.5494 38.1683 59.2909 37.446 59.2412 36.72C59.2281 35.7269 59.6954 34.7317 60.4933 34.0995ZM67.5346 33.3851C68.7554 33.3861 69.976 33.3851 71.1968 33.3851C71.1955 33.5701 71.1955 33.7551 71.1978 33.941C70.191 33.9449 69.1842 33.9351 68.1773 33.9458C68.1703 34.7414 68.1653 35.5369 68.1793 36.3325C69.1516 36.3403 70.1239 36.3337 71.0961 36.3364C71.0951 36.5175 71.0951 36.7004 71.0961 36.8825C70.1239 36.8874 69.1506 36.8756 68.1783 36.8883C68.1652 37.6975 68.1743 38.5069 68.1733 39.3161C69.181 39.321 70.1887 39.3161 71.1976 39.318C71.1966 39.5137 71.1966 39.7084 71.1976 39.905C69.9758 39.905 68.7541 39.905 67.5325 39.905C67.5335 37.7318 67.5302 35.5585 67.5344 33.3851L67.5346 33.3851ZM72.5025 33.3851C72.7976 33.3851 73.0947 33.3851 73.3918 33.3842C74.6732 35.1867 75.907 37.0224 77.213 38.8082C77.2332 37.0018 77.216 35.1945 77.222 33.3872C77.4381 33.3853 77.6551 33.3853 77.874 33.3843C77.876 35.5587 77.874 37.732 77.875 39.9052C77.653 39.9052 77.4319 39.9043 77.2119 39.9043C76.344 38.6459 75.458 37.3993 74.583 36.1458C74.1004 35.4804 73.6624 34.7836 73.1494 34.1399C73.1281 36.0606 73.1462 37.9835 73.1402 39.9053C72.9263 39.9043 72.7134 39.9043 72.5005 39.9053C72.5005 37.732 72.4985 35.5588 72.5025 33.3853V33.3851ZM79.6928 34.5193C80.6145 33.396 82.3127 32.9938 83.6855 33.5134C84.4356 33.8011 85.1119 34.3256 85.4861 35.0242C85.2448 35.0252 85.0055 35.0252 84.7672 35.0233C84.2603 34.3315 83.3955 33.9322 82.5296 33.8872C80.9319 33.7854 79.4466 35.214 79.5642 36.7591C79.6078 38.0215 80.6652 39.1428 81.9456 39.3581C83.0234 39.5832 84.1356 39.045 84.7866 38.224C85.0258 38.223 85.2671 38.223 85.5084 38.2249C84.9883 39.1164 84.0555 39.776 83.0071 39.9502C81.459 40.2212 79.7628 39.364 79.183 37.9344C78.6983 36.8169 78.8808 35.4528 79.6928 34.5193ZM86.6967 33.3851C87.9163 33.3851 89.136 33.387 90.3556 33.3842C90.3566 33.5691 90.3579 33.7551 90.3608 33.941C89.3529 33.9449 88.3462 33.9361 87.3394 33.9458C87.3313 34.7414 87.3272 35.5369 87.3414 36.3325C88.3138 36.3403 89.2861 36.3324 90.2584 36.3364C90.2564 36.5175 90.2574 36.7004 90.2584 36.8825C89.285 36.8874 88.3117 36.8747 87.3394 36.8893C87.3282 37.6975 87.3354 38.5069 87.3354 39.3161C88.3431 39.321 89.351 39.3161 90.3597 39.318C90.3577 39.5137 90.3577 39.7084 90.3597 39.905C89.1379 39.905 87.9163 39.905 86.6946 39.905C86.6959 37.7318 86.6926 35.5585 86.6968 33.3851L86.6967 33.3851Z" fill="white"/>
<path fill-rule="evenodd" clip-rule="evenodd" d="M99.3693 0.00352463C100.748 0.00176582 102.126 0.00527993 103.504 0.00176231C106.812 7.25846 110.09 14.5262 113.392 21.7855C114.138 20.2409 114.81 18.6634 115.527 17.1068C118.102 11.4048 120.679 5.70282 123.252 0C124.629 0.00729905 126.004 0.000885459 127.381 0.00364092C127.382 8.52653 127.382 17.0494 127.381 25.5723C126.495 25.5732 125.609 25.5741 124.724 25.5723C124.716 17.9897 124.739 10.4063 124.713 2.82366C123.918 4.47128 123.213 6.15888 122.453 7.82107C119.811 13.7387 117.158 19.6519 114.522 25.5723C113.767 25.575 113.011 25.5706 112.255 25.575C108.846 17.9905 105.475 10.3907 102.064 2.80706C102.06 10.3961 102.064 17.9842 102.063 25.5731C101.164 25.5731 100.267 25.5731 99.3693 25.5731C99.3684 17.0492 99.3684 8.52642 99.3693 0.00352463ZM138.996 6.72402C141.305 6.06414 143.862 6.0659 146.117 6.90886C147.758 7.51413 149.216 8.62834 150.054 10.1084C150.102 10.1794 150.159 10.2441 150.228 10.3023C150.268 9.08525 150.234 7.86548 150.246 6.64762C151.097 6.64674 151.948 6.64674 152.8 6.64762C152.801 12.9557 152.801 19.264 152.8 25.5722C151.949 25.574 151.097 25.5731 150.246 25.5722C150.239 24.3706 150.258 23.1672 150.235 21.9657C149.974 22.1369 149.871 22.4372 149.694 22.6748C148.642 24.164 146.957 25.1908 145.145 25.655C141.689 26.5808 137.86 25.5658 135.175 23.3712C134.722 23.0435 134.331 22.6512 133.938 22.2634C133.272 21.6553 132.867 20.8479 132.525 20.0468C131.843 18.3683 131.546 16.5286 131.799 14.7409C132.308 11.057 135.276 7.84285 138.996 6.72402ZM141.648 8.71024C140.176 8.83318 138.744 9.35379 137.564 10.194C136.132 11.2054 135.067 12.6809 134.63 14.3231C134.158 16.0135 134.351 17.8676 135.207 19.4215C136.025 20.9443 137.425 22.1651 139.064 22.8705C140.885 23.6624 143.031 23.8191 144.927 23.1773C146.774 22.5647 148.352 21.2775 149.292 19.6555C150.074 18.3119 150.404 16.728 150.166 15.2079C149.94 13.4219 149.021 11.7141 147.594 10.5208C146.001 9.15533 143.778 8.50551 141.648 8.71024ZM162.18 7.54787C164.182 6.49827 166.534 6.07053 168.807 6.32172C170.638 6.52468 172.413 7.17011 173.91 8.18951C175.454 9.2346 176.679 10.7001 177.369 12.3759C176.405 12.3732 175.442 12.3785 174.478 12.3741C174.337 12.4042 174.288 12.2531 174.22 12.1757C173.142 10.5418 171.357 9.3593 169.389 8.89424C167.42 8.43264 165.283 8.72308 163.5 9.62508C162.061 10.3515 160.855 11.4984 160.147 12.8921C159.117 14.882 159.151 17.3042 160.143 19.3013C160.894 20.8307 162.217 22.0995 163.826 22.8277C165.772 23.7225 168.085 23.7917 170.131 23.1745C171.886 22.6557 173.302 21.4387 174.365 20.0522C175.351 20.0468 176.339 20.0487 177.327 20.0514C176.633 21.4569 175.644 22.7432 174.377 23.7344C172.926 24.8868 171.13 25.6305 169.26 25.8917C167.214 26.1648 165.09 25.9199 163.18 25.1736C161.471 24.5008 159.93 23.4222 158.81 22.0231C156.259 18.9345 156.01 14.3349 158.253 11.0324C159.212 9.57234 160.589 8.37161 162.18 7.54787Z" fill="white"/>
</g>
</svg>
