<svg width="106" height="36" viewBox="0 0 106 36" fill="none" xmlns="http://www.w3.org/2000/svg">
<g opacity="0.6" clip-path="url(#clip0_4841_17689)">
<path d="M7.6088 27.3713V35.3713H4.03799V27.3713H0.437988V24.8113H11.2088V27.3713H7.6088ZM19.5374 32.2033H13.8456C13.8408 32.3776 13.8806 32.5508 13.9623 32.7117C14.0439 32.8726 14.1657 33.0176 14.3197 33.1375C14.4737 33.2573 14.6565 33.3493 14.8564 33.4075C15.0563 33.4657 15.2687 33.4888 15.4802 33.4753C16.3588 33.4714 17.221 33.2784 17.9807 32.9153L19.2747 34.6753C18.1042 35.2679 16.7575 35.5834 15.3829 35.5873C12.4639 35.5873 10.878 33.8913 10.878 31.4593C10.878 28.7233 12.7558 27.3153 15.2856 27.3153C17.8153 27.3153 19.5861 28.7553 19.5861 31.6993C19.5472 31.8913 19.5472 32.0593 19.5374 32.1953V32.2033ZM15.1591 29.2993C14.4002 29.2993 13.9915 29.7233 13.8747 30.5153H16.6283C16.4629 29.7153 16.1418 29.2993 15.1688 29.2993H15.1591ZM25.6866 35.5633C22.865 35.5633 21.172 34.0833 21.172 31.4033C21.172 29.0033 22.6704 27.2913 25.7645 27.2913C26.5254 27.2706 27.2778 27.428 27.9341 27.7453C28.5903 28.0626 29.1235 28.5266 29.4715 29.0833L27.1947 30.5233C26.7374 29.8353 26.4164 29.4993 25.7061 29.4993C24.9958 29.4993 24.4412 30.1953 24.4412 31.4513C24.4412 32.7073 24.8985 33.3553 25.8034 33.3553C26.4261 33.3553 26.8737 33.0673 27.4769 32.3153L29.5688 33.6593C28.4401 35.0193 27.3991 35.5553 25.6769 35.5553L25.6866 35.5633ZM36.9731 35.4033V30.8993C36.9731 29.8593 36.5547 29.5953 35.8737 29.5953C35.1926 29.5953 34.745 29.8673 34.745 30.8753V35.4113H31.4369V25.4913L34.745 24.4033V28.0033C35.4299 27.5416 36.2919 27.2949 37.1774 27.3073C39.2888 27.3073 40.291 28.4753 40.291 30.5553V35.4113L36.9731 35.4033Z" fill="white"/>
<path d="M48.2207 35.5632C44.3969 35.5632 42.3828 33.2432 42.3828 30.1072C42.3828 26.7072 44.8152 24.6512 48.2207 24.6512C51.3828 24.6512 52.6282 25.7712 53.5136 27.7712L50.2834 28.8112C49.8163 27.8272 49.3785 27.2112 48.2012 27.2112C46.7125 27.2112 46.0606 28.4352 46.0606 30.1152C46.0606 31.7952 46.6834 33.0112 48.2304 33.0112C49.3493 33.0112 49.8261 32.5152 50.5266 31.5152L53.5428 32.8352C53.0962 33.6819 52.3471 34.397 51.3948 34.8856C50.4426 35.3743 49.3322 35.6134 48.2109 35.5712L48.2207 35.5632ZM61.7061 30.4432C61.5235 30.2477 61.2915 30.0871 61.0261 29.9724C60.7607 29.8578 60.4682 29.7919 60.1688 29.7792C59.3612 29.7792 58.865 30.0992 58.865 31.0592V35.3792H55.5569V27.4592H58.865V28.0352C59.3218 27.6387 59.9294 27.3822 60.5875 27.3081C61.2455 27.2339 61.9147 27.3465 62.4844 27.6272L61.7061 30.4432ZM69.5871 35.3872V34.8592C68.9108 35.3223 68.0541 35.5694 67.1742 35.5552C65.0628 35.5552 64.0607 34.3872 64.0607 32.2992V27.4752H67.3688V31.9552C67.3688 32.9792 67.7969 33.2512 68.4779 33.2512C69.159 33.2512 69.5774 32.9792 69.5774 31.9872V27.4752H72.905V35.4112L69.5871 35.3872ZM80.8347 35.3872V30.8832C80.8347 29.8432 80.4066 29.5792 79.7352 29.5792C79.0639 29.5792 78.6066 29.8512 78.6066 30.8592V35.3952H75.2985V27.4752H78.6066V28.0032C79.2915 27.5415 80.1535 27.2948 81.039 27.3072C83.1504 27.3072 84.1525 28.4752 84.1525 30.5552V35.4112L80.8347 35.3872ZM90.6131 35.5472C87.7915 35.5472 86.0888 34.0672 86.0888 31.3872C86.0888 28.9872 87.5969 27.2752 90.6812 27.2752C91.4431 27.2558 92.1961 27.4138 92.8537 27.7308C93.5112 28.0478 94.0465 28.5111 94.3979 29.0672L92.1212 30.4832C91.6542 29.7952 91.3428 29.4592 90.6325 29.4592C89.9223 29.4592 89.3677 30.1552 89.3677 31.4112C89.3677 32.6672 89.825 33.3152 90.7298 33.3152C91.3525 33.3152 91.8001 33.0272 92.4034 32.2752L94.4952 33.6192C93.3763 35.0112 92.3255 35.5392 90.6228 35.5392L90.6131 35.5472ZM101.9 35.3872V30.8832C101.9 29.8432 101.481 29.5792 100.8 29.5792C100.119 29.5792 99.6812 29.8512 99.6812 30.8592V35.3952H96.3731V25.4752L99.6812 24.3872V27.9872C100.361 27.5242 101.221 27.2772 102.104 27.2912C104.225 27.2912 105.217 28.4592 105.217 30.5392V35.3952L101.9 35.3872Z" fill="white"/>
<path d="M28.0361 0V6.3488H35.7469V19.0368H43.4685V6.3488H51.1793V0H28.0361ZM58.9008 12.688V6.348H51.1783V19.036H74.3321V12.6872L58.9008 12.688ZM58.9008 0H74.3321V6.3488H58.9008V0Z" fill="white"/>
</g>
<defs>
<clipPath id="clip0_4841_17689">
<rect width="105.081" height="36" fill="white" transform="translate(0.437988)"/>
</clipPath>
</defs>
</svg>
