<svg width="184" height="42" viewBox="0 0 184 42" fill="none" xmlns="http://www.w3.org/2000/svg">
<path fill-rule="evenodd" clip-rule="evenodd" d="M8.23698 0.28877C10.1379 -0.068673 12.1505 0.10238 13.9356 0.839609C16.5584 1.90493 18.6336 4.10521 19.556 6.69603C20.3322 8.8238 20.2832 11.1891 19.5486 13.3209C19.0646 14.7206 18.2694 15.9943 17.4369 17.2228C14.7827 21.0876 12.0911 24.9281 9.44516 28.7978C8.31728 28.8261 7.18839 28.7988 6.06051 28.8119C8.35477 25.5041 10.695 22.2243 12.9726 18.9064C11.4723 19.7855 9.63294 19.9406 7.93234 19.6496C5.95205 19.2991 4.16176 18.2096 2.84922 16.7537C1.03077 14.7377 0.0114087 12.0349 0.19193 9.35651C0.35152 7.11603 1.31874 4.94098 2.85859 3.25925C4.25361 1.74082 6.16177 0.653218 8.23698 0.28877ZM9.12584 2.87155C6.92243 3.19287 4.9589 4.60967 3.92392 6.50172C3.18097 7.8289 2.91185 9.38868 3.1393 10.879C3.42297 12.7629 4.51541 14.5111 6.07626 15.6691C7.24681 16.5482 8.72835 17.0648 10.2193 16.9982C11.7122 17.0567 13.222 16.6055 14.4061 15.7234C15.7864 14.7165 16.7295 13.1939 17.0687 11.5627C17.4692 9.61919 17.0498 7.52989 15.9315 5.86738C15.0685 4.57332 13.7499 3.55035 12.2213 3.09109C11.2261 2.78095 10.1566 2.73568 9.12584 2.87155ZM53.3658 0.168921C56.7399 -0.123117 60.1953 0.732819 63.0509 2.48388C66.087 4.33475 68.4604 7.22167 69.4996 10.5517C70.6775 14.2604 70.1558 18.416 68.1642 21.7784C66.4438 24.7166 63.6414 27.0356 60.3883 28.2641C57.2177 29.4745 53.6307 29.6477 50.3557 28.7234C47.0818 27.812 44.1261 25.8515 42.0968 23.2073C40.8208 21.5558 39.9122 19.6366 39.4854 17.6154C38.6685 13.773 39.5846 9.62935 41.9383 6.43129C44.532 2.84344 48.843 0.47701 53.3658 0.168921ZM53.156 2.88368C49.4209 3.27637 45.9342 5.39911 43.9622 8.48649C41.8318 11.7469 41.4583 16.0507 43.1736 19.5529C44.0635 21.4097 45.4667 23.0259 47.1747 24.2322C49.6348 25.9784 52.7606 26.8705 55.8081 26.5775C59.5881 26.2955 63.1584 24.2212 65.2147 21.1521C67.3045 18.0918 67.8251 14.063 66.4771 10.6262C65.7521 8.76238 64.5219 7.08571 62.9559 5.7908C60.3006 3.55534 56.6554 2.45577 53.156 2.88368ZM23.0188 0.576653C28.4554 0.575681 33.8911 0.576653 39.3279 0.576653C39.3279 1.4216 39.3279 2.26546 39.3279 3.11031C37.1025 3.11129 34.8781 3.10934 32.6538 3.11128C32.6507 11.6765 32.6538 20.2427 32.6518 28.809C31.6803 28.809 30.709 28.809 29.7377 28.809C29.7367 20.2427 29.7387 11.6765 29.7367 3.11031C27.4978 3.10934 25.2578 3.11129 23.0189 3.11031C23.0189 2.26546 23.0178 1.4216 23.0189 0.576653H23.0188ZM78.156 0.578603C82.5672 0.574549 86.9784 0.577626 91.3895 0.576653C91.3905 1.4216 91.3895 2.26546 91.3895 3.11031C87.7662 3.11031 84.1415 3.11128 80.5182 3.10933C80.032 5.72149 79.5165 8.32847 79.0596 10.9445C80.6433 10.0755 82.4556 9.53981 84.2898 9.61443C86.3732 9.64452 88.4224 10.4089 90.028 11.6837C92.3483 13.5022 93.7505 16.3449 93.7954 19.2238C93.8737 22.1933 92.5372 25.1891 90.1793 27.1133C88.7667 28.2854 86.9909 29.0377 85.1411 29.2491C83.0848 29.4756 80.949 29.1011 79.1399 28.1172C76.1069 26.5031 74.1497 23.29 73.9422 19.978C74.9008 19.978 75.8607 19.978 76.8206 19.978C76.9553 21.6184 77.6209 23.2295 78.7779 24.4469C79.8233 25.5737 81.2745 26.3541 82.83 26.5615C84.5798 26.8182 86.4296 26.3924 87.8621 25.3864C89.3217 24.3743 90.3399 22.8136 90.7187 21.123C91.3363 18.4665 90.3609 15.5 88.1605 13.7681C86.6716 12.5768 84.6319 12.0401 82.7267 12.3835C80.7883 12.7027 79.0803 13.8295 77.8274 15.2614C77.0543 15.0016 76.2833 14.7357 75.5132 14.4679C76.4023 9.83996 77.2912 5.2109 78.156 0.57889V0.578603ZM53.5984 5.32835C53.5639 4.77557 54.094 4.26818 54.6657 4.30035C55.2302 4.27609 55.7424 4.78059 55.7184 5.32238C55.7204 8.61509 55.7154 11.9089 55.7218 15.2017C55.6654 15.6569 55.2324 16.0133 54.7733 16.0747C52.4071 16.0243 50.0367 16.0738 47.6683 16.0476C46.9819 16.0586 46.4279 15.2842 46.7126 14.676C46.8619 14.2531 47.3208 13.9722 47.7789 13.9843C49.7173 13.9843 51.6569 13.9873 53.5954 13.9821C53.6006 11.0982 53.5934 8.21319 53.5984 5.32819L53.5984 5.32835ZM4.27656 34.463C4.51856 34.464 4.76057 34.464 5.00362 34.462C6.0168 36.6914 6.9996 38.934 7.99275 41.1724C7.75911 41.1724 7.52531 41.1733 7.29167 41.1765C6.92864 40.4202 6.61766 39.6408 6.24946 38.8866C5.18115 38.9016 4.11267 38.8766 3.04439 38.8978L2.99315 38.9278C2.63335 39.6679 2.32859 40.4333 1.97292 41.1754C1.7371 41.1735 1.50124 41.1725 1.26545 41.1735C2.27332 38.9381 3.25713 36.6935 4.27656 34.4631V34.463ZM3.2655 38.3298C4.1753 38.3358 5.08408 38.3327 5.99375 38.3317C5.56914 37.2764 5.10384 36.2373 4.64174 35.1981C4.16794 36.2352 3.70684 37.2785 3.2655 38.3298V38.3298ZM8.86391 34.464C9.69553 34.4751 10.5292 34.4359 11.3595 34.4992C11.9615 34.5244 12.5761 34.747 12.9684 35.2022C13.705 36.0157 13.5589 37.4336 12.6064 38.0347C11.6966 38.6177 10.55 38.4143 9.52132 38.4566C9.51817 39.3618 9.52132 40.2672 9.52018 41.1734C9.30008 41.1724 9.08099 41.1724 8.8619 41.1734C8.86291 38.937 8.85975 36.7006 8.86391 34.464ZM9.52435 35.0421C9.51397 35.9785 9.52334 36.9139 9.52018 37.8504C10.3915 37.79 11.3471 38.0306 12.1463 37.5947C12.9549 37.1285 12.9798 35.8517 12.1963 35.3511C11.4075 34.8426 10.4112 35.0944 9.52435 35.0421ZM14.3936 34.464C15.3398 34.4801 16.2925 34.4176 17.2346 34.5365C18.0034 34.6443 18.7191 35.1931 18.8892 35.9433C19.1042 36.628 18.8768 37.4336 18.3113 37.9027C17.4077 38.644 16.1412 38.4133 15.0508 38.4566C15.0478 39.3618 15.0508 40.2672 15.0498 41.1734C14.8297 41.1724 14.6106 41.1724 14.3915 41.1734C14.3925 38.937 14.3894 36.7006 14.3936 34.464ZM15.055 35.0421C15.0436 35.9774 15.0529 36.9139 15.0498 37.8504C15.6331 37.8504 16.2162 37.8585 16.7995 37.8464C17.3211 37.8182 17.8866 37.5956 18.1307 37.1214C18.4939 36.4961 18.2654 35.6009 17.5882 35.2695C16.81 34.8728 15.896 35.0904 15.055 35.0421ZM20.0274 34.464C20.2455 34.464 20.4646 34.464 20.6837 34.4659C20.6837 36.5 20.6827 38.533 20.6849 40.5671C21.6489 40.5721 22.6128 40.5671 23.5779 40.569C23.5768 40.7704 23.5768 40.9708 23.5779 41.1732C22.3937 41.1732 21.2096 41.1732 20.0254 41.1732C20.0264 38.9368 20.0234 36.7004 20.0274 34.4638V34.464ZM24.4095 34.464C25.6657 34.465 26.9218 34.464 28.1779 34.464C28.1779 34.6543 28.1779 34.8447 28.1789 35.036C27.1429 35.04 26.1069 35.0309 25.0709 35.041C25.0637 35.8596 25.0583 36.6783 25.0741 37.4969C26.0736 37.505 27.0741 37.4982 28.0746 37.501C28.0736 37.6874 28.0746 37.8756 28.0746 38.063C27.0741 38.067 26.0725 38.0559 25.0719 38.0689C25.0583 38.9016 25.0679 39.7345 25.0667 40.5672C26.1037 40.5723 27.1409 40.5672 28.1789 40.5692C28.1779 40.7706 28.1779 40.9709 28.1789 41.1733C26.9218 41.1733 25.6645 41.1733 24.4074 41.1733C24.4084 38.9369 24.4053 36.7005 24.4095 34.4639V34.464ZM32.0246 34.464C32.2437 34.464 32.4628 34.464 32.6819 34.4659C32.6809 36.7014 32.6819 38.9369 32.6819 41.1732C32.4618 41.1723 32.2427 41.1723 32.0236 41.1732C32.0236 38.9369 32.0213 36.7004 32.0246 34.4639L32.0246 34.464ZM34.1124 34.464C34.417 34.464 34.7216 34.464 35.0274 34.462C36.346 36.3168 37.6159 38.2069 38.9595 40.0446C38.9804 38.1848 38.9615 36.3248 38.969 34.4651C39.1923 34.4641 39.4155 34.4641 39.6398 34.4641C39.6418 36.7007 39.6398 38.9371 39.6408 41.1735C39.4124 41.1735 39.1849 41.1725 38.9575 41.1716C37.8266 39.5342 36.6737 37.9111 35.5343 36.2786C35.2819 35.9323 35.0596 35.5648 34.778 35.2395C34.7561 37.2172 34.7746 39.1959 34.7686 41.1735C34.5484 41.1726 34.3293 41.1726 34.1102 41.1735C34.1112 38.9372 34.1082 36.7007 34.1122 34.4642L34.1124 34.464ZM40.4641 34.464C41.7452 34.464 43.0275 34.464 44.3097 34.465C44.3097 34.6541 44.3097 34.8446 44.3107 35.0358C43.7796 35.0388 43.2486 35.0318 42.7187 35.0408C42.7082 37.0851 42.7177 39.1291 42.7145 41.1732C42.4891 41.1723 42.2648 41.1732 42.0405 41.1732C42.0405 39.1281 42.0405 37.082 42.0405 35.0368C41.5137 35.0358 40.9878 35.0368 40.4619 35.0358C40.4619 34.8446 40.4629 34.6541 40.4639 34.4639L40.4641 34.464ZM45.1715 34.464C46.4277 34.465 47.6838 34.464 48.9399 34.464C48.9389 34.6543 48.9399 34.8457 48.9409 35.036C47.9049 35.04 46.8688 35.0309 45.8328 35.041C45.8244 35.8596 45.8214 36.6783 45.8348 37.496C46.8353 37.506 47.8358 37.497 48.8364 37.501C48.8353 37.6874 48.8353 37.8756 48.8364 38.063C47.8358 38.068 46.8343 38.0559 45.8338 38.0689C45.8202 38.9016 45.8296 39.7345 45.8284 40.5672C46.8656 40.5723 47.9026 40.5672 48.9407 40.5692C48.9397 40.7706 48.9397 40.9709 48.9407 41.1733C47.6835 41.1733 46.4263 41.1733 45.1691 41.1733C45.1702 38.9369 45.1671 36.7005 45.1712 34.4639L45.1715 34.464ZM50.1794 34.463C50.3975 34.464 50.6166 34.465 50.8357 34.4659C50.8357 36.5 50.8347 38.533 50.8367 40.5671C51.8007 40.5721 52.7647 40.5671 53.7299 40.569C53.7289 40.7704 53.7289 40.9708 53.7299 41.1732C52.5457 41.1732 51.3615 41.1732 50.1774 41.1732C50.1784 38.9368 50.1751 36.6992 50.1794 34.4628V34.463ZM54.5614 34.464C54.7795 34.464 54.9986 34.464 55.2177 34.4659C55.2177 36.5 55.2153 38.533 55.2187 40.5671C56.1827 40.5721 57.1467 40.5671 58.1118 40.569C58.1107 40.7704 58.1107 40.9708 58.1118 41.1732C56.9276 41.1732 55.7435 41.1732 54.5593 41.1732C54.5593 38.9368 54.5572 36.7004 54.5613 34.4638L54.5614 34.464ZM58.9433 34.464C59.1614 34.464 59.3804 34.464 59.5995 34.4659C59.5985 36.7014 59.5995 38.9369 59.5995 41.1732C59.3794 41.1723 59.1603 41.1723 58.9413 41.1732C58.9413 38.9369 58.9392 36.7004 58.9433 34.4639V34.464ZM62.0263 35.1991C63.3294 34.1165 65.4327 34.0813 66.7682 35.1306C67.1616 35.4237 67.4871 35.8002 67.6947 36.2373C67.4443 36.2392 67.1939 36.2392 66.9445 36.2402C66.4542 35.5082 65.584 35.0479 64.6899 34.9764C63.7385 34.9181 62.7358 35.2613 62.1202 35.9824C61.5682 36.6017 61.2939 37.4525 61.4473 38.2622C61.6226 39.4504 62.6847 40.405 63.8928 40.6054C65.3139 40.9004 66.9205 40.0353 67.3096 38.6649C66.014 38.6539 64.7181 38.6639 63.4223 38.6599C63.4213 38.4676 63.4223 38.2762 63.4233 38.085C64.9904 38.083 66.5564 38.0869 68.1235 38.083C68.0328 38.6993 67.8376 39.3085 67.4421 39.8099C66.8048 40.6589 65.7625 41.1825 64.6858 41.263C63.5141 41.3265 62.3101 40.8421 61.5662 39.957C61.0549 39.3861 60.789 38.6429 60.7378 37.8957C60.7244 36.8737 61.2052 35.8496 62.0263 35.1991ZM69.2721 34.464C70.5284 34.465 71.7844 34.464 73.0407 34.464C73.0394 34.6543 73.0394 34.8447 73.0417 35.036C72.0057 35.04 70.9697 35.03 69.9336 35.041C69.9264 35.8596 69.9212 36.6783 69.9356 37.4969C70.9361 37.505 71.9366 37.4982 72.9372 37.501C72.9361 37.6874 72.9361 37.8756 72.9372 38.063C71.9366 38.068 70.9351 38.0559 69.9346 38.0689C69.921 38.9016 69.9304 39.7345 69.9294 40.5672C70.9664 40.5723 72.0034 40.5672 73.0416 40.5692C73.0406 40.7706 73.0406 40.9709 73.0416 41.1733C71.7843 41.1733 70.5271 41.1733 69.27 41.1733C69.271 38.9369 69.2676 36.7005 69.272 34.4639L69.2721 34.464ZM74.3844 34.464C74.6881 34.464 74.9938 34.464 75.2995 34.463C76.6182 36.3179 77.8878 38.2069 79.2318 40.0446C79.2526 38.1857 79.2348 36.3259 79.241 34.4661C79.4634 34.4641 79.6867 34.4641 79.912 34.4631C79.914 36.7007 79.912 38.9371 79.913 41.1735C79.6845 41.1735 79.4571 41.1725 79.2306 41.1725C78.3375 39.8776 77.4257 38.5947 76.5253 37.3049C76.0287 36.6201 75.578 35.9031 75.0501 35.2406C75.0282 37.2172 75.0468 39.1959 75.0406 41.1735C74.8205 41.1726 74.6014 41.1726 74.3823 41.1735C74.3823 38.9372 74.3803 36.7007 74.3844 34.4642V34.464ZM81.7836 35.6311C82.7321 34.4751 84.4796 34.0612 85.8923 34.5959C86.6642 34.892 87.3602 35.4317 87.7453 36.1507C87.4969 36.1517 87.2507 36.1517 87.0055 36.1497C86.4838 35.4378 85.5939 35.0269 84.7029 34.9806C83.0587 34.8759 81.5302 36.346 81.6512 37.936C81.6961 39.2351 82.7843 40.389 84.1018 40.6105C85.211 40.8421 86.3555 40.2883 87.0254 39.4434C87.2716 39.4424 87.5198 39.4425 87.7682 39.4444C87.2329 40.3618 86.2731 41.0405 85.1942 41.2197C83.6011 41.4986 81.8556 40.6165 81.2589 39.1454C80.7602 37.9954 80.948 36.5917 81.7836 35.6311ZM88.991 34.464C90.2461 34.464 91.5011 34.4659 92.7562 34.463C92.7572 34.6533 92.7586 34.8447 92.7616 35.036C91.7244 35.04 90.6884 35.0309 89.6524 35.041C89.644 35.8596 89.6399 36.6783 89.6544 37.4969C90.6551 37.505 91.6556 37.4969 92.6561 37.501C92.6541 37.6874 92.6551 37.8756 92.6561 38.063C91.6544 38.068 90.6529 38.0549 89.6524 38.0699C89.6409 38.9016 89.6482 39.7345 89.6482 40.5672C90.6852 40.5723 91.7224 40.5672 92.7604 40.5692C92.7584 40.7706 92.7584 40.9709 92.7604 41.1733C91.5032 41.1733 90.2461 41.1733 88.9888 41.1733C88.9901 38.9369 88.9868 36.7005 88.9911 34.4639L88.991 34.464Z" fill="white"/>
<path opacity="0.6" fill-rule="evenodd" clip-rule="evenodd" d="M98.6927 0.60302C100.188 0.601074 101.683 0.604962 103.178 0.601071C106.766 8.62855 110.321 16.6682 113.903 24.6986C114.712 22.9899 115.441 21.2448 116.218 19.5229C119.011 13.2153 121.807 6.90767 124.598 0.599121C126.091 0.607195 127.583 0.600101 129.076 0.603149C129.077 10.0313 129.077 19.4594 129.076 28.8877C128.115 28.8886 127.154 28.8896 126.195 28.8877C126.186 20.4997 126.211 12.1107 126.182 3.7227C125.32 5.54533 124.556 7.41218 123.731 9.25092C120.865 15.7971 117.988 22.3384 115.128 28.8877C114.309 28.8906 113.489 28.8857 112.67 28.8906C108.971 20.5005 105.316 12.0935 101.615 3.70434C101.612 12.0994 101.615 20.4936 101.614 28.8885C100.64 28.8885 99.666 28.8885 98.6927 28.8885C98.6916 19.4593 98.6916 10.0312 98.6927 0.60302ZM141.676 8.03734C144.18 7.30738 146.953 7.30932 149.399 8.24182C151.179 8.91138 152.761 10.1439 153.67 11.7812C153.722 11.8597 153.784 11.9313 153.859 11.9957C153.902 10.6494 153.865 9.30005 153.878 7.95283C154.801 7.95186 155.724 7.95186 156.648 7.95283C156.65 14.931 156.65 21.9093 156.648 28.8875C155.725 28.8895 154.801 28.8885 153.878 28.8875C153.87 27.5583 153.891 26.2271 153.866 24.898C153.583 25.0873 153.471 25.4196 153.279 25.6824C152.138 27.3297 150.311 28.4656 148.345 28.9791C144.596 30.0033 140.443 28.8804 137.531 26.4527C137.039 26.0903 136.615 25.6562 136.189 25.2273C135.467 24.5546 135.027 23.6614 134.656 22.7753C133.916 20.9184 133.595 18.8834 133.869 16.9057C134.421 12.8305 137.64 9.27502 141.676 8.03734ZM144.552 10.2345C142.955 10.3705 141.402 10.9464 140.122 11.8759C138.569 12.9947 137.414 14.627 136.939 16.4436C136.427 18.3135 136.636 20.3645 137.565 22.0835C138.452 23.768 139.971 25.1185 141.749 25.8988C143.724 26.7749 146.052 26.9482 148.108 26.2382C150.112 25.5606 151.824 24.1367 152.843 22.3423C153.692 20.856 154.049 19.1039 153.791 17.4223C153.546 15.4466 152.549 13.5575 151.002 12.2374C149.274 10.7269 146.862 10.0081 144.552 10.2345ZM166.822 8.9487C168.994 7.78762 171.546 7.31444 174.011 7.59231C175.997 7.81684 177.922 8.53081 179.546 9.6585C181.221 10.8146 182.549 12.4357 183.298 14.2895C182.252 14.2866 181.208 14.2924 180.162 14.2876C180.009 14.3209 179.956 14.1537 179.882 14.0681C178.712 12.2606 176.777 10.9525 174.642 10.4381C172.506 9.92745 170.188 10.2487 168.254 11.2465C166.694 12.0502 165.386 13.3189 164.617 14.8606C163.501 17.0618 163.537 19.7413 164.613 21.9506C165.427 23.6424 166.863 25.0459 168.608 25.8515C170.719 26.8414 173.227 26.9179 175.447 26.2352C177.351 25.6612 178.887 24.315 180.039 22.7812C181.11 22.7753 182.181 22.7773 183.253 22.7803C182.5 24.335 181.427 25.758 180.052 26.8545C178.479 28.1293 176.53 28.952 174.502 29.241C172.283 29.5431 169.979 29.2722 167.907 28.4465C166.053 27.7024 164.382 26.5091 163.167 24.9615C160.4 21.5448 160.13 16.4566 162.563 12.8034C163.603 11.1882 165.097 9.85993 166.822 8.9487Z" fill="white"/>
</svg>
