<svg width="108" height="45" viewBox="0 0 108 45" fill="none" xmlns="http://www.w3.org/2000/svg">
<path d="M7.37 34.2139V44.2139H3.7V34.2139H0V31.0139H11.07V34.2139H7.37ZM19.63 40.2539H13.78C13.7752 40.4718 13.816 40.6882 13.9 40.8894C13.9839 41.0905 14.109 41.2718 14.2673 41.4216C14.4256 41.5714 14.6135 41.6863 14.8189 41.7591C15.0243 41.8318 15.2427 41.8607 15.46 41.8439C16.3631 41.839 17.2492 41.5977 18.03 41.1439L19.36 43.3439C18.1569 44.0846 16.7728 44.4791 15.36 44.4839C12.36 44.4839 10.73 42.3639 10.73 39.3239C10.73 35.9039 12.66 34.1439 15.26 34.1439C17.86 34.1439 19.68 35.9439 19.68 39.6239C19.64 39.8639 19.64 40.0739 19.63 40.2439V40.2539ZM15.13 36.6239C14.35 36.6239 13.93 37.1539 13.81 38.1439H16.64C16.47 37.1439 16.14 36.6239 15.14 36.6239H15.13ZM25.95 44.4539C23.05 44.4539 21.31 42.6039 21.31 39.2539C21.31 36.2539 22.85 34.1139 26.03 34.1139C26.812 34.088 27.5853 34.2848 28.2598 34.6814C28.9344 35.0779 29.4824 35.658 29.84 36.3539L27.5 38.1539C27.03 37.2939 26.7 36.8739 25.97 36.8739C25.24 36.8739 24.67 37.7439 24.67 39.3139C24.67 40.8839 25.14 41.6939 26.07 41.6939C26.71 41.6939 27.17 41.3339 27.79 40.3939L29.94 42.0739C28.78 43.7739 27.71 44.4439 25.94 44.4439L25.95 44.4539ZM37.55 44.2539V38.6239C37.55 37.3239 37.12 36.9939 36.42 36.9939C35.72 36.9939 35.26 37.3339 35.26 38.5939V44.2639H31.86V31.8639L35.26 30.5039V35.0039C35.9639 34.4268 36.8499 34.1184 37.76 34.1339C39.93 34.1339 40.96 35.5939 40.96 38.1939V44.2639L37.55 44.2539Z" fill="white"/>
<path d="M49.1099 44.4539C45.1799 44.4539 43.1099 41.5539 43.1099 37.6339C43.1099 33.3839 45.6099 30.8139 49.1099 30.8139C52.3599 30.8139 53.6399 32.2139 54.5499 34.7139L51.2299 36.0139C50.7499 34.7839 50.2999 34.0139 49.0899 34.0139C47.5599 34.0139 46.8899 35.5439 46.8899 37.6439C46.8899 39.7439 47.5299 41.2639 49.1199 41.2639C50.2699 41.2639 50.7599 40.6439 51.4799 39.3939L54.5799 41.0439C54.1208 42.1023 53.3509 42.9961 52.3722 43.6069C51.3935 44.2177 50.2523 44.5166 49.0999 44.4639L49.1099 44.4539ZM62.9699 38.0539C62.7822 37.8095 62.5438 37.6087 62.271 37.4654C61.9982 37.3221 61.6976 37.2397 61.3899 37.2239C60.5599 37.2239 60.0499 37.6239 60.0499 38.8239V44.2239H56.6499V34.3239H60.0499V35.0439C60.5194 34.5483 61.1439 34.2277 61.8202 34.135C62.4966 34.0422 63.1843 34.183 63.7699 34.5339L62.9699 38.0539ZM71.0699 44.2339V43.5739C70.3748 44.1528 69.4943 44.4616 68.5899 44.4439C66.4199 44.4439 65.3899 42.9839 65.3899 40.3739V34.3439H68.7899V39.9439C68.7899 41.2239 69.2299 41.5639 69.9299 41.5639C70.6299 41.5639 71.0599 41.2239 71.0599 39.9839V34.3439H74.4799V44.2639L71.0699 44.2339ZM82.6299 44.2339V38.6039C82.6299 37.3039 82.1899 36.9739 81.4999 36.9739C80.8099 36.9739 80.3399 37.3139 80.3399 38.5739V44.2439H76.9399V34.3439H80.3399V35.0039C81.0437 34.4268 81.9298 34.1184 82.8399 34.1339C85.0099 34.1339 86.0399 35.5939 86.0399 38.1939V44.2639L82.6299 44.2339ZM92.6799 44.4339C89.7799 44.4339 88.0299 42.5839 88.0299 39.2339C88.0299 36.2339 89.5799 34.0939 92.7499 34.0939C93.5329 34.0697 94.3069 34.2671 94.9827 34.6634C95.6585 35.0596 96.2087 35.6387 96.5699 36.3339L94.2299 38.1039C93.7499 37.2439 93.4299 36.8239 92.6999 36.8239C91.9699 36.8239 91.3999 37.6939 91.3999 39.2639C91.3999 40.8339 91.8699 41.6439 92.7999 41.6439C93.4399 41.6439 93.8999 41.2839 94.5199 40.3439L96.6699 42.0239C95.5199 43.7639 94.4399 44.4239 92.6899 44.4239L92.6799 44.4339ZM104.28 44.2339V38.6039C104.28 37.3039 103.85 36.9739 103.15 36.9739C102.45 36.9739 102 37.3139 102 38.5739V44.2439H98.5999V31.8439L102 30.4839V34.9839C102.699 34.4051 103.582 34.0964 104.49 34.1139C106.67 34.1139 107.69 35.5739 107.69 38.1739V44.2439L104.28 44.2339Z" fill="white"/>
<path d="M28.3647 0V7.936H36.2897V23.796H44.2257V7.936H52.1507V0H28.3647ZM60.0867 15.86V7.935H52.1497V23.795H75.9467V15.859L60.0867 15.86ZM60.0867 0H75.9467V7.936H60.0867V0Z" fill="white"/>
</svg>
