<svg width="205" height="36" viewBox="0 0 205 36" fill="none" xmlns="http://www.w3.org/2000/svg">
<path d="M195.425 12.6661L197.4 18.7268H193.178L195.561 12.6661H195.425ZM186.402 25.3664H191.203L192.326 22.2679H198.387L199.511 25.3664H204.312L197.672 7.72897H193.007L186.402 25.3664ZM180.75 25.3664H185.551V7.72897H180.75V25.3664ZM165.223 19.3057C165.223 23.5277 168.594 25.3664 172.544 25.3664C176.221 25.3664 179.864 23.9704 179.864 19.7142C179.864 16.6158 177.311 15.4922 174.927 14.7771C172.237 14.0621 169.854 14.0621 169.854 12.6661C169.854 11.5425 171.25 11.2701 171.965 11.2701C173.361 11.2701 174.791 11.6787 174.791 13.2449H179.013C179.013 9.43143 175.642 7.59277 172.237 7.59277C169.003 7.59277 165.189 8.98878 165.189 12.9385C165.189 16.0369 168.015 17.1606 170.263 17.7394C172.816 18.4544 175.2 18.7268 175.2 20.2931C175.2 21.6891 173.804 21.9955 172.374 21.9955C170.535 21.9955 169.275 21.2805 169.275 19.1695H165.053L165.223 19.3057ZM157.188 12.6661L159.163 18.7268H154.94L157.324 12.6661H157.188ZM148.335 25.3664H153L154.123 22.2679H160.32L161.444 25.3664H166.245L159.605 7.72897H154.804L148.335 25.3664ZM132.809 25.3664H134.647V10.4188L144.93 25.3664H146.905V7.72897H145.202V22.5403L134.783 7.89921H132.809V25.3664ZM129.131 25.3664H130.834V7.72897H129.131V25.3664ZM111.664 25.3664H116.295V18.3182H122.355V25.3664H126.884V7.72897H122.355V14.0621H116.295V7.89921H111.63V25.3664H111.664ZM110.234 14.0961C110.234 10.1465 106.42 7.76302 102.777 7.76302C97.7039 7.76302 94.3331 11.7127 94.3331 16.6498C94.3331 21.4508 97.7039 25.4004 102.777 25.4004C106.999 25.4004 110.234 22.8468 110.54 18.3523H106.318C106.046 20.4633 104.922 21.5869 102.777 21.5869C99.9512 21.5869 98.8276 19.0333 98.8276 16.6498C98.8276 14.0961 99.9512 11.5765 102.777 11.5765C104.616 11.5765 106.012 12.4277 106.148 14.1302H110.37H110.234V14.0961ZM79.6579 25.3664H94.0266V21.4167H84.1524V18.0458H92.903V14.5047H84.4588V11.2701H93.7542V7.89921H79.6579V25.3664ZM78.2279 7.72897H63.4165V11.6787H68.626V25.3664H73.2907V11.6787H78.5002V7.72897H78.2279Z" fill="white"/>
<path d="M35.6322 14.3687C36.0408 14.6411 36.4835 14.3687 36.3473 13.7899L34.1 9.84018H33.2488L19.1525 34.7982C18.5736 35.377 17.7565 35.377 17.45 34.7982L12.6491 26.7626L12.3767 25.639V18.5908C12.3767 17.8758 12.1043 17.4672 11.6617 17.1948L0.39144 7.32054C-0.323591 6.91195 -0.0171493 5.92454 0.970274 5.92454H21.1273L26.0644 8.75061C26.3368 9.023 26.3368 9.32945 26.0644 9.46564L24.0896 13.1429C24.0896 13.4153 23.8172 13.5515 23.681 13.4153L19.7313 11.3043L18.8801 11.0319H13.6365C13.2279 11.0319 13.0577 11.6107 13.3641 11.8831L16.9052 14.7092C17.3138 15.1178 17.4841 15.6966 17.4841 16.1052V25.4006C17.4841 25.9794 18.1991 26.1156 18.4715 25.673L33.1467 0.306442C33.419 -0.102147 34.5427 -0.102147 34.5427 0.306442L49.6264 26.388C50.3414 27.2393 49.354 28.0905 48.5028 27.784L31.0016 17.5012C30.7292 17.5012 30.593 17.0926 30.7292 16.9224L32.8402 13.3813C32.8402 13.1089 33.2488 13.1089 33.5552 13.1089L35.6663 14.5049V14.3687H35.6322Z" fill="white"/>
</svg>
