<svg width="122" height="49" viewBox="0 0 122 49" fill="none" xmlns="http://www.w3.org/2000/svg">
<g clip-path="url(#clip0_4841_18133)">
<mask id="mask0_4841_18133" style="mask-type:alpha" maskUnits="userSpaceOnUse" x="0" y="0" width="40" height="49">
<path d="M0.357422 25.667V24.894C0.555034 22.2387 2.77211 20.1457 5.47814 20.1457C8.31396 20.1457 10.6129 22.4447 10.6129 25.2805C10.6129 27.19 9.56865 28.8523 8.02238 29.7371V43.1434H30.8981V17.2265H26.248V38.9249H12.6958V17.2265H3.02584V3.36718H29.6895C30.5403 1.70724 32.2648 0.568848 34.2583 0.568848C37.0941 0.568848 39.3931 2.86783 39.3931 5.70365C39.3931 8.53971 37.0941 10.8387 34.2583 10.8387C32.3968 10.8387 30.7718 9.84503 29.8712 8.36252H7.6582V12.8781H17.044V34.5767H21.8996V12.8781H35.8944V48.0237H3.02584V29.793C1.53442 28.9808 0.490183 27.451 0.357422 25.667ZM5.47814 27.2253C6.55205 27.2253 7.42274 26.3546 7.42274 25.2805C7.42274 24.2066 6.55205 23.3359 5.47814 23.3359C4.40399 23.3359 3.5333 24.2066 3.5333 25.2805C3.5333 26.3546 4.40399 27.2253 5.47814 27.2253ZM34.2583 3.75906C33.1842 3.75906 32.3135 4.62974 32.3135 5.70365C32.3135 6.7778 33.1842 7.64849 34.2583 7.64849C35.3322 7.64849 36.2029 6.7778 36.2029 5.70365C36.2029 4.62974 35.3322 3.75906 34.2583 3.75906Z" fill="white"/>
</mask>
<g mask="url(#mask0_4841_18133)">
<path fill-rule="evenodd" clip-rule="evenodd" d="M0.357422 48.4998H121.617V0.568848H0.357422V48.4998Z" fill="white"/>
</g>
<path fill-rule="evenodd" clip-rule="evenodd" d="M57.0105 15.8762H52.9382V27.3191H49.4571V15.8762H45.3843V12.9033H57.0105V15.8762Z" fill="white"/>
<path fill-rule="evenodd" clip-rule="evenodd" d="M59.1495 21.0885H63.4449C63.4449 20.5323 63.2718 20.0705 62.9262 19.7039C62.5802 19.3373 62.0876 19.1544 61.4502 19.1544C60.8255 19.1544 60.2958 19.3443 59.8614 19.7244C59.4273 20.1046 59.1896 20.5593 59.1495 21.0885ZM66.52 22.3711C66.52 22.7379 66.5131 23.0025 66.4995 23.1654H59.1495C59.2028 23.7084 59.4681 24.1634 59.9433 24.5295C60.4178 24.8963 60.9616 25.0792 61.5722 25.0792C62.5494 25.0792 63.2954 24.7267 63.8115 24.0206L66.1329 25.4864C65.1421 26.9256 63.6078 27.6444 61.5311 27.6444C59.9433 27.6444 58.6158 27.1664 57.5502 26.2097C56.4849 25.2523 55.9521 23.9461 55.9521 22.2897C55.9521 20.6608 56.4716 19.3476 57.5101 18.3499C58.5482 17.3524 59.8545 16.8535 61.4296 16.8535C62.9501 16.8535 64.1783 17.3457 65.1147 18.3298C66.052 19.3142 66.52 20.6608 66.52 22.3711Z" fill="white"/>
<path fill-rule="evenodd" clip-rule="evenodd" d="M77.5155 18.2176L75.5795 20.4576C75.4035 20.2133 75.1501 20.0165 74.8162 19.867C74.4843 19.7178 74.1473 19.643 73.8092 19.643C73.1166 19.643 72.5533 19.8976 72.1189 20.4062C71.6845 20.9154 71.4675 21.5301 71.4675 22.2493C71.4675 22.9689 71.6845 23.5797 72.1189 24.0817C72.5533 24.5839 73.1293 24.8349 73.85 24.8349C74.6369 24.8349 75.2411 24.5839 75.6614 24.0817L77.5155 26.3418C76.6183 27.2105 75.3703 27.6444 73.7681 27.6444C72.1254 27.6444 70.7687 27.1561 69.6955 26.1789C68.6235 25.2015 68.0869 23.8918 68.0869 22.2493C68.0869 20.6341 68.6266 19.3306 69.7065 18.3401C70.7859 17.3493 72.1332 16.8535 73.7478 16.8535C74.4669 16.8535 75.1768 16.9791 75.8756 17.2301C76.5741 17.4816 77.1205 17.8104 77.5155 18.2176Z" fill="white"/>
<path fill-rule="evenodd" clip-rule="evenodd" d="M88.8765 27.3192H85.5165V21.8217C85.5165 20.396 85.0207 19.6836 84.0292 19.6836C83.4738 19.6836 83.0315 19.8876 82.7058 20.2947C82.38 20.7019 82.2179 21.2177 82.2179 21.842V27.3192H78.8784V11.9263H82.2179V18.4619H82.2587C82.5028 18.0275 82.882 17.6579 83.3983 17.3524C83.9144 17.0467 84.5045 16.8942 85.1702 16.8942C86.4464 16.8942 87.3828 17.2982 87.9793 18.1056C88.5773 18.9137 88.8765 19.894 88.8765 21.0479V27.3192Z" fill="white"/>
<path fill-rule="evenodd" clip-rule="evenodd" d="M58.9856 42.6769C58.9856 44.4144 58.419 45.8195 57.2861 46.8915C56.1522 47.964 54.6492 48.4997 52.7755 48.4997C50.9028 48.4997 49.4093 47.9676 48.2967 46.9016C47.1831 45.8363 46.627 44.4275 46.627 42.6769V33.6978H50.0884V42.392C50.0884 43.2466 50.3117 43.9564 50.7604 44.5197C51.2082 45.0831 51.8864 45.3649 52.796 45.3649C53.719 45.3649 54.4013 45.0831 54.8426 44.5197C55.2832 43.9564 55.5046 43.2466 55.5046 42.392V33.6978H58.9856V42.6769Z" fill="white"/>
<path fill-rule="evenodd" clip-rule="evenodd" d="M68.433 42.5552L72.5059 48.1139H68.3717L65.053 43.247H64.9916V48.1139H61.6323V32.7207H64.9916V42.0869H65.053L68.2898 37.974H72.3423L68.433 42.5552Z" fill="white"/>
<path fill-rule="evenodd" clip-rule="evenodd" d="M80.4456 37.7699L80.3043 40.702C80.0461 40.6339 79.761 40.6002 79.4481 40.6002C78.6469 40.6002 78.0504 40.8481 77.6571 41.3432C77.2635 41.8387 77.0668 42.3581 77.0668 42.9011V48.1135H73.7275V37.9736H76.944V39.4394H76.9851C77.243 38.9102 77.6163 38.4858 78.1041 38.1663C78.5934 37.8478 79.1363 37.688 79.7328 37.688C80.0585 37.688 80.2961 37.7155 80.4456 37.7699Z" fill="white"/>
<path fill-rule="evenodd" clip-rule="evenodd" d="M87.4503 44.0413V43.6952H87.0221C84.9464 43.6952 83.9076 44.1561 83.9076 45.0794C83.9076 45.4325 84.0495 45.6938 84.3358 45.8631C84.6207 46.0329 84.9591 46.1179 85.3524 46.1179C86.0182 46.1179 86.5343 45.9314 86.9011 45.5577C87.2679 45.1847 87.4503 44.6796 87.4503 44.0413ZM83.0121 41.1701L81.3221 39.358C82.5292 38.2175 84.0368 37.6479 85.842 37.6479C87.5117 37.6479 88.7062 38.0721 89.4255 38.9205C90.1448 39.7685 90.5049 41.1293 90.5049 43.0027V48.1136H87.4503V47.0337H87.3889C87.1449 47.4414 86.7578 47.764 86.2291 48.0009C85.6987 48.2385 85.1291 48.3574 84.5185 48.3574C83.9203 48.3574 83.3617 48.266 82.8392 48.0828C82.315 47.8994 81.8508 47.5572 81.4431 47.0543C81.0372 46.5523 80.8325 45.9283 80.8325 45.1816C80.8325 42.9012 83.0045 41.7609 87.3481 41.7609V41.5983C87.3481 41.1228 87.1781 40.7601 86.8397 40.5084C86.4999 40.2571 86.059 40.1313 85.5162 40.1313C84.5925 40.1313 83.7581 40.4776 83.0121 41.1701Z" fill="white"/>
<path fill-rule="evenodd" clip-rule="evenodd" d="M93.0294 48.1136H96.3672V37.9737H93.0294V48.1136ZM96.6129 34.7357C96.6129 35.252 96.4255 35.6864 96.0527 36.0389C95.6795 36.392 95.2281 36.5683 94.6992 36.5683C94.1688 36.5683 93.7172 36.3889 93.3442 36.0286C92.9714 35.6697 92.7837 35.2386 92.7837 34.7357C92.7837 34.2471 92.9714 33.8199 93.3442 33.4531C93.7172 33.0863 94.1688 32.9038 94.6992 32.9038C95.2281 32.9038 95.6795 33.0832 96.0527 33.4428C96.4255 33.8032 96.6129 34.2337 96.6129 34.7357Z" fill="white"/>
<path fill-rule="evenodd" clip-rule="evenodd" d="M109.033 48.1135H105.673V42.5752C105.673 41.1495 105.171 40.4374 104.167 40.4374C103.595 40.4374 103.155 40.6475 102.843 41.0685C102.53 41.4893 102.374 42.0049 102.374 42.6153V48.1135H99.0142V37.9736H102.251V39.3783H102.292C102.538 38.9028 102.934 38.5026 103.484 38.1766C104.033 37.8509 104.648 37.688 105.327 37.688C106.589 37.688 107.522 38.0925 108.126 38.8999C108.731 39.7078 109.033 40.6883 109.033 41.842V48.1135Z" fill="white"/>
<path fill-rule="evenodd" clip-rule="evenodd" d="M114.245 41.8829H118.542C118.542 41.3268 118.368 40.8647 118.022 40.4981C117.676 40.1313 117.183 39.9488 116.546 39.9488C115.921 39.9488 115.392 40.1385 114.958 40.5184C114.524 40.8986 114.286 41.3533 114.245 41.8829ZM121.617 43.1656C121.617 43.5321 121.609 43.7967 121.596 43.9596H114.245C114.299 44.5026 114.565 44.9573 115.04 45.3239C115.514 45.6907 116.058 45.8731 116.669 45.8731C117.646 45.8731 118.392 45.5207 118.908 44.8148L121.23 46.2808C120.238 47.7201 118.704 48.4391 116.628 48.4391C115.04 48.4391 113.712 47.9608 112.646 47.0039C111.581 46.0463 111.049 44.7402 111.049 43.0837C111.049 41.455 111.568 40.1416 112.607 39.1438C113.644 38.1468 114.95 37.6479 116.525 37.6479C118.046 37.6479 119.275 38.1397 120.211 39.124C121.148 40.1084 121.617 41.455 121.617 43.1656Z" fill="white"/>
</g>
<defs>
<clipPath id="clip0_4841_18133">
<rect width="121.313" height="48" fill="white" transform="translate(0.343262 0.5)"/>
</clipPath>
</defs>
</svg>
