<svg width="122" height="32" viewBox="0 0 122 32" fill="none" xmlns="http://www.w3.org/2000/svg">
<path d="M11.7687 2.98166H14.4385C16.0644 2.74154 17.7248 2.95265 19.2394 3.59208C21.1396 4.73815 22.5178 6.58322 23.0801 8.73368C23.4782 9.8606 23.4782 9.8606 24.4384 9.46148H25.1878V0.539985H0.0592503V2.11299H1.08969C1.53747 2.10988 1.98026 2.20738 2.38552 2.39833C2.79078 2.58928 3.14822 2.86883 3.43158 3.21643C4.39176 4.76596 4.55569 6.5033 4.55569 15.5422C4.55569 25.1445 4.34492 27.4923 3.43158 28.6897C3.2061 28.9975 2.91418 29.2503 2.5776 29.4291C2.24102 29.608 1.86849 29.7083 1.48781 29.7227C0.0592503 29.9809 0.0592503 29.9574 0.0592503 30.5913C-0.0197501 30.8033 -0.0197501 31.0367 0.0592503 31.2487H15.9139C16.0188 31.0414 16.0735 30.8121 16.0735 30.5796C16.0735 30.3471 16.0188 30.1178 15.9139 29.9105C15.5299 29.8034 15.1385 29.7249 14.7429 29.6757C14.315 29.6247 13.892 29.5383 13.4783 29.4175C12.8859 28.9838 12.4165 28.4027 12.1167 27.7316C11.8169 27.0604 11.6969 26.3225 11.7687 25.5906C11.5345 24.0411 11.4175 21.2003 11.4175 18.8525V16.9978H12.3542C13.5213 16.962 14.6877 17.0884 15.8202 17.3734C16.3628 17.7095 16.8246 18.1616 17.1727 18.6973C17.5209 19.233 17.7468 19.8392 17.8343 20.4725L18.045 21.2003H19.4736V10.7997H18.1621L17.9513 11.8092C17.8627 12.4569 17.6237 13.0747 17.2535 13.6129C16.8834 14.1512 16.3925 14.5948 15.8202 14.9083C15.266 15.0736 14.6821 15.1137 14.1106 15.0257H11.4175V12.4901C11.4175 9.8606 11.558 4.31988 11.6516 3.45121L11.7687 2.98166ZM121.37 21.5994C120.263 19.8133 118.536 18.5004 116.522 17.9134C114.978 17.4296 113.55 16.6302 112.33 15.5657C112.055 15.2993 111.85 14.9697 111.731 14.6055C111.613 14.2413 111.585 13.8536 111.651 13.4762C111.652 12.7359 111.947 12.0266 112.47 11.504C112.825 11.1318 113.274 10.8631 113.768 10.7267C114.263 10.5902 114.786 10.5911 115.281 10.7293C116.304 11.0218 117.23 11.5865 117.96 12.3635C118.69 13.1405 119.196 14.101 119.426 15.1431C119.8 16.1996 119.847 16.1996 120.526 15.9178L120.948 15.7535V9.90756L120.644 9.76669C118.338 8.9549 115.892 8.61948 113.454 8.78063C111.354 8.83397 109.35 9.67121 107.833 11.1284C107.146 11.7738 106.607 12.562 106.255 13.438C105.903 14.314 105.746 15.2565 105.796 16.1996C105.809 17.6414 106.38 19.0218 107.388 20.0499C108.503 21.1486 109.87 21.955 111.37 22.3976C115 23.8298 116.053 24.7454 116.053 26.4123C116.069 27.1153 115.846 27.8026 115.42 28.3615C114.995 28.9204 114.392 29.3176 113.712 29.4879C112.894 29.668 112.047 29.668 111.229 29.4879C110.158 29.0713 109.203 28.4045 108.441 27.5428C107.679 26.6812 107.134 25.6497 106.85 24.5341L106.545 23.7828H106.124C105.922 23.7978 105.725 23.8454 105.538 23.9237H105.304V30.5913H105.702C107.284 31.119 108.917 31.4809 110.573 31.6713H112.915C113.931 31.746 114.952 31.6508 115.936 31.3896C117.186 31.1584 118.354 30.6033 119.323 29.7796C120.293 28.9559 121.031 27.8921 121.463 26.6941C121.743 26.0249 121.886 25.3065 121.885 24.5811C121.977 23.5591 121.799 22.5307 121.37 21.5994ZM99.3089 9.46148C97.9055 8.87081 96.3934 8.58428 94.8718 8.62069C93.3503 8.65711 91.8535 9.01565 90.4799 9.67278C89.1887 10.3059 88.0443 11.2035 87.1206 12.3075C86.1968 13.4115 85.5143 14.6974 85.117 16.0822C84.6104 17.5928 84.3958 19.1865 84.4846 20.7777C84.4679 21.6435 84.5385 22.5087 84.6954 23.3602C85.0736 25.454 86.0819 27.3816 87.5848 28.884C89.0877 30.3865 91.0133 31.3919 93.1028 31.7652C94.4636 31.9371 95.8404 31.9371 97.2011 31.7652C98.6132 31.5157 99.9645 30.9977 101.182 30.2392C102.19 29.673 103.042 28.8666 103.665 27.8914C103.625 27.7384 103.554 27.595 103.458 27.47C103.361 27.3449 103.24 27.2407 103.103 27.1636C102.835 27.2606 102.583 27.395 102.353 27.5627C101.188 28.3323 99.813 28.7181 98.4189 28.6662C97.4936 28.7289 96.566 28.5845 95.7032 28.2434C94.8405 27.9023 94.0642 27.3731 93.4307 26.6941C92.9406 26.2377 92.5361 25.697 92.2363 25.0976C91.5086 23.638 91.1165 22.0335 91.0888 20.4021V19.4864H104.063V19.0169C104.092 18.5478 104.092 18.0773 104.063 17.6082C104.058 15.9505 103.616 14.3235 102.781 12.8926C101.946 11.4617 100.748 10.2779 99.3089 9.46148ZM92.775 17.5847H91.1356V16.1996C91.6743 12.6544 93.0091 10.5415 94.6485 10.5415C96.2878 10.5415 96.9904 12.631 97.2948 16.4578V17.5378H95.8897L92.775 17.5847ZM59.0985 8.68672C58.2893 8.65526 57.4848 8.82461 56.7566 9.17975C55.1738 9.95035 53.8953 11.232 53.1266 12.8188L52.8222 13.3822V8.68672H52.7051C52.4241 8.68672 43.7591 10.4241 43.478 10.5415C43.197 10.6588 43.2907 10.6823 43.2907 11.1049C43.2907 11.5275 43.2907 11.5979 43.478 11.6214L44.3914 11.8092C44.6472 11.8155 44.8982 11.8801 45.1254 11.9981C45.3526 12.116 45.5501 12.2843 45.7028 12.4901C46.2883 13.2649 46.4054 14.6266 46.4054 20.4255C46.5211 23.0361 46.4114 25.6519 46.0775 28.2436C45.9989 28.6344 45.8013 28.9911 45.5118 29.2644C45.2224 29.5378 44.8554 29.7143 44.4616 29.7696L43.6654 29.934H43.3609V30.5913C43.276 30.8103 43.276 31.0532 43.3609 31.2722H56.4521V30.5913C56.4976 30.3667 56.4976 30.1352 56.4521 29.9105C55.6639 29.8797 54.8801 29.7775 54.1102 29.6053C53.691 29.3854 53.348 29.0435 53.1265 28.6244C52.9049 28.2053 52.8151 27.7287 52.869 27.2575C52.6817 25.8958 52.588 21.9046 52.6348 18.8525C52.6817 15.8004 52.6348 15.6126 52.8925 15.4013C53.6761 14.799 54.6458 14.4915 55.6325 14.5326C56.5625 14.553 57.4756 14.7858 58.3022 15.2135C58.5888 15.373 58.8962 15.4916 59.2156 15.5657C59.2156 15.5657 61.5575 9.88408 61.5575 9.62583C61.2578 9.2767 60.876 9.008 60.4466 8.84402C60.0173 8.68005 59.5539 8.62599 59.0985 8.68672ZM43.3141 18.5473C43.2324 16.8696 42.7519 15.2358 41.9127 13.7819C41.0736 12.3281 39.9 11.0963 38.4898 10.1893C36.8139 9.28293 34.9494 8.78318 33.0459 8.73017C31.1425 8.67717 29.2532 9.07238 27.5297 9.88408C25.0929 11.1722 23.2531 13.362 22.4009 15.9883C21.5208 18.9286 21.5208 22.0633 22.4009 25.0037C22.8624 26.6106 23.7248 28.0732 24.9068 29.2531C26.3789 30.6931 28.2771 31.6158 30.3166 31.8826C31.6257 31.9924 32.9418 31.9924 34.2509 31.8826C34.7327 31.8091 35.2097 31.7072 35.6795 31.5774C37.5857 31.0428 39.3007 29.9751 40.6237 28.4991C41.9467 27.0231 42.823 25.1999 43.1502 23.2428C43.384 21.6891 43.439 20.1136 43.3141 18.5473ZM33.5718 30.2861C31.2299 30.9905 29.4735 28.7131 28.888 23.9237C28.673 21.4162 28.673 18.8949 28.888 16.3874C29.3564 12.537 30.5508 10.5884 32.4009 10.5884C32.7741 10.5652 33.1475 10.632 33.4897 10.7831C33.832 10.9342 34.1332 11.1653 34.368 11.4571C35.9371 13.0301 36.7099 16.1526 36.7099 20.8481C36.9048 23.5055 36.4882 26.1723 35.4922 28.6427C35.0524 29.3632 34.3719 29.9039 33.5718 30.1687V30.2861ZM75.726 9.15627C75.0651 9.07103 74.3961 9.07103 73.7353 9.15627C72.4669 9.15519 71.213 9.42742 70.0586 9.95451L69.3326 10.2597V5.16508C69.4594 3.44573 69.4594 1.71934 69.3326 0C69.0515 0 60.1055 1.71387 59.965 1.7843C59.8959 1.95763 59.8959 2.15095 59.965 2.32428C59.965 2.81731 59.965 2.79384 61.0188 3.02861C61.3147 3.09514 61.5989 3.20594 61.8619 3.3573C62.319 3.78825 62.6233 4.35707 62.7284 4.97726C62.9951 6.76396 63.0814 8.57305 62.986 10.3771V30.9905L63.6183 31.1313C64.5551 31.3426 67.2014 31.7887 68.0679 31.8826C69.7982 32.0206 71.5367 32.0206 73.267 31.8826C75.1875 31.686 77.0181 30.9677 78.5615 29.8051C80.1049 28.6426 81.3026 27.0799 82.0257 25.2854C82.4567 24.1337 82.7552 22.9364 82.9156 21.7168C83.055 20.0648 83 18.4021 82.7516 16.763C82.5004 14.9257 81.6915 13.2103 80.4347 11.8496C79.1779 10.4888 77.534 9.54852 75.726 9.15627ZM69.5902 29.887C69.5902 29.5818 69.356 19.2986 69.4028 15.19V11.9736L70.082 11.8092C70.5402 11.7434 71.0055 11.7434 71.4637 11.8092C71.9705 11.7576 72.4802 11.873 72.9157 12.1379C73.7903 12.743 74.5165 13.5392 75.0398 14.4663C75.5631 15.3935 75.8698 16.4276 75.9367 17.4908C76.1073 19.2004 76.1073 20.9228 75.9367 22.6324C75.7966 25.1172 74.8415 27.4859 73.2201 29.3705C72.7599 29.8087 72.182 30.1025 71.5574 30.2157C71.0847 30.2981 70.6015 30.2981 70.1288 30.2157C69.6839 30.2157 69.6839 30.0748 69.6839 29.887H69.5902Z" fill="white"/>
</svg>
