<svg width="30" height="20" viewBox="0 0 30 20" fill="none" xmlns="http://www.w3.org/2000/svg">
<path d="M12.1081 9.31738C12.1081 9.31738 14.9462 9.10173 14.9462 5.70577C14.9462 2.31263 13.0213 0.639963 10.0791 0.639963L0 0.624023V19.3759H10.3135C10.3135 19.3759 15.4703 19.539 15.4703 13.7503C15.4703 13.7503 15.8491 9.31738 12.1081 9.31738ZM3.75037 3.4368H8.90712C8.90712 3.4368 10.6717 3.46586 10.6717 5.75359C10.6717 8.12476 8.90712 8.12476 8.90712 8.12476H3.75037V3.4368ZM9.37592 16.5631H3.75037V10.9375H9.37592C9.37592 10.9375 12.1887 10.9666 12.1887 13.7503C12.1887 16.534 9.78096 16.5631 9.37592 16.5631Z" fill="black"/>
<path d="M23.4369 5.31152C16.3928 5.31152 16.405 12.3435 16.405 12.3435C16.405 12.3435 15.9362 19.3754 23.4369 19.3754C23.4369 19.3754 30 19.3754 30 13.7499H26.2497C26.2497 13.7499 26.2497 16.5626 23.4369 16.5626C23.4369 16.5626 20.6241 16.5626 20.6241 12.8123C20.6241 12.8123 28.1249 12.8123 30 12.8123C30 10.9371 30 5.31152 23.4369 5.31152ZM20.6241 10.9371C20.6241 10.9371 20.5622 8.1243 23.4369 8.1243C26.3106 8.1243 26.2497 10.9371 26.2497 10.9371H20.6241Z" fill="black"/>
<path d="M27.1909 2.49902H19.6902V4.37421H27.1909V2.49902Z" fill="black"/>
</svg>
