<svg width="26" height="26" viewBox="0 0 26 26" fill="none" xmlns="http://www.w3.org/2000/svg">
<path fill-rule="evenodd" clip-rule="evenodd" d="M1.6255 13.9991C1.6255 14.2146 1.7111 14.4212 1.86348 14.5736C2.01585 14.726 2.22251 14.8116 2.438 14.8116L21.6016 14.8116L16.4878 19.9238C16.3352 20.0764 16.2495 20.2833 16.2495 20.4991C16.2495 20.7148 16.3352 20.9218 16.4878 21.0743C16.6403 21.2269 16.8472 21.3126 17.063 21.3126C17.2788 21.3126 17.4857 21.2269 17.6383 21.0743L24.1383 14.5743C24.2139 14.4988 24.2739 14.4092 24.3149 14.3105C24.3559 14.2118 24.377 14.1059 24.377 13.9991C24.377 13.8922 24.3559 13.7864 24.3149 13.6877C24.2739 13.589 24.2139 13.4993 24.1383 13.4238L17.6383 6.92382C17.5627 6.84828 17.473 6.78836 17.3743 6.74747C17.2756 6.70659 17.1698 6.68555 17.063 6.68555C16.8472 6.68555 16.6403 6.77126 16.4878 6.92382C16.3352 7.07639 16.2495 7.28331 16.2495 7.49907C16.2495 7.71483 16.3352 7.92176 16.4878 8.07432L21.6016 13.1866L2.438 13.1866C2.22251 13.1866 2.01585 13.2722 1.86348 13.4245C1.7111 13.5769 1.6255 13.7836 1.6255 13.9991Z" fill="url(#paint0_linear_5312_20563)" stroke="url(#paint1_linear_5312_20563)" stroke-width="0.4"/>
<defs>
<linearGradient id="paint0_linear_5312_20563" x1="23.666" y1="9.94851" x2="15.4196" y2="28.0344" gradientUnits="userSpaceOnUse">
<stop stop-color="#CDFF7C"/>
<stop offset="0.460938" stop-color="#8CFFAC"/>
<stop offset="0.994792" stop-color="#93FFEB"/>
</linearGradient>
<linearGradient id="paint1_linear_5312_20563" x1="23.666" y1="9.94851" x2="15.4196" y2="28.0344" gradientUnits="userSpaceOnUse">
<stop stop-color="#CDFF7C"/>
<stop offset="0.460938" stop-color="#8CFFAC"/>
<stop offset="0.994792" stop-color="#93FFEB"/>
</linearGradient>
</defs>
</svg>
