<?xml version="1.0" encoding="UTF-8"?>
<svg xmlns="http://www.w3.org/2000/svg" width="242" height="100" viewBox="0 0 242 100" fill="none">
  <path d="M27.3306 47H32.0589V76.1921H27.3306V47Z" fill="white"></path>
  <path d="M48.5051 66.941C48.5051 71.4637 44.8047 71.8749 43.5713 71.8749C40.6932 71.8749 40.282 69.2024 40.282 67.7633V56.4565H35.5537V67.5578C35.5537 70.2303 36.376 72.6972 38.0206 74.1363C39.4597 75.5753 41.3099 76.192 43.5713 76.192C45.2159 76.192 47.2717 75.7809 48.5051 74.5474V76.192H53.2334V56.4565H48.5051V66.941Z" fill="white"></path>
  <path d="M62.4844 49.2612H57.7561V56.4565H54.2612V60.9792H57.7561V76.192H62.4844V60.9792H65.9792V56.4565H62.4844V49.2612Z" fill="white"></path>
  <path d="M80.7811 70.2303C79.7532 71.0526 78.3141 71.6693 76.8751 71.6693C73.5858 71.6693 71.3245 69.2024 71.3245 65.9132C71.3245 62.6239 73.5858 60.3625 76.8751 60.3625C78.3141 60.3625 79.7532 60.7737 80.7811 61.8016L81.3978 62.4183L84.6871 59.3347L83.8647 58.7179C82.0145 57.0733 79.5476 56.0454 76.8751 56.0454C71.1189 56.0454 66.8018 60.3625 66.8018 66.1187C66.8018 71.8749 71.1189 76.1921 76.8751 76.1921C79.5476 76.1921 82.0145 75.1642 83.8647 73.5195L84.6871 72.9028L81.3978 69.6136L80.7811 70.2303Z" fill="white"></path>
  <path d="M101.339 58.1012C99.8997 56.6622 98.4606 56.0454 96.1993 56.0454C94.5546 56.0454 92.91 56.4566 91.6765 57.6901V47H86.9482V76.1921H91.6765V65.2965C91.6765 60.7737 94.7602 60.3626 95.9937 60.3626C98.8718 60.3626 98.6662 63.0351 98.6662 64.4741V75.9865H103.394V64.6797C103.394 62.0072 102.778 59.5403 101.339 58.1012Z" fill="white"></path>
  <path d="M76.6691 69.4081C78.4857 69.4081 79.9584 67.9354 79.9584 66.1188C79.9584 64.3022 78.4857 62.8296 76.6691 62.8296C74.8525 62.8296 73.3799 64.3022 73.3799 66.1188C73.3799 67.9354 74.8525 69.4081 76.6691 69.4081Z" fill="white"></path>
  <path d="M20.7521 68.9969C19.1075 70.6415 16.6406 71.6694 13.968 71.6694C8.82859 71.6694 5.12819 67.5579 5.12819 62.0073C5.12819 56.4566 8.82859 52.3451 14.1736 52.3451C16.6406 52.3451 19.1075 53.373 20.9577 55.2232L21.5744 55.8399L24.6581 52.7562L24.0414 52.1395C21.3689 49.467 17.874 48.0279 14.1736 48.0279C6.36165 47.8224 0.605469 53.9897 0.605469 62.0073C0.605469 70.0248 6.36165 76.1921 13.968 76.1921C17.6684 76.1921 21.3689 74.7531 23.8358 72.0806L24.4525 71.4639L21.3689 68.3802L20.7521 68.9969Z" fill="white"></path>
  <path d="M4.06445 35.0002H5.05445V31.3922H6.61645L8.86045 35.0002H10.0265L7.77145 31.3702C8.82745 31.2382 9.54245 30.4572 9.54245 29.4232C9.54245 28.2462 8.65145 27.4542 7.33145 27.4542H4.06445V35.0002ZM5.05445 30.5122V28.3342H7.33145C8.05745 28.3342 8.55245 28.7742 8.55245 29.4232C8.55245 30.0722 8.05745 30.5122 7.33145 30.5122H5.05445Z" fill="white"></path>
  <path d="M14.0023 35.0002H18.8753V34.1202H14.9923V31.3922H18.4793V30.5122H14.9923V28.3342H18.8753V27.4542H14.0023V35.0002Z" fill="white"></path>
  <path d="M24.9355 35.0002H25.9475L29.0495 27.4542H27.9935L25.4415 33.8672L22.8895 27.4542H21.8335L24.9355 35.0002Z" fill="white"></path>
  <path d="M32.7822 35.0002H33.7722V27.4542H32.7822V35.0002Z" fill="white"></path>
  <path d="M38.3372 35.0002H43.2102V34.1202H39.3272V31.3922H42.8142V30.5122H39.3272V28.3342H43.2102V27.4542H38.3372V35.0002Z" fill="white"></path>
  <path d="M48.7318 35.0002H49.8978L51.1958 29.1702L52.4938 35.0002H53.6598L55.7828 27.4542H54.7598L53.0988 33.8232L51.6688 27.4542H50.7118L49.2928 33.8232L47.6318 27.4542H46.6088L48.7318 35.0002Z" fill="white"></path>
  <path d="M59.62 35.0002H64.493V34.1202H60.61V31.3922H64.097V30.5122H60.61V28.3342H64.493V27.4542H59.62V35.0002Z" fill="white"></path>
  <path d="M68.3977 35.0002H71.0927C73.2487 35.0002 74.6897 33.4822 74.6897 31.2162C74.6897 28.9612 73.2487 27.4542 71.0927 27.4542H68.3977V35.0002ZM69.3877 34.1202V28.3342H71.0927C72.6547 28.3342 73.6997 29.4892 73.6997 31.2162C73.6997 32.9542 72.6547 34.1202 71.0927 34.1202H69.3877Z" fill="white"></path>
  <path d="M86.9652 35.1102C89.1762 35.1102 90.6502 33.5482 90.6502 31.2162C90.6502 28.8952 89.1762 27.3442 86.9652 27.3442C84.7542 27.3442 83.2802 28.8952 83.2802 31.2162C83.2802 33.5482 84.7542 35.1102 86.9652 35.1102ZM86.9652 34.2302C85.3482 34.2302 84.2702 33.0202 84.2702 31.2162C84.2702 29.4232 85.3482 28.2242 86.9652 28.2242C88.5822 28.2242 89.6602 29.4232 89.6602 31.2162C89.6602 33.0202 88.5822 34.2302 86.9652 34.2302Z" fill="white"></path>
  <path d="M94.6232 35.0002H95.6133V28.8402L99.8372 35.0002H100.937V27.4542H99.9473V33.6252L95.7122 27.4542H94.6232V35.0002Z" fill="white"></path>
  <path d="M133.909 25.7454C134.28 25.0181 135.32 25.0181 135.691 25.7454L137.806 29.8908C137.952 30.1755 138.224 30.3736 138.54 30.4238L143.136 31.1548C143.943 31.2831 144.264 32.2714 143.687 32.8491L140.398 36.1421C140.172 36.3683 140.068 36.6888 140.118 37.0046L140.843 41.6018C140.97 42.4083 140.129 43.0191 139.402 42.6489L135.253 40.5387C134.969 40.3937 134.631 40.3937 134.347 40.5387L130.198 42.6489C129.471 43.0191 128.63 42.4083 128.757 41.6018L129.482 37.0046C129.532 36.6888 129.428 36.3683 129.202 36.1421L125.913 32.8491C125.336 32.2714 125.657 31.2831 126.464 31.1548L131.06 30.4238C131.376 30.3736 131.648 30.1755 131.794 29.8908L133.909 25.7454Z" fill="white"></path>
  <path d="M157.509 25.7454C157.881 25.0181 158.92 25.0181 159.291 25.7454L161.406 29.8908C161.552 30.1755 161.824 30.3736 162.14 30.4238L166.736 31.1548C167.543 31.2831 167.864 32.2714 167.287 32.8491L163.998 36.1421C163.772 36.3683 163.668 36.6888 163.718 37.0046L164.443 41.6018C164.57 42.4083 163.729 43.0191 163.002 42.6489L158.854 40.5387C158.569 40.3937 158.232 40.3937 157.947 40.5387L153.799 42.6489C153.071 43.0191 152.23 42.4083 152.357 41.6018L153.082 37.0046C153.132 36.6888 153.028 36.3683 152.802 36.1421L149.513 32.8491C148.936 32.2714 149.258 31.2831 150.064 31.1548L154.66 30.4238C154.976 30.3736 155.249 30.1755 155.394 29.8908L157.509 25.7454Z" fill="white"></path>
  <path d="M181.109 25.7454C181.481 25.0181 182.52 25.0181 182.891 25.7454L185.006 29.8908C185.152 30.1755 185.424 30.3736 185.74 30.4238L190.336 31.1548C191.143 31.2831 191.464 32.2714 190.887 32.8491L187.598 36.1421C187.372 36.3683 187.268 36.6888 187.318 37.0046L188.043 41.6018C188.17 42.4083 187.33 43.0191 186.602 42.6489L182.454 40.5387C182.169 40.3937 181.832 40.3937 181.547 40.5387L177.399 42.6489C176.671 43.0191 175.83 42.4083 175.957 41.6018L176.683 37.0046C176.732 36.6888 176.628 36.3683 176.402 36.1421L173.113 32.8491C172.537 32.2714 172.858 31.2831 173.664 31.1548L178.26 30.4238C178.576 30.3736 178.849 30.1755 178.994 29.8908L181.109 25.7454Z" fill="white"></path>
  <path d="M204.71 25.7454C205.081 25.0181 206.12 25.0181 206.491 25.7454L208.607 29.8908C208.752 30.1755 209.025 30.3736 209.34 30.4238L213.937 31.1548C214.743 31.2831 215.064 32.2714 214.487 32.8491L211.198 36.1421C210.972 36.3683 210.868 36.6888 210.918 37.0046L211.643 41.6018C211.77 42.4083 210.93 43.0191 210.202 42.6489L206.054 40.5387C205.769 40.3937 205.432 40.3937 205.147 40.5387L200.999 42.6489C200.271 43.0191 199.43 42.4083 199.558 41.6018L200.283 37.0046C200.332 36.6888 200.228 36.3683 200.002 36.1421L196.714 32.8491C196.137 32.2714 196.458 31.2831 197.264 31.1548L201.86 30.4238C202.176 30.3736 202.449 30.1755 202.594 29.8908L204.71 25.7454Z" fill="white"></path>
  <path d="M228.31 25.7454C228.681 25.0181 229.72 25.0181 230.091 25.7454L232.207 29.8908C232.352 30.1755 232.625 30.3736 232.94 30.4238L237.537 31.1548C238.343 31.2831 238.664 32.2714 238.087 32.8491L234.798 36.1421C234.572 36.3683 234.468 36.6888 234.518 37.0046L235.243 41.6018C235.37 42.4083 234.53 43.0191 233.802 42.6489L229.654 40.5387C229.369 40.3937 229.032 40.3937 228.747 40.5387L224.599 42.6489C223.871 43.0191 223.03 42.4083 223.158 41.6018L223.883 37.0046C223.933 36.6888 223.828 36.3683 223.602 36.1421L220.314 32.8491C219.737 32.2714 220.058 31.2831 220.864 31.1548L225.46 30.4238C225.776 30.3736 226.049 30.1755 226.194 29.8908L228.31 25.7454Z" fill="white"></path>
  <path d="M126.656 76V65.44L127.344 66.192H124.128V64.8H128.24V76H126.656ZM134.914 76.128C134.125 76.128 133.357 76.0053 132.61 75.76C131.874 75.5147 131.271 75.184 130.802 74.768L131.538 73.504C131.911 73.856 132.397 74.144 132.994 74.368C133.591 74.592 134.231 74.704 134.914 74.704C135.746 74.704 136.391 74.528 136.85 74.176C137.319 73.8133 137.554 73.328 137.554 72.72C137.554 72.1333 137.33 71.664 136.882 71.312C136.445 70.9493 135.746 70.768 134.786 70.768H133.89V69.648L137.218 65.552L137.442 66.192H131.314V64.8H138.706V65.888L135.394 69.968L134.562 69.472H135.09C136.445 69.472 137.458 69.776 138.13 70.384C138.813 70.992 139.154 71.7653 139.154 72.704C139.154 73.3333 138.999 73.9093 138.69 74.432C138.381 74.9547 137.911 75.3707 137.282 75.68C136.663 75.9787 135.874 76.128 134.914 76.128Z" fill="white"></path>
  <path d="M150 75.9881H151.44V70.7401H153.712L156.976 75.9881H158.672L155.392 70.7081C156.928 70.5161 157.968 69.3801 157.968 67.8761C157.968 66.1641 156.672 65.0121 154.752 65.0121H150V75.9881ZM151.44 69.4601V66.2921H154.752C155.808 66.2921 156.528 66.9321 156.528 67.8761C156.528 68.8201 155.808 69.4601 154.752 69.4601H151.44Z" fill="white"></path>
  <path d="M164.455 75.9881H171.543V74.7081H165.895V70.7401H170.967V69.4601H165.895V66.2921H171.543V65.0121H164.455V75.9881Z" fill="white"></path>
  <path d="M180.358 75.9881H181.83L186.342 65.0121H184.806L181.094 74.3401L177.382 65.0121H175.846L180.358 75.9881Z" fill="white"></path>
  <path d="M191.771 75.9881H193.211V65.0121H191.771V75.9881Z" fill="white"></path>
  <path d="M199.851 75.9881H206.939V74.7081H201.291V70.7401H206.363V69.4601H201.291V66.2921H206.939V65.0121H199.851V75.9881Z" fill="white"></path>
  <path d="M214.971 75.9881H216.667L218.555 67.5081L220.443 75.9881H222.139L225.227 65.0121H223.739L221.323 74.2761L219.243 65.0121H217.851L215.787 74.2761L213.371 65.0121H211.883L214.971 75.9881Z" fill="white"></path>
  <path d="M234.564 76.1481C237.284 76.1481 239.108 74.8361 239.108 72.8681C239.108 71.1881 237.972 70.3401 234.708 69.5721C232.676 69.1081 231.972 68.6921 231.972 67.9241C231.972 66.8521 233.012 66.1321 234.564 66.1321C236.004 66.1321 237.172 67.0121 237.46 68.3241L238.772 68.0041C238.308 66.1161 236.612 64.8521 234.564 64.8521C232.148 64.8521 230.532 66.0841 230.532 67.9241C230.532 69.4601 231.54 70.2281 234.42 70.9001C236.836 71.4601 237.668 71.9721 237.668 72.8681C237.668 74.0681 236.42 74.8681 234.564 74.8681C232.516 74.8681 231.14 73.7961 231.14 72.2121H229.78C229.78 74.5641 231.7 76.1481 234.564 76.1481Z" fill="white"></path>
</svg>
