<svg width="24" height="25" viewBox="0 0 24 25" fill="none" xmlns="http://www.w3.org/2000/svg">
<path d="M5.25 7.25049H0V24.5005H5.25V7.25049Z" fill="#0C0C0C"/>
<path d="M18.0023 7.25049C15 7.25049 14.1675 8.23449 13.5 9.50049V7.25049H8.25V24.5005H13.5V14.7505C13.5 13.2505 13.5 11.7505 16.125 11.7505C18.75 11.7505 18.75 13.2505 18.75 14.7505V24.5005H24V14.7505C24 10.2505 23.25 7.25049 18.0023 7.25049Z" fill="#0C0C0C"/>
<path d="M2.625 5.75049C4.07475 5.75049 5.25 4.57524 5.25 3.12549C5.25 1.67574 4.07475 0.500488 2.625 0.500488C1.17525 0.500488 0 1.67574 0 3.12549C0 4.57524 1.17525 5.75049 2.625 5.75049Z" fill="#0C0C0C"/>
</svg>
