<svg width="24" height="24" viewBox="0 0 24 24" fill="none" xmlns="http://www.w3.org/2000/svg">
<path d="M19.2727 0H4.72727C3.47397 0.00144363 2.2724 0.499958 1.38618 1.38618C0.499958 2.2724 0.00144363 3.47397 0 4.72727V19.2727C0.0013956 20.526 0.499894 21.7276 1.38613 22.6139C2.27236 23.5001 3.47395 23.9986 4.72727 24H19.2727C20.526 23.9986 21.7276 23.5001 22.6139 22.6139C23.5001 21.7276 23.9986 20.526 24 19.2727V4.72727C23.9986 3.47397 23.5 2.2724 22.6138 1.38618C21.7276 0.499958 20.526 0.00144363 19.2727 0ZM12 19.2727C10.5616 19.2727 9.15548 18.8462 7.95949 18.0471C6.7635 17.2479 5.83133 16.1121 5.28088 14.7832C4.73042 13.4542 4.5864 11.9919 4.86702 10.5812C5.14764 9.17039 5.8403 7.87451 6.85741 6.85741C7.87451 5.8403 9.17039 5.14764 10.5812 4.86702C11.9919 4.5864 13.4542 4.73042 14.7832 5.28088C16.1121 5.83133 17.2479 6.7635 18.0471 7.95949C18.8462 9.15548 19.2727 10.5616 19.2727 12C19.2727 13.9288 18.5065 15.7787 17.1426 17.1426C15.7787 18.5065 13.9288 19.2727 12 19.2727ZM19.733 6.03864C19.3734 6.03864 19.0219 5.932 18.7229 5.73222C18.4239 5.53243 18.1909 5.24847 18.0533 4.91624C17.9156 4.58401 17.8796 4.21844 17.9498 3.86574C18.0199 3.51305 18.1931 3.18908 18.4474 2.93481C18.7017 2.68053 19.0256 2.50736 19.3783 2.43721C19.731 2.36705 20.0966 2.40306 20.4288 2.54067C20.7611 2.67829 21.045 2.91133 21.2448 3.21033C21.4446 3.50933 21.5512 3.86085 21.5512 4.22045C21.5512 4.70267 21.3597 5.16513 21.0187 5.5061C20.6777 5.84708 20.2152 6.03864 19.733 6.03864Z" fill="black"/>
<path d="M11.9997 7.27246C11.0648 7.27246 10.1508 7.54971 9.3734 8.06915C8.59601 8.58859 7.9901 9.32689 7.63231 10.1907C7.27451 11.0545 7.18089 12.005 7.3633 12.922C7.5457 13.839 7.99593 14.6813 8.65705 15.3424C9.31817 16.0035 10.1605 16.4538 11.0775 16.6362C11.9945 16.8186 12.945 16.725 13.8088 16.3672C14.6726 16.0094 15.4109 15.4035 15.9303 14.6261C16.4498 13.8487 16.727 12.9347 16.727 11.9997C16.7256 10.7464 16.2271 9.54486 15.3408 8.65864C14.4546 7.77242 13.253 7.2739 11.9997 7.27246Z" fill="black"/>
</svg>
