<svg width="47" height="46" viewBox="0 0 47 46" fill="none" xmlns="http://www.w3.org/2000/svg">
<path d="M17.9805 19.0625H14.043V32H17.9805V19.0625Z" fill="black"/>
<path d="M27.5446 19.0625C25.293 19.0625 24.6686 19.8005 24.168 20.75V19.0625H20.2305V32H24.168V24.6875C24.168 23.5625 24.168 22.4375 26.1367 22.4375C28.1055 22.4375 28.1055 23.5625 28.1055 24.6875V32H32.0429V24.6875C32.0429 21.3125 31.4804 19.0625 27.5446 19.0625Z" fill="black"/>
<path d="M16.0117 17.9375C17.099 17.9375 17.9805 17.0561 17.9805 15.9687C17.9805 14.8814 17.099 14 16.0117 14C14.9244 14 14.043 14.8814 14.043 15.9687C14.043 17.0561 14.9244 17.9375 16.0117 17.9375Z" fill="black"/>
</svg>
