<svg width="47" height="46" viewBox="0 0 47 46" fill="none" xmlns="http://www.w3.org/2000/svg">
<path d="M34.6538 16.1307C33.8394 16.4927 32.963 16.7368 32.0433 16.8461C32.9823 16.2841 33.7023 15.3938 34.0418 14.3318C33.1635 14.8529 32.1913 15.2311 31.1556 15.4352C30.3268 14.5521 29.1454 14 27.8381 14C25.3283 14 23.2934 16.0345 23.2934 18.5443C23.2934 18.8999 23.3334 19.2466 23.4112 19.5798C19.6337 19.39 16.2843 17.5812 14.0425 14.8318C13.6512 15.5026 13.4273 16.2832 13.4273 17.1168C13.4273 18.6931 14.2296 20.0842 15.4492 20.8989C14.7045 20.8751 14.0034 20.6705 13.3904 20.3302C13.39 20.3491 13.39 20.3684 13.39 20.3877C13.39 22.589 14.9567 24.4253 17.0362 24.8434C16.6548 24.9468 16.2532 25.0026 15.8386 25.0026C15.5454 25.0026 15.2607 24.9743 14.9833 24.9208C15.562 26.726 17.2403 28.0402 19.2289 28.0766C17.6734 29.2955 15.714 30.0221 13.5842 30.0221C13.2177 30.0221 12.8557 30.0005 12.5 29.9583C14.512 31.2482 16.9008 32 19.4673 32C27.8278 32 32.399 25.0759 32.399 19.0708C32.399 18.8739 32.395 18.6774 32.3864 18.4822C33.2741 17.8429 34.0449 17.0421 34.6538 16.1307Z" fill="black"/>
</svg>
