<svg width="24" height="24" viewBox="0 0 24 24" fill="none" xmlns="http://www.w3.org/2000/svg">
<path d="M7.43095 21.449C16.3477 21.449 21.2248 14.0616 21.2248 7.65519C21.2248 7.44539 21.2248 7.23651 21.2106 7.02856C22.1594 6.34225 22.9784 5.49256 23.6293 4.51914C22.7445 4.9112 21.8059 5.16826 20.8448 5.28188C21.8566 4.6762 22.6144 3.72281 22.9762 2.60042C22.0246 3.16507 20.9834 3.56308 19.8978 3.77717C18.9811 2.80242 17.7009 2.24902 16.3629 2.24902C13.7008 2.24902 11.5104 4.43953 11.5104 7.10152C11.5104 7.47082 11.5526 7.83897 11.636 8.19867C7.74002 8.0034 4.10508 6.16059 1.64459 3.13351C0.3651 5.33611 1.02714 8.19055 3.14551 9.60507C2.3741 9.58223 1.61925 9.37409 0.945172 8.99828V9.05971C0.945818 11.3587 2.58108 13.3569 4.83454 13.8121C4.12087 14.0067 3.37188 14.0351 2.64556 13.8952C3.27907 15.8652 5.10591 17.2231 7.17481 17.2619C5.45846 18.6108 3.33704 19.3435 1.15405 19.3413C0.768321 19.3406 0.382961 19.3172 0 19.2713C2.21682 20.6939 4.79693 21.4487 7.43095 21.4452" fill="black"/>
</svg>
