<svg width="47" height="40" viewBox="0 0 47 40" fill="none" xmlns="http://www.w3.org/2000/svg">
<g clip-path="url(#clip0_4524_15871)">
<path fill-rule="evenodd" clip-rule="evenodd" d="M20.9281 15.6444L26.9328 12.2907V5.98516C26.2351 5.86107 25.6033 5.4954 25.1481 4.95222L15.528 10.519C15.6424 10.8393 15.7045 11.1825 15.7045 11.5421C15.7045 11.8428 15.662 12.1305 15.5803 12.4051L20.9281 15.6444ZM24.6381 4.07945C24.5105 3.73981 24.4452 3.37993 24.4453 3.0171C24.4453 2.18355 24.782 1.42846 25.3279 0.882574C25.8737 0.336686 26.6288 0 27.4624 0C28.2959 0 29.051 0.336686 29.5969 0.882574C29.8774 1.16269 30.0997 1.49547 30.2512 1.86178C30.4026 2.22808 30.4802 2.62071 30.4795 3.0171C30.4795 3.3832 30.4141 3.73296 30.2964 4.05657L39.9622 9.64621C40.0309 9.56449 40.0995 9.48277 40.1747 9.40759C40.4548 9.12713 40.7876 8.90479 41.1539 8.75333C41.5202 8.60187 41.9128 8.52428 42.3092 8.52501C43.1428 8.52501 43.8979 8.8617 44.4438 9.40759C44.7242 9.68771 44.9466 10.0205 45.098 10.3868C45.2495 10.7531 45.3271 11.1457 45.3263 11.5421C45.3263 12.3757 44.9897 13.1275 44.4438 13.6734C43.9746 14.1431 43.3631 14.4442 42.7048 14.5298V25.6143C43.3814 25.7025 43.9861 26.0131 44.4438 26.4707C44.9897 27.0166 45.3263 27.7717 45.3263 28.6019C45.3267 28.9983 45.2489 29.3907 45.0974 29.7569C44.9459 30.1232 44.7236 30.4559 44.4434 30.7361C44.1632 31.0164 43.8304 31.2386 43.4642 31.3901C43.098 31.5416 42.7055 31.6194 42.3092 31.619C41.8618 31.6197 41.4198 31.5206 41.0155 31.3289C40.6112 31.1372 40.2547 30.8578 39.972 30.5109L30.2931 36.1071C30.4108 36.4307 30.4762 36.7805 30.4762 37.1466C30.4762 37.9801 30.1395 38.7352 29.5936 39.2811C29.3135 39.5616 28.9807 39.7839 28.6144 39.9354C28.2481 40.0868 27.8555 40.1644 27.4591 40.1637C26.6256 40.1637 25.8705 39.827 25.3246 39.2811C24.7787 38.7352 24.442 37.9801 24.442 37.1466C24.442 36.7739 24.5107 36.4144 24.6349 36.0842L15.0181 30.524C14.7351 30.8682 14.3793 31.1453 13.9763 31.3352C13.5732 31.5252 13.133 31.6232 12.6874 31.6223C11.8539 31.6223 11.0988 31.2856 10.5529 30.7397C10.0103 30.1939 9.67359 29.4388 9.67359 28.6052C9.67359 27.7717 10.0103 27.0199 10.5562 26.474C11.02 26.0097 11.6224 25.709 12.2723 25.6175V14.5265C11.622 14.4365 11.0191 14.1356 10.5562 13.6701C10.2755 13.3908 10.053 13.0587 9.9015 12.6928C9.75001 12.327 9.67255 11.9348 9.67359 11.5388C9.67359 10.7053 10.0103 9.95021 10.5562 9.40432C10.8363 9.12386 11.1691 8.90152 11.5354 8.75006C11.9017 8.5986 12.2943 8.52101 12.6907 8.52175C13.139 8.52096 13.5817 8.62034 13.9867 8.81262C14.3916 9.00491 14.7485 9.28524 15.0311 9.63314L24.6381 4.07945ZM29.7898 4.93261C29.3316 5.4912 28.6876 5.86603 27.9756 5.98843V12.2907L33.9673 15.7621L39.4752 12.5783C39.3542 12.2547 39.2921 11.9017 39.2921 11.5388C39.2921 11.1858 39.3542 10.8426 39.4654 10.5288L29.7898 4.93261ZM41.783 14.5102C41.1733 14.4042 40.6114 14.1118 40.1747 13.6734C40.1126 13.6113 40.0538 13.5492 39.9982 13.4805L34.5001 16.6578V23.4503L40.0211 26.6374C40.0701 26.5818 40.1191 26.5263 40.1714 26.474C40.6086 26.0361 41.1703 25.7439 41.7797 25.6372V14.5102H41.783ZM39.4719 29.6349C39.3542 29.3145 39.2921 28.9681 39.2921 28.6085C39.2921 28.2293 39.3608 27.8665 39.4915 27.5298L34.1503 24.4473L27.9756 28.0364V34.1785C28.6876 34.3009 29.3316 34.6757 29.7898 35.2343L39.4719 29.6349ZM25.1481 35.2115C25.6033 34.6683 26.2351 34.3026 26.9328 34.1785V28.007L20.7352 24.4114L15.4757 27.4481C15.6228 27.8044 15.7078 28.1966 15.7078 28.6085C15.7078 28.9746 15.6424 29.3244 15.5247 29.648L25.1481 35.2115ZM13.1908 25.6306C13.8217 25.7352 14.3872 26.0392 14.8219 26.474C14.8546 26.5067 14.8841 26.5393 14.9135 26.572L20.271 23.4797V16.4616L15.1129 13.3367C15.0246 13.4576 14.9265 13.5688 14.8219 13.6734C14.3787 14.1167 13.8088 14.4114 13.1908 14.5167V25.6306ZM12.694 13.5132C12.707 13.5132 12.7201 13.5099 12.7332 13.5099H12.7593C13.2589 13.4942 13.7335 13.2885 14.0865 12.9346C14.2701 12.7515 14.4157 12.534 14.515 12.2944C14.6143 12.0549 14.6653 11.7981 14.665 11.5388C14.665 10.993 14.4428 10.4994 14.0865 10.1431C13.7302 9.78677 13.2366 9.56449 12.6907 9.56449C12.1448 9.56449 11.6512 9.78677 11.2949 10.1431C11.1113 10.3262 10.9657 10.5437 10.8664 10.7832C10.7671 11.0228 10.7161 11.2796 10.7163 11.5388C10.7163 12.0847 10.9386 12.5783 11.2949 12.9346C11.4785 13.1185 11.6966 13.2643 11.9367 13.3636C12.1768 13.4629 12.4341 13.5137 12.694 13.5132ZM28.8549 35.7573C28.6718 35.5737 28.4542 35.4281 28.2147 35.3288C27.9752 35.2295 27.7184 35.1785 27.4591 35.1788C26.9132 35.1788 26.4196 35.401 26.0633 35.7573C25.707 36.1136 25.4848 36.6072 25.4848 37.1531C25.4848 37.699 25.707 38.1926 26.0633 38.5489C26.4196 38.9052 26.9132 39.1275 27.4591 39.1275C28.005 39.1275 28.4986 38.9052 28.8549 38.5489C29.2112 38.1926 29.4335 37.699 29.4335 37.1531C29.4335 36.6072 29.2144 36.1136 28.8549 35.7573ZM28.8549 1.62132C28.6718 1.43772 28.4542 1.2921 28.2147 1.19281C27.9752 1.09352 27.7184 1.04252 27.4591 1.04275C26.9132 1.04275 26.4196 1.26502 26.0633 1.62132C25.707 1.97762 25.4848 2.47121 25.4848 3.0171C25.4848 3.56299 25.707 4.05657 26.0633 4.41287C26.2464 4.59647 26.464 4.7421 26.7035 4.84139C26.943 4.94068 27.1998 4.99167 27.4591 4.99145C28.005 4.99145 28.4986 4.76917 28.8549 4.41287C29.0385 4.22978 29.1841 4.01222 29.2834 3.7727C29.3827 3.53317 29.4337 3.27639 29.4335 3.0171C29.4335 2.47121 29.2144 1.97762 28.8549 1.62132ZM43.7017 27.2127C43.5187 27.0291 43.3011 26.8835 43.0616 26.7842C42.822 26.6849 42.5653 26.6339 42.306 26.6341C41.7601 26.6341 41.2665 26.8564 40.9102 27.2127C40.7266 27.3958 40.581 27.6134 40.4817 27.8529C40.3824 28.0924 40.3314 28.3492 40.3316 28.6085C40.3316 29.1544 40.5539 29.648 40.9102 30.0043C41.0933 30.1879 41.3108 30.3335 41.5504 30.4328C41.7899 30.5321 42.0467 30.5831 42.306 30.5828C42.8519 30.5828 43.3454 30.3606 43.7017 30.0043C43.8853 29.8212 44.031 29.6036 44.1303 29.3641C44.2295 29.1246 44.2805 28.8678 44.2803 28.6085C44.2803 28.0626 44.0613 27.569 43.7017 27.2127ZM14.0865 27.2127C13.7302 26.8564 13.2366 26.6341 12.6907 26.6341C12.1448 26.6341 11.6512 26.8564 11.2949 27.2127C11.1113 27.3958 10.9657 27.6134 10.8664 27.8529C10.7671 28.0924 10.7161 28.3492 10.7163 28.6085C10.7163 29.1544 10.9386 29.648 11.2949 30.0043C11.6512 30.3606 12.1448 30.5828 12.6907 30.5828C13.2366 30.5828 13.7302 30.3606 14.0865 30.0043C14.2701 29.8212 14.4157 29.6036 14.515 29.3641C14.6143 29.1246 14.6653 28.8678 14.665 28.6085C14.664 28.0851 14.456 27.5834 14.0865 27.2127ZM40.5474 12.4312C40.5735 12.4574 40.5931 12.4901 40.6127 12.5228C40.6323 12.5554 40.6454 12.5881 40.6585 12.6241C40.7337 12.7352 40.8187 12.8398 40.9102 12.9346C41.0933 13.1182 41.3108 13.2638 41.5504 13.3631C41.7899 13.4624 42.0467 13.5134 42.306 13.5132C42.8519 13.5132 43.3454 13.2909 43.7017 12.9346C43.8853 12.7515 44.031 12.534 44.1303 12.2944C44.2295 12.0549 44.2805 11.7981 44.2803 11.5388C44.2803 10.993 44.058 10.4994 43.7017 10.1431C43.5187 9.95947 43.3011 9.81384 43.0616 9.71455C42.822 9.61526 42.5653 9.56427 42.306 9.56449C41.7601 9.56449 41.2665 9.78677 40.9102 10.1431C40.7266 10.3262 40.581 10.5437 40.4817 10.7832C40.3824 11.0228 40.3314 11.2796 40.3316 11.5388C40.3349 11.8625 40.4133 12.1632 40.5474 12.4312ZM21.2484 23.3686C21.3227 23.4485 21.3716 23.5486 21.389 23.6563L26.9884 26.9479V20.4496L21.2484 17.0337V23.3686ZM33.526 17.1219L27.9658 20.4528V26.9545L33.526 23.6693V17.1219ZM27.4526 13.0719L22.0264 16.3178L27.482 19.603L32.7807 16.3865L27.4526 13.0719Z" fill="#C9FA3D" stroke="#E37C31" stroke-width="1.67362"/>
</g>
<defs>
<clipPath id="clip0_4524_15871">
<rect width="47" height="40" fill="white"/>
</clipPath>
</defs>
</svg>
