<svg width="30" height="30" viewBox="0 0 30 30" fill="none" xmlns="http://www.w3.org/2000/svg">
<path fill-rule="evenodd" clip-rule="evenodd" d="M14.9427 29.9999L14.9561 30H14.9515L14.9427 29.9999ZM15.0485 30H15.0439L15.0573 29.9999L15.0485 30ZM14.8969 29.9997L14.9114 29.9998H14.9031L14.8969 29.9997ZM15.097 29.9998H15.0887L15.1032 29.9997L15.097 29.9998ZM14.8527 29.9994L14.8624 29.9994L14.8547 29.9994H14.8527ZM15.1454 29.9994L15.1377 29.9994L15.1473 29.9994H15.1454ZM15.1938 29.9988L15.1904 29.9989L15.2035 29.9987L15.1938 29.9988ZM14.7966 29.9987L14.8097 29.9989L14.8063 29.9988L14.7966 29.9987ZM15.2421 29.9981L15.2342 29.9982L15.2503 29.998L15.2421 29.9981ZM14.7497 29.998L14.7658 29.9982L14.7579 29.9981L14.7497 29.998ZM15.2904 29.9973L15.2798 29.9975L15.2946 29.9972L15.2904 29.9973ZM14.7054 29.9972L14.7203 29.9975L14.7096 29.9973L14.7054 29.9972ZM14.6505 29.9961L14.6637 29.9964L14.6614 29.9963L14.6505 29.9961ZM15.3387 29.9963L15.3364 29.9964L15.3495 29.9961L15.3387 29.9963ZM14.6024 29.9948L14.6205 29.9953L14.6131 29.9951L14.6024 29.9948ZM15.3869 29.9951L15.3796 29.9953L15.3977 29.9948L15.3869 29.9951ZM15.4351 29.9938L15.4234 29.9942L15.4419 29.9937L15.4351 29.9938ZM14.5582 29.9937L14.5767 29.9942L14.5649 29.9938L14.5582 29.9937ZM14.516 29.9924L14.5292 29.9928L14.5167 29.9924L14.5054 29.992L14.516 29.9924ZM15.4833 29.9924L15.4709 29.9928L15.4841 29.9924L15.4947 29.992L15.4833 29.9924ZM15.5314 29.9908L15.5249 29.991L15.5451 29.9903L15.5314 29.9908ZM14.455 29.9903L14.4752 29.991L14.4686 29.9908L14.455 29.9903ZM14.4111 29.9887L14.4323 29.9895L14.4205 29.989L14.4111 29.9887ZM15.5795 29.989L15.5677 29.9895L15.589 29.9887L15.5795 29.989ZM14.368 29.9869L14.3888 29.9878L14.3725 29.9872L14.368 29.9869ZM15.6275 29.9872L15.6113 29.9878L15.632 29.9869L15.6275 29.9872ZM14.3077 29.9843L14.33 29.9853L14.3245 29.9851L14.3077 29.9843ZM15.6756 29.9851L15.6701 29.9853L15.6924 29.9843L15.6756 29.9851ZM14.2644 29.9823L14.2875 29.9834L14.2766 29.9829L14.2644 29.9823ZM15.7235 29.9829L15.7126 29.9834L15.7357 29.9823L15.7235 29.9829ZM14.2217 29.9801L14.245 29.9813L14.2286 29.9805L14.2217 29.9801ZM15.7714 29.9805L15.7551 29.9813L15.7783 29.9801L15.7714 29.9805ZM15.8193 29.978L15.7981 29.9791L15.8169 29.9781L15.8391 29.9769L15.8193 29.978ZM14.1831 29.9781L14.2019 29.9791L14.1807 29.978L14.161 29.9769L14.1831 29.9781ZM15.8672 29.9753L15.8578 29.9759L15.8816 29.9745L15.8672 29.9753ZM14.1185 29.9745L14.1423 29.9759L14.1329 29.9753L14.1185 29.9745ZM14.0762 29.972L14.0999 29.9734L14.0851 29.9726L14.0762 29.972ZM15.915 29.9726L15.9001 29.9734L15.9239 29.972L15.915 29.9726ZM14.0358 29.9695L14.0572 29.9708L14.0373 29.9696L14.0172 29.9683L14.0358 29.9695ZM15.9628 29.9696L15.9429 29.9708L15.9643 29.9695L15.9828 29.9683L15.9628 29.9696ZM16.0105 29.9665L16.0033 29.967L16.026 29.9654L16.0105 29.9665ZM13.9741 29.9654L13.9967 29.967L13.9896 29.9665L13.9741 29.9654ZM13.9318 29.9625L13.9541 29.9641L13.9419 29.9633L13.9318 29.9625ZM16.0582 29.9633L16.046 29.9641L16.0683 29.9625L16.0582 29.9633ZM13.8897 29.9595L13.9101 29.961L13.8942 29.9599L13.8897 29.9595ZM16.1058 29.9599L16.0899 29.961L16.1104 29.9595L16.1058 29.9599ZM13.833 29.9552L13.8509 29.9566L13.8466 29.9563L13.833 29.9552ZM16.1535 29.9563L16.1491 29.9566L16.167 29.9552L16.1535 29.9563ZM16.201 29.9526L16.1924 29.9532L16.2106 29.9518L16.201 29.9526ZM13.7894 29.9518L13.8076 29.9532L13.7991 29.9526L13.7894 29.9518ZM13.7469 29.9483L13.7624 29.9496L13.7515 29.9487L13.7469 29.9483ZM16.2486 29.9487L16.2376 29.9496L16.2531 29.9483L16.2486 29.9487ZM13.7002 29.9444L13.7048 29.9448L13.7041 29.9447L13.7002 29.9444ZM16.296 29.9447L16.2952 29.9448L16.2999 29.9444L16.296 29.9447ZM16.3435 29.9406L16.3393 29.9409L16.3499 29.94L16.3435 29.9406ZM13.6502 29.94L13.6608 29.9409L13.6566 29.9406L13.6502 29.94ZM13.6063 29.936L13.6142 29.9368L13.6092 29.9363L13.6063 29.936ZM16.3908 29.9363L16.3859 29.9368L16.3938 29.936L16.3908 29.9363ZM12.6563 29.8177C5.48913 28.6911 0 22.4815 0 15C0 6.7213 6.7213 0 15 0C23.2788 0 30.0001 6.7213 30.0001 15C30.0001 22.4815 24.5109 28.6911 17.3438 29.8177V19.336H20.8389L21.504 15H17.3438V12.1863C17.3438 11.0001 17.9249 9.84377 19.7883 9.84377H21.6797V6.15236C21.6797 6.15236 19.9632 5.85939 18.322 5.85939C14.8957 5.85939 12.6563 7.93595 12.6563 11.6953V15H8.84767V19.336H12.6563V29.8177Z" fill="black"/>
</svg>
