<svg width="30" height="30" viewBox="0 0 30 30" fill="none" xmlns="http://www.w3.org/2000/svg">
<path d="M15.0006 0C6.71601 0 0 6.71723 0 15.0006C0 23.2852 6.71601 30 15.0006 30C23.2852 30 30 23.2852 30 15.0006C30 6.71723 23.2846 0 15.0006 0ZM22.5567 11.9761C22.5646 12.1382 22.5676 12.3008 22.5676 12.4653C22.5676 17.461 18.7652 23.2206 11.8123 23.2206C9.67775 23.2206 7.69006 22.595 6.0173 21.5229C6.31335 21.5576 6.61367 21.5753 6.91886 21.5753C8.6903 21.5753 10.3204 20.971 11.6137 19.9574C9.9598 19.9263 8.56421 18.8328 8.08297 17.3313C8.31323 17.3763 8.5502 17.3989 8.79386 17.3989C9.13865 17.3989 9.47247 17.3538 9.78984 17.2667C8.05982 16.9195 6.75682 15.3905 6.75682 13.5606C6.75682 13.5441 6.75682 13.5283 6.75743 13.5118C7.26669 13.7951 7.84966 13.965 8.46979 13.9851C7.45492 13.3059 6.78789 12.1503 6.78789 10.8382C6.78789 10.1456 6.97429 9.49562 7.29959 8.93762C9.16423 11.2244 11.9499 12.7297 15.092 12.8868C15.0274 12.6109 14.9939 12.3215 14.9939 12.0255C14.9939 9.93848 16.6862 8.24562 18.7744 8.24562C19.8617 8.24562 20.8437 8.70492 21.5333 9.43896C22.3946 9.27023 23.2036 8.95468 23.934 8.52157C23.6507 9.40485 23.0519 10.1456 22.271 10.6128C23.0367 10.5214 23.7652 10.318 24.4426 10.0177C23.937 10.7773 23.2956 11.4431 22.5567 11.9761Z" fill="black"/>
</svg>
