<svg width="131" height="65" viewBox="0 0 131 65" fill="none" xmlns="http://www.w3.org/2000/svg">
<path d="M84.4201 9.55036C78.7848 9.57742 74.1942 14.2092 74.2201 19.9762C74.2459 25.7433 78.8824 30.3315 84.5177 30.3056C90.153 30.2798 94.7448 25.6468 94.7177 19.8821C94.6906 14.1174 90.0554 9.52565 84.4177 9.55271L84.4201 9.55036ZM84.4977 26.0762C82.9001 26.0857 81.3648 25.4586 80.2295 24.3351C79.0942 23.2115 78.4648 21.6809 78.4471 20.0833C78.4295 18.4856 79.0648 16.9504 80.1883 15.8151C81.3118 14.6798 82.8424 14.0504 84.4401 14.0327C86.0377 14.0151 87.573 14.6504 88.7083 15.7739C89.8436 16.8974 90.473 18.428 90.4906 20.0257C90.5071 23.2315 87.7024 26.0609 84.4977 26.0774V26.0762ZM107.251 14.4386C104.304 14.4527 102.008 16.8974 102.022 19.8445L102.069 29.7092L97.5848 29.7304L97.4942 10.1268L101.979 10.1057L101.994 13.1798C101.994 13.1798 103.9 10.0974 107.745 10.0798L109.027 10.0727L109.048 14.428L107.251 14.4386ZM62.5142 10.2939L65.9095 23.7315L69.4342 10.2609L73.9189 10.2409L68.3706 29.8821L64.0154 29.9021L60.493 16.2104L57.0977 29.9339L52.7412 29.9539L46.8848 10.3774L51.2401 10.3574L55.1459 23.7927L58.2871 10.3245L62.5142 10.2939ZM122.132 18.9833C125.197 17.1762 127.361 13.8339 127.344 9.99036L122.859 10.0115C122.875 13.3433 120.195 16.0468 116.993 16.0586L116.352 16.0609L116.281 0.558594L111.797 0.57977L111.934 29.6621L116.417 29.6421L116.374 20.4186L116.886 20.4162C117.399 20.4139 117.913 20.668 118.044 21.0515L124.361 29.6045L129.614 29.5809L122.132 18.9833Z" fill="#4B4B4B"/>
<path d="M36.5034 9.77635C31.6363 9.79988 27.9351 13.0199 26.5504 18.1505C24.2269 14.574 22.4139 10.4834 21.3739 7.0293L16.2504 7.05283L16.3139 20.6328C16.3196 21.924 15.8123 23.1645 14.9036 24.0818C13.9949 24.9991 12.7592 25.5181 11.4681 25.5246C10.1769 25.5302 8.93635 25.0229 8.01907 24.1143C7.10178 23.2056 6.58284 21.9699 6.5763 20.6787L6.51159 7.09871L1.38571 7.12224L1.44924 20.7022C1.4763 26.3375 5.97865 30.8034 11.4892 30.7764C16.9998 30.7493 21.4634 26.2446 21.4375 20.6081L21.4257 18.3022C22.4587 20.3458 23.7504 22.5175 25.1704 24.434L22.0375 39.4375L27.2892 39.414L29.5481 28.5128C31.6034 29.7858 33.901 30.5422 36.6022 30.5293C42.2398 30.5022 46.8316 25.8705 46.8022 19.9764C46.7807 17.2607 45.6859 14.6639 43.7566 12.7527C41.8273 10.8414 39.2202 9.77105 36.5045 9.77518L36.5034 9.77635ZM36.5763 25.2787C34.5269 25.2881 32.4739 24.4011 30.8022 22.9987L31.3045 20.9481V20.8305C31.681 18.6493 32.8128 14.9293 36.6575 14.9128C38.0131 14.9106 39.3148 15.4438 40.2791 16.3966C41.2435 17.3493 41.7926 18.6443 41.8069 19.9999C41.6916 22.9469 39.2692 25.2646 36.5775 25.2775L36.5763 25.2787Z" fill="#6FDA44"/>
<path d="M2.87182 61V53.2L3.55582 53.908H1.09582V52.6H4.43182V61H2.87182ZM9.60213 61.12C8.93813 61.12 8.33813 60.952 7.80213 60.616C7.27413 60.28 6.85813 59.792 6.55413 59.152C6.25013 58.504 6.09813 57.72 6.09813 56.8C6.09813 55.88 6.25013 55.1 6.55413 54.46C6.85813 53.812 7.27413 53.32 7.80213 52.984C8.33813 52.648 8.93813 52.48 9.60213 52.48C10.2741 52.48 10.8741 52.648 11.4021 52.984C11.9301 53.32 12.3461 53.812 12.6501 54.46C12.9621 55.1 13.1181 55.88 13.1181 56.8C13.1181 57.72 12.9621 58.504 12.6501 59.152C12.3461 59.792 11.9301 60.28 11.4021 60.616C10.8741 60.952 10.2741 61.12 9.60213 61.12ZM9.60213 59.764C9.99413 59.764 10.3341 59.66 10.6221 59.452C10.9101 59.236 11.1341 58.908 11.2941 58.468C11.4621 58.028 11.5461 57.472 11.5461 56.8C11.5461 56.12 11.4621 55.564 11.2941 55.132C11.1341 54.692 10.9101 54.368 10.6221 54.16C10.3341 53.944 9.99413 53.836 9.60213 53.836C9.22613 53.836 8.89013 53.944 8.59413 54.16C8.30613 54.368 8.07813 54.692 7.91013 55.132C7.75013 55.564 7.67013 56.12 7.67013 56.8C7.67013 57.472 7.75013 58.028 7.91013 58.468C8.07813 58.908 8.30613 59.236 8.59413 59.452C8.89013 59.66 9.22613 59.764 9.60213 59.764ZM17.6763 61.12C17.0123 61.12 16.4123 60.952 15.8763 60.616C15.3483 60.28 14.9323 59.792 14.6283 59.152C14.3243 58.504 14.1723 57.72 14.1723 56.8C14.1723 55.88 14.3243 55.1 14.6283 54.46C14.9323 53.812 15.3483 53.32 15.8763 52.984C16.4123 52.648 17.0123 52.48 17.6763 52.48C18.3483 52.48 18.9483 52.648 19.4763 52.984C20.0043 53.32 20.4203 53.812 20.7243 54.46C21.0363 55.1 21.1923 55.88 21.1923 56.8C21.1923 57.72 21.0363 58.504 20.7243 59.152C20.4203 59.792 20.0043 60.28 19.4763 60.616C18.9483 60.952 18.3483 61.12 17.6763 61.12ZM17.6763 59.764C18.0683 59.764 18.4083 59.66 18.6963 59.452C18.9843 59.236 19.2083 58.908 19.3683 58.468C19.5363 58.028 19.6203 57.472 19.6203 56.8C19.6203 56.12 19.5363 55.564 19.3683 55.132C19.2083 54.692 18.9843 54.368 18.6963 54.16C18.4083 53.944 18.0683 53.836 17.6763 53.836C17.3003 53.836 16.9643 53.944 16.6683 54.16C16.3803 54.368 16.1523 54.692 15.9843 55.132C15.8243 55.564 15.7443 56.12 15.7443 56.8C15.7443 57.472 15.8243 58.028 15.9843 58.468C16.1523 58.908 16.3803 59.236 16.6683 59.452C16.9643 59.66 17.3003 59.764 17.6763 59.764ZM23.4226 61L29.1586 52.6H30.3346L24.5986 61H23.4226ZM24.1186 57.124C23.7266 57.124 23.3786 57.028 23.0746 56.836C22.7706 56.644 22.5346 56.376 22.3666 56.032C22.1986 55.688 22.1146 55.284 22.1146 54.82C22.1146 54.356 22.1986 53.952 22.3666 53.608C22.5346 53.264 22.7706 52.996 23.0746 52.804C23.3786 52.612 23.7266 52.516 24.1186 52.516C24.5266 52.516 24.8786 52.612 25.1746 52.804C25.4786 52.996 25.7146 53.264 25.8826 53.608C26.0506 53.952 26.1346 54.356 26.1346 54.82C26.1346 55.284 26.0506 55.688 25.8826 56.032C25.7146 56.376 25.4786 56.644 25.1746 56.836C24.8786 57.028 24.5266 57.124 24.1186 57.124ZM24.1306 56.284C24.4506 56.284 24.6986 56.16 24.8746 55.912C25.0586 55.656 25.1506 55.292 25.1506 54.82C25.1506 54.348 25.0586 53.988 24.8746 53.74C24.6986 53.484 24.4506 53.356 24.1306 53.356C23.8106 53.356 23.5546 53.484 23.3626 53.74C23.1786 53.996 23.0866 54.356 23.0866 54.82C23.0866 55.284 23.1786 55.644 23.3626 55.9C23.5546 56.156 23.8106 56.284 24.1306 56.284ZM29.6266 61.084C29.2346 61.084 28.8866 60.988 28.5826 60.796C28.2786 60.604 28.0426 60.336 27.8746 59.992C27.7066 59.648 27.6226 59.244 27.6226 58.78C27.6226 58.316 27.7066 57.912 27.8746 57.568C28.0426 57.224 28.2786 56.956 28.5826 56.764C28.8866 56.572 29.2346 56.476 29.6266 56.476C30.0346 56.476 30.3866 56.572 30.6826 56.764C30.9866 56.956 31.2226 57.224 31.3906 57.568C31.5586 57.912 31.6426 58.316 31.6426 58.78C31.6426 59.244 31.5586 59.648 31.3906 59.992C31.2226 60.336 30.9866 60.604 30.6826 60.796C30.3866 60.988 30.0346 61.084 29.6266 61.084ZM29.6266 60.244C29.9466 60.244 30.1986 60.116 30.3826 59.86C30.5666 59.604 30.6586 59.244 30.6586 58.78C30.6586 58.316 30.5666 57.956 30.3826 57.7C30.1986 57.444 29.9466 57.316 29.6266 57.316C29.3146 57.316 29.0626 57.444 28.8706 57.7C28.6866 57.948 28.5946 58.308 28.5946 58.78C28.5946 59.252 28.6866 59.616 28.8706 59.872C29.0626 60.12 29.3146 60.244 29.6266 60.244ZM39.0912 61.12C38.4352 61.12 37.8072 61.028 37.2072 60.844C36.6072 60.652 36.1312 60.408 35.7792 60.112L36.3192 58.9C36.6552 59.164 37.0712 59.384 37.5672 59.56C38.0632 59.736 38.5712 59.824 39.0912 59.824C39.5312 59.824 39.8872 59.776 40.1592 59.68C40.4312 59.584 40.6312 59.456 40.7592 59.296C40.8872 59.128 40.9512 58.94 40.9512 58.732C40.9512 58.476 40.8592 58.272 40.6752 58.12C40.4912 57.96 40.2512 57.836 39.9552 57.748C39.6672 57.652 39.3432 57.564 38.9832 57.484C38.6312 57.404 38.2752 57.312 37.9152 57.208C37.5632 57.096 37.2392 56.956 36.9432 56.788C36.6552 56.612 36.4192 56.38 36.2352 56.092C36.0512 55.804 35.9592 55.436 35.9592 54.988C35.9592 54.532 36.0792 54.116 36.3192 53.74C36.5672 53.356 36.9392 53.052 37.4352 52.828C37.9392 52.596 38.5752 52.48 39.3432 52.48C39.8472 52.48 40.3472 52.544 40.8432 52.672C41.3392 52.8 41.7712 52.984 42.1392 53.224L41.6472 54.436C41.2712 54.212 40.8832 54.048 40.4832 53.944C40.0832 53.832 39.6992 53.776 39.3312 53.776C38.8992 53.776 38.5472 53.828 38.2752 53.932C38.0112 54.036 37.8152 54.172 37.6872 54.34C37.5672 54.508 37.5072 54.7 37.5072 54.916C37.5072 55.172 37.5952 55.38 37.7712 55.54C37.9552 55.692 38.1912 55.812 38.4792 55.9C38.7752 55.988 39.1032 56.076 39.4632 56.164C39.8232 56.244 40.1792 56.336 40.5312 56.44C40.8912 56.544 41.2152 56.68 41.5032 56.848C41.7992 57.016 42.0352 57.244 42.2112 57.532C42.3952 57.82 42.4872 58.184 42.4872 58.624C42.4872 59.072 42.3632 59.488 42.1152 59.872C41.8752 60.248 41.5032 60.552 40.9992 60.784C40.4952 61.008 39.8592 61.12 39.0912 61.12ZM47.6461 61.12C46.4941 61.12 45.5901 60.796 44.9341 60.148C44.2861 59.5 43.9621 58.564 43.9621 57.34V52.6H45.5221V57.28C45.5221 58.144 45.7061 58.772 46.0741 59.164C46.4501 59.556 46.9781 59.752 47.6581 59.752C48.3381 59.752 48.8621 59.556 49.2301 59.164C49.5981 58.772 49.7821 58.144 49.7821 57.28V52.6H51.3181V57.34C51.3181 58.564 50.9901 59.5 50.3341 60.148C49.6861 60.796 48.7901 61.12 47.6461 61.12ZM57.3908 61.12C56.7508 61.12 56.1548 61.016 55.6028 60.808C55.0588 60.592 54.5828 60.292 54.1748 59.908C53.7748 59.516 53.4628 59.056 53.2388 58.528C53.0148 58 52.9028 57.424 52.9028 56.8C52.9028 56.176 53.0148 55.6 53.2388 55.072C53.4628 54.544 53.7788 54.088 54.1868 53.704C54.5948 53.312 55.0708 53.012 55.6148 52.804C56.1588 52.588 56.7548 52.48 57.4028 52.48C58.0908 52.48 58.7188 52.6 59.2868 52.84C59.8548 53.072 60.3348 53.42 60.7268 53.884L59.7188 54.832C59.4148 54.504 59.0748 54.26 58.6988 54.1C58.3228 53.932 57.9148 53.848 57.4748 53.848C57.0348 53.848 56.6308 53.92 56.2628 54.064C55.9028 54.208 55.5868 54.412 55.3148 54.676C55.0508 54.94 54.8428 55.252 54.6908 55.612C54.5468 55.972 54.4748 56.368 54.4748 56.8C54.4748 57.232 54.5468 57.628 54.6908 57.988C54.8428 58.348 55.0508 58.66 55.3148 58.924C55.5868 59.188 55.9028 59.392 56.2628 59.536C56.6308 59.68 57.0348 59.752 57.4748 59.752C57.9148 59.752 58.3228 59.672 58.6988 59.512C59.0748 59.344 59.4148 59.092 59.7188 58.756L60.7268 59.716C60.3348 60.172 59.8548 60.52 59.2868 60.76C58.7188 61 58.0868 61.12 57.3908 61.12ZM65.9338 61.12C65.2938 61.12 64.6978 61.016 64.1458 60.808C63.6018 60.592 63.1258 60.292 62.7178 59.908C62.3178 59.516 62.0058 59.056 61.7818 58.528C61.5578 58 61.4458 57.424 61.4458 56.8C61.4458 56.176 61.5578 55.6 61.7818 55.072C62.0058 54.544 62.3218 54.088 62.7298 53.704C63.1378 53.312 63.6138 53.012 64.1578 52.804C64.7018 52.588 65.2978 52.48 65.9458 52.48C66.6338 52.48 67.2618 52.6 67.8298 52.84C68.3978 53.072 68.8778 53.42 69.2698 53.884L68.2618 54.832C67.9578 54.504 67.6178 54.26 67.2418 54.1C66.8658 53.932 66.4578 53.848 66.0178 53.848C65.5778 53.848 65.1738 53.92 64.8058 54.064C64.4458 54.208 64.1298 54.412 63.8578 54.676C63.5938 54.94 63.3858 55.252 63.2338 55.612C63.0898 55.972 63.0178 56.368 63.0178 56.8C63.0178 57.232 63.0898 57.628 63.2338 57.988C63.3858 58.348 63.5938 58.66 63.8578 58.924C64.1298 59.188 64.4458 59.392 64.8058 59.536C65.1738 59.68 65.5778 59.752 66.0178 59.752C66.4578 59.752 66.8658 59.672 67.2418 59.512C67.6178 59.344 67.9578 59.092 68.2618 58.756L69.2698 59.716C68.8778 60.172 68.3978 60.52 67.8298 60.76C67.2618 61 66.6298 61.12 65.9338 61.12ZM72.2045 56.092H76.3805V57.376H72.2045V56.092ZM72.3245 59.692H77.0645V61H70.7645V52.6H76.8965V53.908H72.3245V59.692ZM81.4076 61.12C80.7516 61.12 80.1236 61.028 79.5236 60.844C78.9236 60.652 78.4476 60.408 78.0956 60.112L78.6356 58.9C78.9716 59.164 79.3876 59.384 79.8836 59.56C80.3796 59.736 80.8876 59.824 81.4076 59.824C81.8476 59.824 82.2036 59.776 82.4756 59.68C82.7476 59.584 82.9476 59.456 83.0756 59.296C83.2036 59.128 83.2676 58.94 83.2676 58.732C83.2676 58.476 83.1756 58.272 82.9916 58.12C82.8076 57.96 82.5676 57.836 82.2716 57.748C81.9836 57.652 81.6596 57.564 81.2996 57.484C80.9476 57.404 80.5916 57.312 80.2316 57.208C79.8796 57.096 79.5556 56.956 79.2596 56.788C78.9716 56.612 78.7356 56.38 78.5516 56.092C78.3676 55.804 78.2756 55.436 78.2756 54.988C78.2756 54.532 78.3956 54.116 78.6356 53.74C78.8836 53.356 79.2556 53.052 79.7516 52.828C80.2556 52.596 80.8916 52.48 81.6596 52.48C82.1636 52.48 82.6636 52.544 83.1596 52.672C83.6556 52.8 84.0876 52.984 84.4556 53.224L83.9636 54.436C83.5876 54.212 83.1996 54.048 82.7996 53.944C82.3996 53.832 82.0156 53.776 81.6476 53.776C81.2156 53.776 80.8636 53.828 80.5916 53.932C80.3276 54.036 80.1316 54.172 80.0036 54.34C79.8836 54.508 79.8236 54.7 79.8236 54.916C79.8236 55.172 79.9116 55.38 80.0876 55.54C80.2716 55.692 80.5076 55.812 80.7956 55.9C81.0916 55.988 81.4196 56.076 81.7796 56.164C82.1396 56.244 82.4956 56.336 82.8476 56.44C83.2076 56.544 83.5316 56.68 83.8196 56.848C84.1156 57.016 84.3516 57.244 84.5276 57.532C84.7116 57.82 84.8036 58.184 84.8036 58.624C84.8036 59.072 84.6796 59.488 84.4316 59.872C84.1916 60.248 83.8196 60.552 83.3156 60.784C82.8116 61.008 82.1756 61.12 81.4076 61.12ZM88.9545 61.12C88.2985 61.12 87.6705 61.028 87.0705 60.844C86.4705 60.652 85.9945 60.408 85.6425 60.112L86.1825 58.9C86.5185 59.164 86.9345 59.384 87.4305 59.56C87.9265 59.736 88.4345 59.824 88.9545 59.824C89.3945 59.824 89.7505 59.776 90.0225 59.68C90.2945 59.584 90.4945 59.456 90.6225 59.296C90.7505 59.128 90.8145 58.94 90.8145 58.732C90.8145 58.476 90.7225 58.272 90.5385 58.12C90.3545 57.96 90.1145 57.836 89.8185 57.748C89.5305 57.652 89.2065 57.564 88.8465 57.484C88.4945 57.404 88.1385 57.312 87.7785 57.208C87.4265 57.096 87.1025 56.956 86.8065 56.788C86.5185 56.612 86.2825 56.38 86.0985 56.092C85.9145 55.804 85.8225 55.436 85.8225 54.988C85.8225 54.532 85.9425 54.116 86.1825 53.74C86.4305 53.356 86.8025 53.052 87.2985 52.828C87.8025 52.596 88.4385 52.48 89.2065 52.48C89.7105 52.48 90.2105 52.544 90.7065 52.672C91.2025 52.8 91.6345 52.984 92.0025 53.224L91.5105 54.436C91.1345 54.212 90.7465 54.048 90.3465 53.944C89.9465 53.832 89.5625 53.776 89.1945 53.776C88.7625 53.776 88.4105 53.828 88.1385 53.932C87.8745 54.036 87.6785 54.172 87.5505 54.34C87.4305 54.508 87.3705 54.7 87.3705 54.916C87.3705 55.172 87.4585 55.38 87.6345 55.54C87.8185 55.692 88.0545 55.812 88.3425 55.9C88.6385 55.988 88.9665 56.076 89.3265 56.164C89.6865 56.244 90.0425 56.336 90.3945 56.44C90.7545 56.544 91.0785 56.68 91.3665 56.848C91.6625 57.016 91.8985 57.244 92.0745 57.532C92.2585 57.82 92.3505 58.184 92.3505 58.624C92.3505 59.072 92.2265 59.488 91.9785 59.872C91.7385 60.248 91.3665 60.552 90.8625 60.784C90.3585 61.008 89.7225 61.12 88.9545 61.12ZM98.5218 61.12C97.9858 61.12 97.4898 61.016 97.0338 60.808C96.5858 60.6 96.2178 60.3 95.9298 59.908L96.8178 58.84C97.0498 59.16 97.3018 59.4 97.5738 59.56C97.8538 59.72 98.1578 59.8 98.4858 59.8C99.3578 59.8 99.7938 59.284 99.7938 58.252V53.908H96.8058V52.6H101.354V58.168C101.354 59.16 101.11 59.9 100.622 60.388C100.142 60.876 99.4418 61.12 98.5218 61.12ZM107.478 61.12C106.822 61.12 106.218 61.012 105.666 60.796C105.114 60.58 104.634 60.28 104.226 59.896C103.818 59.504 103.502 59.048 103.278 58.528C103.054 58 102.942 57.424 102.942 56.8C102.942 56.176 103.054 55.604 103.278 55.084C103.502 54.556 103.818 54.1 104.226 53.716C104.634 53.324 105.114 53.02 105.666 52.804C106.218 52.588 106.818 52.48 107.466 52.48C108.122 52.48 108.722 52.588 109.266 52.804C109.818 53.02 110.298 53.324 110.706 53.716C111.114 54.1 111.43 54.556 111.654 55.084C111.878 55.604 111.99 56.176 111.99 56.8C111.99 57.424 111.878 58 111.654 58.528C111.43 59.056 111.114 59.512 110.706 59.896C110.298 60.28 109.818 60.58 109.266 60.796C108.722 61.012 108.126 61.12 107.478 61.12ZM107.466 59.752C107.89 59.752 108.282 59.68 108.642 59.536C109.002 59.392 109.314 59.188 109.578 58.924C109.842 58.652 110.046 58.34 110.19 57.988C110.342 57.628 110.418 57.232 110.418 56.8C110.418 56.368 110.342 55.976 110.19 55.624C110.046 55.264 109.842 54.952 109.578 54.688C109.314 54.416 109.002 54.208 108.642 54.064C108.282 53.92 107.89 53.848 107.466 53.848C107.042 53.848 106.65 53.92 106.29 54.064C105.938 54.208 105.626 54.416 105.354 54.688C105.09 54.952 104.882 55.264 104.73 55.624C104.586 55.976 104.514 56.368 104.514 56.8C104.514 57.224 104.586 57.616 104.73 57.976C104.882 58.336 105.09 58.652 105.354 58.924C105.618 59.188 105.93 59.392 106.29 59.536C106.65 59.68 107.042 59.752 107.466 59.752ZM113.643 61V52.6H117.579C118.587 52.6 119.355 52.8 119.883 53.2C120.411 53.592 120.675 54.12 120.675 54.784C120.675 55.232 120.571 55.616 120.363 55.936C120.155 56.248 119.875 56.492 119.523 56.668C119.179 56.836 118.803 56.92 118.395 56.92L118.611 56.488C119.083 56.488 119.507 56.576 119.883 56.752C120.259 56.92 120.555 57.168 120.771 57.496C120.995 57.824 121.107 58.232 121.107 58.72C121.107 59.44 120.831 60 120.279 60.4C119.727 60.8 118.907 61 117.819 61H113.643ZM115.203 59.776H117.723C118.307 59.776 118.755 59.68 119.067 59.488C119.379 59.296 119.535 58.988 119.535 58.564C119.535 58.148 119.379 57.844 119.067 57.652C118.755 57.452 118.307 57.352 117.723 57.352H115.083V56.14H117.411C117.955 56.14 118.371 56.044 118.659 55.852C118.955 55.66 119.103 55.372 119.103 54.988C119.103 54.596 118.955 54.304 118.659 54.112C118.371 53.92 117.955 53.824 117.411 53.824H115.203V59.776ZM125.376 61.12C124.72 61.12 124.092 61.028 123.492 60.844C122.892 60.652 122.416 60.408 122.064 60.112L122.604 58.9C122.94 59.164 123.356 59.384 123.852 59.56C124.348 59.736 124.856 59.824 125.376 59.824C125.816 59.824 126.172 59.776 126.444 59.68C126.716 59.584 126.916 59.456 127.044 59.296C127.172 59.128 127.236 58.94 127.236 58.732C127.236 58.476 127.144 58.272 126.96 58.12C126.776 57.96 126.536 57.836 126.24 57.748C125.952 57.652 125.628 57.564 125.268 57.484C124.916 57.404 124.56 57.312 124.2 57.208C123.848 57.096 123.524 56.956 123.228 56.788C122.94 56.612 122.704 56.38 122.52 56.092C122.336 55.804 122.244 55.436 122.244 54.988C122.244 54.532 122.364 54.116 122.604 53.74C122.852 53.356 123.224 53.052 123.72 52.828C124.224 52.596 124.86 52.48 125.628 52.48C126.132 52.48 126.632 52.544 127.128 52.672C127.624 52.8 128.056 52.984 128.424 53.224L127.932 54.436C127.556 54.212 127.168 54.048 126.768 53.944C126.368 53.832 125.984 53.776 125.616 53.776C125.184 53.776 124.832 53.828 124.56 53.932C124.296 54.036 124.1 54.172 123.972 54.34C123.852 54.508 123.792 54.7 123.792 54.916C123.792 55.172 123.88 55.38 124.056 55.54C124.24 55.692 124.476 55.812 124.764 55.9C125.06 55.988 125.388 56.076 125.748 56.164C126.108 56.244 126.464 56.336 126.816 56.44C127.176 56.544 127.5 56.68 127.788 56.848C128.084 57.016 128.32 57.244 128.496 57.532C128.68 57.82 128.772 58.184 128.772 58.624C128.772 59.072 128.648 59.488 128.4 59.872C128.16 60.248 127.788 60.552 127.284 60.784C126.78 61.008 126.144 61.12 125.376 61.12Z" fill="black"/>
</svg>
