<svg width="130" height="40" viewBox="0 0 130 40" fill="none" xmlns="http://www.w3.org/2000/svg">
<path d="M84.214 9.5506C78.5787 9.57766 73.9881 14.2094 74.014 19.9765C74.0399 25.7435 78.6764 30.3318 84.3117 30.3059C89.9469 30.28 94.5387 25.6471 94.5117 19.8824C94.4846 14.1177 89.8493 9.5259 84.2117 9.55296L84.214 9.5506ZM84.2917 26.0765C82.694 26.0859 81.1587 25.4588 80.0234 24.3353C78.8881 23.2118 78.2587 21.6812 78.2411 20.0835C78.2234 18.4859 78.8587 16.9506 79.9822 15.8153C81.1058 14.68 82.6364 14.0506 84.234 14.033C85.8316 14.0153 87.3669 14.6506 88.5022 15.7741C89.6375 16.8977 90.2669 18.4282 90.2846 20.0259C90.3011 23.2318 87.4964 26.0612 84.2917 26.0777V26.0765ZM107.045 14.4388C104.098 14.453 101.802 16.8977 101.816 19.8447L101.863 29.7094L97.3787 29.7306L97.2881 10.1271L101.773 10.1059L101.788 13.18C101.788 13.18 103.694 10.0977 107.539 10.08L108.821 10.073L108.842 14.4282L107.045 14.4388ZM62.3081 10.2941L65.7034 23.7318L69.2281 10.2612L73.7128 10.2412L68.1646 29.8824L63.8093 29.9024L60.2869 16.2106L56.8917 29.9341L52.5352 29.9541L46.6787 10.3777L51.034 10.3577L54.9399 23.793L58.0811 10.3247L62.3081 10.2941ZM121.926 18.9835C124.99 17.1765 127.155 13.8341 127.138 9.9906L122.653 10.0118C122.669 13.3435 119.989 16.0471 116.787 16.0588L116.146 16.0612L116.075 0.558838L111.59 0.580014L111.728 29.6624L116.21 29.6424L116.168 20.4188L116.68 20.4165C117.193 20.4141 117.707 20.6682 117.838 21.0518L124.155 29.6047L129.408 29.5812L121.926 18.9835Z" fill="#4B4B4B"/>
<path d="M36.2973 9.77648C31.4303 9.80001 27.7291 13.02 26.3444 18.1506C24.0209 14.5741 22.2079 10.4835 21.1679 7.02942L16.0444 7.05295L16.1079 20.6329C16.1136 21.9241 15.6063 23.1647 14.6976 24.0819C13.7889 24.9992 12.5532 25.5182 11.262 25.5247C9.97088 25.5303 8.73033 25.0231 7.81304 24.1144C6.89576 23.2057 6.37681 21.97 6.37028 20.6788L6.30557 7.09883L1.17969 7.12236L1.24322 20.7024C1.27028 26.3377 5.77263 30.8035 11.2832 30.7765C16.7938 30.7494 21.2573 26.2447 21.2315 20.6082L21.2197 18.3024C22.2526 20.3459 23.5444 22.5177 24.9644 24.4341L21.8314 39.4377L27.0832 39.4141L29.342 28.5129C31.3973 29.7859 33.695 30.5424 36.3962 30.5294C42.0338 30.5024 46.6256 25.8706 46.5962 19.9765C46.5747 17.2609 45.4799 14.664 43.5506 12.7528C41.6213 10.8416 39.0142 9.77118 36.2985 9.7753L36.2973 9.77648ZM36.3703 25.2788C34.3209 25.2882 32.2679 24.4012 30.5962 22.9988L31.0985 20.9482V20.8306C31.475 18.6494 32.6067 14.9294 36.4515 14.9129C37.8071 14.9107 39.1087 15.444 40.0731 16.3967C41.0375 17.3494 41.5866 18.6445 41.6009 20C41.4856 22.9471 39.0632 25.2647 36.3714 25.2777L36.3703 25.2788Z" fill="#6FDA44"/>
</svg>
