<svg width="163" height="24" viewBox="0 0 163 24" fill="none" xmlns="http://www.w3.org/2000/svg">
<g clip-path="url(#clip0_3150_5369)">
<path fill-rule="evenodd" clip-rule="evenodd" d="M33.9366 -0.0686275H28.1384V22.0686H33.1457V9.21724L38.1658 22.0686H42.258L47.278 9.21724V22.0686H52.2853V-0.0686275H46.4871L40.2119 15.0566L33.9366 -0.0686275ZM64.5361 -0.0686275H59.5288V22.0686H64.5361V-0.0686275ZM81.1419 8.11107L81.1379 8.11012C79.449 7.70976 78.359 7.3667 77.6974 7.02414C77.0408 6.6841 76.947 6.42331 76.947 6.22409C76.947 5.68794 77.2398 5.2011 77.8728 4.82422C78.516 4.44125 79.4809 4.19748 80.6936 4.19748C82.9085 4.19748 84.579 5.41212 84.9922 7.1414L85.1106 7.63731L89.7681 6.42789L89.6404 5.94276C88.6182 2.05931 84.9875 -0.5 80.6936 -0.5C78.1475 -0.5 75.9766 0.143444 74.4293 1.31535C72.8707 2.49575 71.9695 4.19672 71.9695 6.22409C71.9695 7.06587 72.1099 7.82986 72.4377 8.5222C72.7663 9.21627 73.2703 9.81112 73.9584 10.3318C75.3155 11.3588 77.4164 12.1166 80.4007 12.8119L80.4037 12.8126C82.375 13.2588 83.6397 13.6695 84.4053 14.1133C84.7819 14.3315 85.0103 14.5425 85.1456 14.7441C85.2758 14.9381 85.3373 15.1492 85.3373 15.4062C85.3373 16.0361 84.9703 16.617 84.1748 17.066C83.3721 17.5189 82.1789 17.8025 80.6936 17.8025C79.1562 17.8025 77.8975 17.4207 77.0266 16.7949C76.1653 16.1761 75.6694 15.3126 75.6308 14.2783L75.6128 13.7969H70.8233L70.8332 14.3066C70.8809 16.7618 71.9105 18.8259 73.6661 20.268C75.4144 21.7041 77.8518 22.5 80.6936 22.5C83.5045 22.5 85.8962 21.8202 87.5996 20.5871C89.3152 19.3452 90.3148 17.5511 90.3148 15.4062C90.3148 13.5407 89.6862 12.0868 88.1695 10.9127C86.6977 9.77337 84.4106 8.91443 81.1419 8.11107ZM139.197 -0.0686275H124.291V22.0686H129.298V13.0714H138.12V8.37395H129.298V4.62885H139.197V-0.0686275ZM150.571 4.62885V22.0686H155.579V4.62885H161.5V-0.0686275H144.65V4.62885H150.571ZM10.6763 22.5C13.9947 22.5 16.7989 21.3551 18.7732 19.3209C20.7462 17.2881 21.8526 14.4064 21.8526 11C21.8526 7.59357 20.7462 4.7119 18.7732 2.67908C18.5264 2.42481 18.2666 2.18443 17.9945 1.95845C16.0898 0.376583 13.5799 -0.5 10.6763 -0.5C7.35791 -0.5 4.55373 0.644925 2.57944 2.67908C0.60643 4.7119 -0.5 7.59357 -0.5 11C-0.5 14.4064 0.60643 17.2881 2.57944 19.3209C4.55373 21.3551 7.35791 22.5 10.6763 22.5ZM10.6763 17.8025C8.80084 17.8025 7.27204 17.1211 6.20849 15.9551C5.1411 14.7848 4.50735 13.0871 4.50735 11C4.50735 8.91293 5.1411 7.21518 6.20849 6.04493C7.27204 4.8789 8.80084 4.19748 10.6763 4.19748C12.5518 4.19748 14.0806 4.8789 15.1441 6.04493C16.2115 7.21518 16.8453 8.91293 16.8453 11C16.8453 13.0871 16.2115 14.7848 15.1441 15.9551C15.1275 15.9733 15.1108 15.9914 15.0939 16.0094C14.0327 17.1422 12.5225 17.8025 10.6763 17.8025ZM106.829 22.5C110.147 22.5 112.951 21.3551 114.926 19.3209C116.899 17.2881 118.005 14.4064 118.005 11C118.005 7.59357 116.899 4.7119 114.926 2.67908C112.951 0.644924 110.147 -0.5 106.829 -0.5C103.51 -0.5 100.706 0.644925 98.7319 2.67908C96.7589 4.7119 95.6524 7.59357 95.6524 11C95.6524 14.4064 96.7589 17.2881 98.7319 19.3209C100.706 21.3551 103.51 22.5 106.829 22.5ZM106.829 17.8025C104.953 17.8025 103.424 17.1211 102.361 15.9551C101.294 14.7848 100.66 13.0871 100.66 11C100.66 8.91293 101.294 7.21518 102.361 6.04493C103.424 4.8789 104.953 4.19748 106.829 4.19748C108.704 4.19748 110.233 4.8789 111.297 6.04493C112.364 7.21518 112.998 8.91293 112.998 11C112.998 13.0871 112.364 14.7848 111.297 15.9551C110.233 17.1211 108.704 17.8025 106.829 17.8025Z" fill="white"/>
</g>
<defs>
<clipPath id="clip0_3150_5369">
<rect width="163" height="24" fill="white"/>
</clipPath>
</defs>
</svg>
