<svg width="30" height="30" viewBox="0 0 30 30" fill="none" xmlns="http://www.w3.org/2000/svg">
<rect width="30" height="30" rx="15" fill="black"/>
<path d="M20.7134 8.57153H9.28488C7.71345 8.57153 6.42773 9.85725 6.42773 11.4287V18.5715C6.42773 20.143 7.71345 21.4287 9.28488 21.4287H20.7134C22.2849 21.4287 23.5706 20.143 23.5706 18.5715V11.4287C23.5706 9.85725 22.2849 8.57153 20.7134 8.57153ZM21.8563 12.7144L16.2134 16.5001C15.8563 16.7144 15.4277 16.8572 14.9992 16.8572C14.5706 16.8572 14.142 16.7144 13.7849 16.5001L8.14202 12.7144C7.85631 12.5001 7.78488 12.0715 7.99916 11.7144C8.21345 11.4287 8.64202 11.3572 8.99916 11.5715L14.642 15.3572C14.8563 15.5001 15.2134 15.5001 15.4277 15.3572L21.0706 11.5715C21.4277 11.3572 21.8563 11.4287 22.0706 11.7858C22.2134 12.0715 22.142 12.5001 21.8563 12.7144Z" fill="white"/>
</svg>
