<svg width="26" height="24" viewBox="0 0 26 24" fill="none" xmlns="http://www.w3.org/2000/svg">
<path d="M21 6.88443V3.04789C21 2.70872 20.8595 2.38344 20.6095 2.14361C20.3594 1.90378 20.0203 1.76904 19.6667 1.76904H2.33333C1.97971 1.76904 1.64057 1.90378 1.39052 2.14361C1.14048 2.38344 1 2.70872 1 3.04789V18.394C1 18.7332 1.14048 19.0585 1.39052 19.2983C1.64057 19.5382 1.97971 19.6729 2.33333 19.6729H14.3333" fill="#FFE9EE"/>
<path d="M21 6.88443V3.04789C21 2.70872 20.8595 2.38344 20.6095 2.14361C20.3594 1.90378 20.0203 1.76904 19.6667 1.76904H2.33333C1.97971 1.76904 1.64057 1.90378 1.39052 2.14361C1.14048 2.38344 1 2.70872 1 3.04789V18.394C1 18.7332 1.14048 19.0585 1.39052 19.2983C1.64057 19.5382 1.97971 19.6729 2.33333 19.6729H14.3333" stroke="#FF4471" stroke-width="2" stroke-linecap="round" stroke-linejoin="round"/>
<path d="M23.6668 6.88477H15.6668C14.9304 6.88477 14.3335 7.45732 14.3335 8.16361V20.9521C14.3335 21.6584 14.9304 22.2309 15.6668 22.2309H23.6668C24.4032 22.2309 25.0002 21.6584 25.0002 20.9521V8.16361C25.0002 7.45732 24.4032 6.88477 23.6668 6.88477Z" fill="#FFE9EE" stroke="#FF4471" stroke-width="2" stroke-linecap="round" stroke-linejoin="round"/>
<path d="M18.3334 8.71143H21" stroke="#FF4471" stroke-width="2" stroke-linecap="round" stroke-linejoin="round"/>
</svg>
