<svg width="26" height="24" viewBox="0 0 26 24" fill="none" xmlns="http://www.w3.org/2000/svg">
<path d="M25.1876 12.0023C25.1876 10.3446 23.1655 8.77349 20.0652 7.79922C20.7806 4.55507 20.4627 1.97402 19.0616 1.14768C18.7386 0.95385 18.361 0.862034 17.9487 0.862034V1.99953C18.1772 1.99953 18.361 2.04544 18.5151 2.13215C19.1908 2.53002 19.4839 4.04498 19.2553 5.99351C19.2007 6.47299 19.1113 6.97798 19.002 7.49317C18.0281 7.24833 16.9649 7.05959 15.847 6.93717C15.1763 5.99351 14.4807 5.13657 13.7802 4.38674C15.3999 2.84117 16.9202 1.99443 17.9536 1.99443V0.856934C16.5873 0.856934 14.7987 1.8567 12.9902 3.591C11.1817 1.86691 9.39306 0.877337 8.02675 0.877337V2.01483C9.05521 2.01483 10.5805 2.85648 12.2002 4.39184C11.5046 5.14167 10.8091 5.99351 10.1483 6.93717C9.0254 7.05959 7.96216 7.24833 6.98835 7.49827C6.87408 6.98818 6.78961 6.4934 6.72999 6.01902C6.49648 4.07048 6.78465 2.55552 7.45538 2.15256C7.60443 2.06074 7.7982 2.01993 8.02675 2.01993V0.882438C7.6094 0.882438 7.2318 0.974254 6.90389 1.16809C5.50777 1.99443 5.19476 4.57037 5.91517 7.80432C2.82483 8.78369 0.812622 10.3497 0.812622 12.0023C0.812622 13.6601 2.83476 15.2312 5.93505 16.2055C5.2196 19.4496 5.53758 22.0307 6.93867 22.857C7.26161 23.0508 7.63921 23.1426 8.05656 23.1426C9.42287 23.1426 11.2115 22.1429 13.02 20.4086C14.8285 22.1327 16.6171 23.1222 17.9834 23.1222C18.4008 23.1222 18.7784 23.0304 19.1063 22.8366C20.5024 22.0103 20.8154 19.4343 20.095 16.2004C23.1754 15.2261 25.1876 13.655 25.1876 12.0023ZM18.7188 8.60006C18.5349 9.25807 18.3064 9.93649 18.048 10.6149C17.8443 10.2068 17.6307 9.79876 17.3972 9.39069C17.1686 8.98262 16.9252 8.58475 16.6817 8.19709C17.3872 8.30421 18.0679 8.43683 18.7188 8.60006ZM16.4432 14.0325C16.0557 14.7211 15.6582 15.374 15.2458 15.981C14.5055 16.0473 13.7553 16.083 13.0001 16.083C12.2499 16.083 11.4997 16.0473 10.7643 15.9861C10.352 15.3791 9.94952 14.7313 9.56199 14.0478C9.18439 13.3796 8.84157 12.7012 8.52856 12.0176C8.8366 11.3341 9.18439 10.6506 9.55702 9.98239C9.94455 9.29378 10.342 8.64086 10.7544 8.03386C11.4947 7.96755 12.2449 7.93184 13.0001 7.93184C13.7504 7.93184 14.5006 7.96755 15.2359 8.02876C15.6483 8.63576 16.0507 9.28358 16.4383 9.96709C16.8159 10.6353 17.1587 11.3137 17.4717 11.9972C17.1587 12.6808 16.8159 13.3643 16.4432 14.0325ZM18.048 13.3694C18.3163 14.0529 18.5449 14.7364 18.7337 15.3995C18.0828 15.5627 17.3972 15.7005 16.6867 15.8076C16.9301 15.4148 17.1736 15.0119 17.4021 14.5987C17.6307 14.1906 17.8443 13.7774 18.048 13.3694ZM13.0101 18.812C12.548 18.3223 12.0859 17.7765 11.6288 17.1797C12.076 17.2001 12.5331 17.2154 12.9952 17.2154C13.4622 17.2154 13.9242 17.2052 14.3764 17.1797C13.9292 17.7765 13.4672 18.3223 13.0101 18.812ZM9.31356 15.8076C8.60805 15.7005 7.92738 15.5679 7.27652 15.4046C7.46035 14.7466 7.6889 14.0682 7.94725 13.3898C8.15096 13.7978 8.3646 14.2059 8.59811 14.614C8.83163 15.0221 9.07011 15.4199 9.31356 15.8076ZM12.9852 5.19268C13.4473 5.68236 13.9093 6.22815 14.3664 6.82495C13.9193 6.80455 13.4622 6.78925 13.0001 6.78925C12.5331 6.78925 12.071 6.79945 11.6189 6.82495C12.0661 6.22815 12.5281 5.68236 12.9852 5.19268ZM9.3086 8.19709C9.06515 8.58986 8.82169 8.99283 8.59315 9.406C8.3646 9.81407 8.15096 10.2221 7.94725 10.6302C7.67896 9.94669 7.45041 9.26317 7.26161 8.60006C7.91247 8.44193 8.59812 8.30421 9.3086 8.19709ZM4.81219 14.5834C3.05337 13.8131 1.91561 12.8032 1.91561 12.0023C1.91561 11.2015 3.05337 10.1864 4.81219 9.4213C5.23947 9.23257 5.7065 9.06424 6.18844 8.90611C6.47164 9.90588 6.84427 10.9465 7.30633 12.0125C6.84924 13.0735 6.48157 14.109 6.20334 15.1037C5.71147 14.9455 5.24444 14.7721 4.81219 14.5834ZM7.48519 21.8725C6.80949 21.4747 6.51635 19.9597 6.7449 18.0112C6.79955 17.5317 6.88898 17.0267 6.99829 16.5115C7.9721 16.7564 9.03534 16.9451 10.1532 17.0675C10.824 18.0112 11.5195 18.8681 12.2201 19.6179C10.6004 21.1635 9.08005 22.0103 8.04662 22.0103C7.82304 22.0052 7.63424 21.9592 7.48519 21.8725ZM19.2703 17.9857C19.5038 19.9342 19.2156 21.4492 18.5449 21.8521C18.3958 21.9439 18.202 21.9847 17.9735 21.9847C16.945 21.9847 15.4197 21.1431 13.8 19.6077C14.4956 18.8579 15.1912 18.0061 15.852 17.0624C16.9748 16.94 18.0381 16.7513 19.0119 16.5013C19.1262 17.0165 19.2156 17.5113 19.2703 17.9857ZM21.1831 14.5834C20.7558 14.7721 20.2888 14.9404 19.8068 15.0986C19.5236 14.0988 19.151 13.0582 18.6889 11.9921C19.146 10.9312 19.5137 9.89568 19.7919 8.90101C20.2838 9.05914 20.7508 9.23257 21.1881 9.4213C22.9469 10.1915 24.0846 11.2015 24.0846 12.0023C24.0797 12.8032 22.9419 13.8183 21.1831 14.5834Z" fill="#6ADAFD" stroke="#6ADAFD" stroke-width="0.6"/>
<path d="M12.9998 13.9361C13.9741 13.9361 14.7639 13.1028 14.7639 12.075C14.7639 11.0471 13.9741 10.2139 12.9998 10.2139C12.0254 10.2139 11.2356 11.0471 11.2356 12.075C11.2356 13.1028 12.0254 13.9361 12.9998 13.9361Z" fill="#6ADAFD"/>
</svg>
