<svg width="254" height="69" viewBox="0 0 254 69" fill="none" xmlns="http://www.w3.org/2000/svg">
<path d="M208.56 52.7696C207.643 52.7696 207.184 53.2656 207.184 54.2576V54.9936H209.648V56.2576H207.216V63.4736H205.68V56.2576H204.24V54.9936H205.68V54.2416C205.68 53.399 205.925 52.7323 206.416 52.2416C206.907 51.751 207.595 51.5056 208.48 51.5056C208.821 51.5056 209.141 51.5483 209.44 51.6336C209.739 51.719 209.995 51.8416 210.208 52.0016L209.744 53.1696C209.392 52.903 208.997 52.7696 208.56 52.7696ZM214.028 54.9136C215.202 54.9136 216.098 55.2016 216.716 55.7776C217.346 56.3536 217.66 57.2123 217.66 58.3536V63.4736H216.204V62.3536C215.948 62.7483 215.58 63.0523 215.1 63.2656C214.631 63.4683 214.071 63.5696 213.42 63.5696C212.471 63.5696 211.708 63.3403 211.132 62.8816C210.567 62.423 210.284 61.8203 210.284 61.0736C210.284 60.327 210.556 59.7296 211.1 59.2816C211.644 58.823 212.508 58.5936 213.692 58.5936H216.124V58.2896C216.124 57.6283 215.932 57.1216 215.548 56.7696C215.164 56.4176 214.599 56.2416 213.852 56.2416C213.351 56.2416 212.86 56.327 212.38 56.4976C211.9 56.6576 211.495 56.8763 211.164 57.1536L210.524 56.0016C210.962 55.6496 211.484 55.383 212.092 55.2016C212.7 55.0096 213.346 54.9136 214.028 54.9136ZM213.676 62.3856C214.263 62.3856 214.77 62.2576 215.196 62.0016C215.623 61.735 215.932 61.3616 216.124 60.8816V59.6976H213.756C212.455 59.6976 211.804 60.135 211.804 61.0096C211.804 61.4363 211.97 61.7723 212.3 62.0176C212.631 62.263 213.09 62.3856 213.676 62.3856ZM231.111 54.9136C232.178 54.9136 233.02 55.223 233.639 55.8416C234.268 56.4603 234.583 57.3776 234.583 58.5936V63.4736H233.047V58.7696C233.047 57.9483 232.855 57.3296 232.471 56.9136C232.098 56.4976 231.559 56.2896 230.855 56.2896C230.076 56.2896 229.458 56.535 228.999 57.0256C228.54 57.5056 228.311 58.199 228.311 59.1056V63.4736H226.775V58.7696C226.775 57.9483 226.583 57.3296 226.199 56.9136C225.826 56.4976 225.287 56.2896 224.583 56.2896C223.804 56.2896 223.186 56.535 222.727 57.0256C222.268 57.5056 222.039 58.199 222.039 59.1056V63.4736H220.503V54.9936H221.975V56.2576C222.284 55.8203 222.69 55.4896 223.191 55.2656C223.692 55.031 224.263 54.9136 224.903 54.9136C225.564 54.9136 226.151 55.047 226.663 55.3136C227.175 55.5803 227.57 55.9696 227.847 56.4816C228.167 55.991 228.61 55.607 229.175 55.3296C229.751 55.0523 230.396 54.9136 231.111 54.9136ZM237.409 54.9936H238.945V63.4736H237.409V54.9936ZM238.177 53.3616C237.878 53.3616 237.628 53.2656 237.425 53.0736C237.233 52.8816 237.137 52.647 237.137 52.3696C237.137 52.0923 237.233 51.8576 237.425 51.6656C237.628 51.463 237.878 51.3616 238.177 51.3616C238.476 51.3616 238.721 51.4576 238.913 51.6496C239.116 51.831 239.217 52.0603 239.217 52.3376C239.217 52.6256 239.116 52.871 238.913 53.0736C238.721 53.2656 238.476 53.3616 238.177 53.3616ZM241.878 51.6016H243.414V63.4736H241.878V51.6016ZM253.851 54.9936L249.739 64.3216C249.376 65.1856 248.949 65.7936 248.459 66.1456C247.979 66.4976 247.397 66.6736 246.715 66.6736C246.299 66.6736 245.893 66.6043 245.499 66.4656C245.115 66.3376 244.795 66.1456 244.539 65.8896L245.195 64.7376C245.632 65.1536 246.139 65.3616 246.715 65.3616C247.088 65.3616 247.397 65.2603 247.643 65.0576C247.899 64.8656 248.128 64.5296 248.331 64.0496L248.603 63.4576L244.859 54.9936H246.459L249.419 61.7776L252.347 54.9936H253.851Z" fill="black"/>
<path d="M17.6466 4.8L13.9026 16H12.2226L9.16658 7.056L6.11058 16H4.39858L0.654578 4.8H2.30258L5.32658 13.904L8.47858 4.8H9.95058L13.0386 13.952L16.1266 4.8H17.6466ZM26.4032 11.808C26.4032 11.9253 26.3925 12.08 26.3712 12.272H19.4912C19.5872 13.0187 19.9125 13.6213 20.4672 14.08C21.0325 14.528 21.7312 14.752 22.5632 14.752C23.5765 14.752 24.3925 14.4107 25.0112 13.728L25.8592 14.72C25.4752 15.168 24.9952 15.5093 24.4192 15.744C23.8539 15.9787 23.2192 16.096 22.5152 16.096C21.6192 16.096 20.8245 15.9147 20.1312 15.552C19.4379 15.1787 18.8992 14.6613 18.5152 14C18.1419 13.3387 17.9552 12.592 17.9552 11.76C17.9552 10.9387 18.1365 10.1973 18.4992 9.536C18.8725 8.87467 19.3792 8.36267 20.0192 8C20.6699 7.62667 21.4005 7.44 22.2112 7.44C23.0219 7.44 23.7419 7.62667 24.3712 8C25.0112 8.36267 25.5072 8.87467 25.8592 9.536C26.2219 10.1973 26.4032 10.9547 26.4032 11.808ZM22.2112 8.736C21.4752 8.736 20.8565 8.96 20.3552 9.408C19.8645 9.856 19.5765 10.4427 19.4912 11.168H24.9312C24.8459 10.4533 24.5525 9.872 24.0512 9.424C23.5605 8.96533 22.9472 8.736 22.2112 8.736ZM28.8888 4.032C29.1875 4.032 29.4328 4.13867 29.6248 4.352C29.8275 4.55467 29.9288 4.81067 29.9288 5.12C29.9288 5.28 29.9128 5.44 29.8808 5.6C29.8488 5.74933 29.7795 5.968 29.6728 6.256L28.9048 8.496H27.8968L28.4888 6.112C28.2862 6.03733 28.1208 5.91467 27.9928 5.744C27.8755 5.56267 27.8168 5.35467 27.8168 5.12C27.8168 4.8 27.9182 4.53867 28.1208 4.336C28.3235 4.13333 28.5795 4.032 28.8888 4.032ZM33.6018 8.944C33.8685 8.45333 34.2632 8.08 34.7858 7.824C35.3085 7.568 35.9432 7.44 36.6898 7.44V8.928C36.6045 8.91733 36.4872 8.912 36.3378 8.912C35.5058 8.912 34.8498 9.16267 34.3698 9.664C33.9005 10.1547 33.6658 10.8587 33.6658 11.776V16H32.1298V7.52H33.6018V8.944ZM46.1688 11.808C46.1688 11.9253 46.1582 12.08 46.1368 12.272H39.2568C39.3528 13.0187 39.6782 13.6213 40.2328 14.08C40.7982 14.528 41.4968 14.752 42.3288 14.752C43.3422 14.752 44.1582 14.4107 44.7768 13.728L45.6248 14.72C45.2408 15.168 44.7608 15.5093 44.1848 15.744C43.6195 15.9787 42.9848 16.096 42.2808 16.096C41.3848 16.096 40.5902 15.9147 39.8968 15.552C39.2035 15.1787 38.6648 14.6613 38.2808 14C37.9075 13.3387 37.7208 12.592 37.7208 11.76C37.7208 10.9387 37.9022 10.1973 38.2648 9.536C38.6382 8.87467 39.1448 8.36267 39.7848 8C40.4355 7.62667 41.1662 7.44 41.9768 7.44C42.7875 7.44 43.5075 7.62667 44.1368 8C44.7768 8.36267 45.2728 8.87467 45.6248 9.536C45.9875 10.1973 46.1688 10.9547 46.1688 11.808ZM41.9768 8.736C41.2408 8.736 40.6222 8.96 40.1208 9.408C39.6302 9.856 39.3422 10.4427 39.2568 11.168H44.6968C44.6115 10.4533 44.3182 9.872 43.8168 9.424C43.3262 8.96533 42.7128 8.736 41.9768 8.736ZM55.6866 7.44C56.8599 7.44 57.7559 7.728 58.3746 8.304C59.0039 8.88 59.3186 9.73867 59.3186 10.88V16H57.8626V14.88C57.6066 15.2747 57.2386 15.5787 56.7586 15.792C56.2892 15.9947 55.7292 16.096 55.0786 16.096C54.1292 16.096 53.3666 15.8667 52.7906 15.408C52.2252 14.9493 51.9426 14.3467 51.9426 13.6C51.9426 12.8533 52.2146 12.256 52.7586 11.808C53.3026 11.3493 54.1666 11.12 55.3506 11.12H57.7826V10.816C57.7826 10.1547 57.5906 9.648 57.2066 9.296C56.8226 8.944 56.2572 8.768 55.5106 8.768C55.0092 8.768 54.5186 8.85333 54.0386 9.024C53.5586 9.184 53.1532 9.40267 52.8226 9.68L52.1826 8.528C52.6199 8.176 53.1426 7.90933 53.7506 7.728C54.3586 7.536 55.0039 7.44 55.6866 7.44ZM55.3346 14.912C55.9212 14.912 56.4279 14.784 56.8546 14.528C57.2812 14.2613 57.5906 13.888 57.7826 13.408V12.224H55.4146C54.1132 12.224 53.4626 12.6613 53.4626 13.536C53.4626 13.9627 53.6279 14.2987 53.9586 14.544C54.2892 14.7893 54.7479 14.912 55.3346 14.912ZM70.954 7.44C71.7753 7.44 72.5113 7.62133 73.162 7.984C73.8126 8.34667 74.3193 8.85333 74.682 9.504C75.0553 10.1547 75.242 10.9067 75.242 11.76C75.242 12.6133 75.0553 13.3707 74.682 14.032C74.3193 14.6827 73.8126 15.1893 73.162 15.552C72.5113 15.9147 71.7753 16.096 70.954 16.096C70.346 16.096 69.786 15.9787 69.274 15.744C68.7726 15.5093 68.346 15.168 67.994 14.72V19.104H66.458V7.52H67.93V8.864C68.2713 8.39467 68.7033 8.04267 69.226 7.808C69.7486 7.56267 70.3246 7.44 70.954 7.44ZM70.826 14.752C71.37 14.752 71.8553 14.6293 72.282 14.384C72.7193 14.128 73.0606 13.776 73.306 13.328C73.562 12.8693 73.69 12.3467 73.69 11.76C73.69 11.1733 73.562 10.656 73.306 10.208C73.0606 9.74933 72.7193 9.39733 72.282 9.152C71.8553 8.90667 71.37 8.784 70.826 8.784C70.2926 8.784 69.8073 8.912 69.37 9.168C68.9433 9.41333 68.602 9.76 68.346 10.208C68.1006 10.656 67.978 11.1733 67.978 11.76C67.978 12.3467 68.1006 12.8693 68.346 13.328C68.5913 13.776 68.9326 14.128 69.37 14.384C69.8073 14.6293 70.2926 14.752 70.826 14.752ZM80.3741 7.44C81.5474 7.44 82.4434 7.728 83.0621 8.304C83.6914 8.88 84.0061 9.73867 84.0061 10.88V16H82.5501V14.88C82.2941 15.2747 81.9261 15.5787 81.4461 15.792C80.9767 15.9947 80.4167 16.096 79.7661 16.096C78.8167 16.096 78.0541 15.8667 77.4781 15.408C76.9127 14.9493 76.6301 14.3467 76.6301 13.6C76.6301 12.8533 76.9021 12.256 77.4461 11.808C77.9901 11.3493 78.8541 11.12 80.0381 11.12H82.4701V10.816C82.4701 10.1547 82.2781 9.648 81.8941 9.296C81.5101 8.944 80.9447 8.768 80.1981 8.768C79.6967 8.768 79.2061 8.85333 78.7261 9.024C78.2461 9.184 77.8407 9.40267 77.5101 9.68L76.8701 8.528C77.3074 8.176 77.8301 7.90933 78.4381 7.728C79.0461 7.536 79.6914 7.44 80.3741 7.44ZM80.0221 14.912C80.6087 14.912 81.1154 14.784 81.5421 14.528C81.9687 14.2613 82.2781 13.888 82.4701 13.408V12.224H80.1021C78.8007 12.224 78.1501 12.6613 78.1501 13.536C78.1501 13.9627 78.3154 14.2987 78.6461 14.544C78.9767 14.7893 79.4354 14.912 80.0221 14.912ZM88.3206 8.944C88.5872 8.45333 88.9819 8.08 89.5046 7.824C90.0272 7.568 90.6619 7.44 91.4086 7.44V8.928C91.3232 8.91733 91.2059 8.912 91.0566 8.912C90.2246 8.912 89.5686 9.16267 89.0886 9.664C88.6192 10.1547 88.3846 10.8587 88.3846 11.776V16H86.8486V7.52H88.3206V8.944ZM98.4135 15.504C98.1895 15.696 97.9121 15.8453 97.5815 15.952C97.2508 16.048 96.9095 16.096 96.5575 16.096C95.7041 16.096 95.0428 15.8667 94.5735 15.408C94.1041 14.9493 93.8695 14.2933 93.8695 13.44V8.784H92.4295V7.52H93.8695V5.664H95.4055V7.52H97.8375V8.784H95.4055V13.376C95.4055 13.8347 95.5175 14.1867 95.7415 14.432C95.9761 14.6773 96.3068 14.8 96.7335 14.8C97.2028 14.8 97.6028 14.6667 97.9335 14.4L98.4135 15.504ZM108.199 16.096C107.357 16.096 106.599 15.9093 105.927 15.536C105.255 15.1627 104.727 14.6507 104.343 14C103.97 13.3387 103.783 12.592 103.783 11.76C103.783 10.928 103.97 10.1867 104.343 9.536C104.727 8.87467 105.255 8.36267 105.927 8C106.599 7.62667 107.357 7.44 108.199 7.44C109.042 7.44 109.794 7.62667 110.455 8C111.127 8.36267 111.65 8.87467 112.023 9.536C112.407 10.1867 112.599 10.928 112.599 11.76C112.599 12.592 112.407 13.3387 112.023 14C111.65 14.6507 111.127 15.1627 110.455 15.536C109.794 15.9093 109.042 16.096 108.199 16.096ZM108.199 14.752C108.743 14.752 109.229 14.6293 109.655 14.384C110.093 14.128 110.434 13.776 110.679 13.328C110.925 12.8693 111.047 12.3467 111.047 11.76C111.047 11.1733 110.925 10.656 110.679 10.208C110.434 9.74933 110.093 9.39733 109.655 9.152C109.229 8.90667 108.743 8.784 108.199 8.784C107.655 8.784 107.165 8.90667 106.727 9.152C106.301 9.39733 105.959 9.74933 105.703 10.208C105.458 10.656 105.335 11.1733 105.335 11.76C105.335 12.3467 105.458 12.8693 105.703 13.328C105.959 13.776 106.301 14.128 106.727 14.384C107.165 14.6293 107.655 14.752 108.199 14.752ZM117.828 5.296C116.91 5.296 116.452 5.792 116.452 6.784V7.52H118.916V8.784H116.484V16H114.948V8.784H113.508V7.52H114.948V6.768C114.948 5.92533 115.193 5.25867 115.684 4.768C116.174 4.27733 116.862 4.032 117.748 4.032C118.089 4.032 118.409 4.07467 118.708 4.16C119.006 4.24533 119.262 4.368 119.476 4.528L119.012 5.696C118.66 5.42933 118.265 5.296 117.828 5.296ZM129.429 15.504C129.205 15.696 128.928 15.8453 128.597 15.952C128.266 16.048 127.925 16.096 127.573 16.096C126.72 16.096 126.058 15.8667 125.589 15.408C125.12 14.9493 124.885 14.2933 124.885 13.44V8.784H123.445V7.52H124.885V5.664H126.421V7.52H128.853V8.784H126.421V13.376C126.421 13.8347 126.533 14.1867 126.757 14.432C126.992 14.6773 127.322 14.8 127.749 14.8C128.218 14.8 128.618 14.6667 128.949 14.4L129.429 15.504ZM135.814 7.44C136.891 7.44 137.745 7.75467 138.374 8.384C139.014 9.00267 139.334 9.91467 139.334 11.12V16H137.798V11.296C137.798 10.4747 137.601 9.856 137.206 9.44C136.811 9.024 136.246 8.816 135.51 8.816C134.678 8.816 134.022 9.06133 133.542 9.552C133.062 10.032 132.822 10.7253 132.822 11.632V16H131.286V4.128H132.822V8.72C133.142 8.31467 133.558 8 134.07 7.776C134.593 7.552 135.174 7.44 135.814 7.44ZM149.888 11.808C149.888 11.9253 149.877 12.08 149.856 12.272H142.976C143.072 13.0187 143.397 13.6213 143.952 14.08C144.517 14.528 145.216 14.752 146.048 14.752C147.061 14.752 147.877 14.4107 148.496 13.728L149.344 14.72C148.96 15.168 148.48 15.5093 147.904 15.744C147.338 15.9787 146.704 16.096 146 16.096C145.104 16.096 144.309 15.9147 143.616 15.552C142.922 15.1787 142.384 14.6613 142 14C141.626 13.3387 141.44 12.592 141.44 11.76C141.44 10.9387 141.621 10.1973 141.984 9.536C142.357 8.87467 142.864 8.36267 143.504 8C144.154 7.62667 144.885 7.44 145.696 7.44C146.506 7.44 147.226 7.62667 147.856 8C148.496 8.36267 148.992 8.87467 149.344 9.536C149.706 10.1973 149.888 10.9547 149.888 11.808ZM145.696 8.736C144.96 8.736 144.341 8.96 143.84 9.408C143.349 9.856 143.061 10.4427 142.976 11.168H148.416C148.33 10.4533 148.037 9.872 147.536 9.424C147.045 8.96533 146.432 8.736 145.696 8.736Z" fill="black"/>
<path fill-rule="evenodd" clip-rule="evenodd" d="M39.3257 39.4876H32.7043V64.5124H38.4226V49.9847L44.1553 64.5124H48.8285L54.5613 49.9847V64.5124H60.2795V39.4876H53.6581L46.4919 56.5857L39.3257 39.4876ZM74.2696 39.4876H68.5514V64.5124H74.2696V39.4876ZM93.233 48.7343L93.2284 48.7332C91.2998 48.2806 90.055 47.8928 89.2995 47.5055C88.5496 47.1212 88.4425 46.8263 88.4425 46.6011C88.4425 45.9951 88.777 45.4447 89.4998 45.0187C90.2344 44.5858 91.3363 44.3102 92.721 44.3102C95.2504 44.3102 97.1581 45.6833 97.6299 47.6381L97.7652 48.1987L103.084 46.8315L102.938 46.2831C101.771 41.8931 97.6246 39 92.721 39C89.8135 39 87.3344 39.7274 85.5674 41.0521C83.7875 42.3865 82.7584 44.3093 82.7584 46.6011C82.7584 47.5527 82.9187 48.4164 83.293 49.199C83.6683 49.9836 84.2439 50.6561 85.0296 51.2447C86.5794 52.4056 88.9786 53.2622 92.3866 54.0482L92.3901 54.049C94.6412 54.5534 96.0854 55.0177 96.9598 55.5194C97.3898 55.766 97.6506 56.0046 97.8051 56.2324C97.9539 56.4518 98.0241 56.6904 98.0241 56.9809C98.0241 57.693 97.605 58.3497 96.6966 58.8572C95.7799 59.3692 94.4173 59.6898 92.721 59.6898C90.9654 59.6898 89.5281 59.2582 88.5334 58.5508C87.5499 57.8513 86.9836 56.8751 86.9395 55.7059L86.9189 55.1617H81.4494L81.4607 55.7379C81.5152 58.5133 82.691 60.8467 84.6959 62.4769C86.6924 64.1003 89.4759 65 92.721 65C95.931 65 98.6623 64.2315 100.608 62.8376C102.567 61.4338 103.708 59.4056 103.708 56.9809C103.708 54.8721 102.99 53.2286 101.258 51.9014C99.5776 50.6134 96.9658 49.6424 93.233 48.7343ZM159.53 39.4876H142.508V64.5124H148.226V54.3416H158.301V49.0314H148.226V44.7978H159.53V39.4876ZM172.52 44.7978V64.5124H178.238V44.7978H185V39.4876H165.758V44.7978H172.52ZM12.7631 65C16.5526 65 19.7549 63.7057 22.0095 61.4063C24.2626 59.1083 25.5261 55.8507 25.5261 52C25.5261 48.1493 24.2626 44.8917 22.0095 42.5937C21.7277 42.3063 21.431 42.0346 21.1203 41.7791C18.9452 39.9909 16.0789 39 12.7631 39C8.97354 39 5.77123 40.2943 3.51664 42.5937C1.26352 44.8917 0 48.1493 0 52C0 55.8507 1.26352 59.1083 3.51664 61.4063C5.77123 63.7057 8.97354 65 12.7631 65ZM12.7631 59.6898C10.6213 59.6898 8.87547 58.9195 7.66093 57.6014C6.442 56.2785 5.71828 54.3593 5.71828 52C5.71828 49.6407 6.442 47.7215 7.66093 46.3986C8.87547 45.0805 10.6213 44.3102 12.7631 44.3102C14.9048 44.3102 16.6507 45.0805 17.8652 46.3986C19.0841 47.7215 19.8079 49.6407 19.8079 52C19.8079 54.3593 19.0841 56.2785 17.8652 57.6014C17.8462 57.622 17.8271 57.6424 17.8079 57.6628C16.596 58.9434 14.8714 59.6898 12.7631 59.6898ZM122.567 65C126.356 65 129.559 63.7057 131.813 61.4063C134.066 59.1083 135.33 55.8507 135.33 52C135.33 48.1493 134.066 44.8917 131.813 42.5937C129.559 40.2943 126.356 39 122.567 39C118.777 39 115.575 40.2943 113.32 42.5937C111.067 44.8917 109.804 48.1493 109.804 52C109.804 55.8507 111.067 59.1083 113.32 61.4063C115.575 63.7057 118.777 65 122.567 65ZM122.567 59.6898C120.425 59.6898 118.679 58.9195 117.465 57.6014C116.246 56.2785 115.522 54.3593 115.522 52C115.522 49.6407 116.246 47.7215 117.465 46.3986C118.679 45.0805 120.425 44.3102 122.567 44.3102C124.709 44.3102 126.454 45.0805 127.669 46.3986C128.888 47.7215 129.612 49.6407 129.612 52C129.612 54.3593 128.888 56.2785 127.669 57.6014C126.454 58.9195 124.709 59.6898 122.567 59.6898Z" fill="black"/>
</svg>
