<svg width="30" height="30" viewBox="0 0 30 30" fill="none" xmlns="http://www.w3.org/2000/svg">
<rect width="30" height="30" rx="15" fill="black"/>
<path d="M21.5625 20.4797V20.9062C21.5625 21.0803 21.4934 21.2472 21.3703 21.3703C21.2472 21.4934 21.0803 21.5625 20.9062 21.5625H19.5938C16.6349 21.5625 13.7973 20.3871 11.7051 18.2949C9.61289 16.2027 8.4375 13.3651 8.4375 10.4062V9.09375C8.4375 8.9197 8.50664 8.75278 8.62971 8.62971C8.75278 8.50664 8.9197 8.4375 9.09375 8.4375H11.7188C11.8928 8.4375 12.0597 8.50664 12.1828 8.62971C12.3059 8.75278 12.375 8.9197 12.375 9.09375V11.7188C12.375 12.0863 12.1716 12.5784 11.9156 12.8344L10.5113 14.2387C11.5087 16.6012 13.3987 18.4913 15.7613 19.4888L17.1525 18.0975C17.415 17.835 17.9072 17.6316 18.2681 17.6316H20.9062C21.0792 17.6333 21.2444 17.7032 21.3661 17.8261C21.4877 17.949 21.5559 18.1149 21.5559 18.2878V20.4862L21.5625 20.4797Z" fill="white"/>
</svg>
