<svg width="30" height="30" viewBox="0 0 30 30" fill="none" xmlns="http://www.w3.org/2000/svg">
<path d="M15 30C23.2843 30 30 23.2843 30 15C30 6.71573 23.2843 0 15 0C6.71573 0 0 6.71573 0 15C0 23.2843 6.71573 30 15 30Z" fill="black"/>
<path d="M22.3022 8.63129L19.6245 22.1371C19.6245 22.1371 19.2495 23.0746 18.2183 22.6235L12.0366 17.8832L9.78662 16.7993L6.00146 15.5278C6.00146 15.5278 5.42138 15.3227 5.36279 14.8715C5.3042 14.4204 6.01904 14.1801 6.01904 14.1801L21.0659 8.27973C21.0659 8.27387 22.3022 7.72894 22.3022 8.63129Z" fill="white"/>
<path d="M11.5547 21.9844C11.5547 21.9844 11.373 21.9668 11.1504 21.2578C10.9277 20.5488 9.78516 16.7988 9.78516 16.7988L18.873 11.0273C18.873 11.0273 19.4004 10.7109 19.377 11.0273C19.377 11.0273 19.4707 11.0859 19.1895 11.3438C18.9082 11.6074 12.0527 17.7715 12.0527 17.7715" fill="#D2E4F0"/>
<path d="M14.4043 19.6992L11.9609 21.9316C11.9609 21.9316 11.7676 22.0781 11.5625 21.9844L12.0312 17.8418" fill="#B5CFE4"/>
</svg>
