<svg width="38" height="38" viewBox="0 0 38 38" fill="none" xmlns="http://www.w3.org/2000/svg">
<path d="M19 38C29.4934 38 38 29.4934 38 19C38 8.50659 29.4934 0 19 0C8.50659 0 0 8.50659 0 19C0 29.4934 8.50659 38 19 38Z" fill="url(#paint0_linear_302_146)"/>
<path d="M28.2481 10.9325L24.8563 28.04C24.8563 28.04 24.3813 29.2275 23.075 28.656L15.245 22.6517L12.395 21.2786L7.60042 19.6681C7.60042 19.6681 6.86565 19.4083 6.79143 18.8368C6.71722 18.2654 7.62268 17.9611 7.62268 17.9611L26.6821 10.4872C26.6821 10.4798 28.2481 9.78957 28.2481 10.9325Z" fill="white"/>
<path d="M14.6359 27.8471C14.6359 27.8471 14.4059 27.8248 14.1238 26.9268C13.8418 26.0287 12.3945 21.2787 12.3945 21.2787L23.9059 13.9682C23.9059 13.9682 24.5738 13.5674 24.5441 13.9682C24.5441 13.9682 24.6629 14.0424 24.3066 14.3689C23.9504 14.7029 15.2668 22.5107 15.2668 22.5107" fill="#D2E4F0"/>
<path d="M18.2441 24.9523L15.1492 27.7801C15.1492 27.7801 14.9043 27.9656 14.6445 27.8469L15.2383 22.5996" fill="#B5CFE4"/>
<defs>
<linearGradient id="paint0_linear_302_146" x1="19" y1="0" x2="19" y2="37.8614" gradientUnits="userSpaceOnUse">
<stop stop-color="#41BCE7"/>
<stop offset="1" stop-color="#22A6DC"/>
</linearGradient>
</defs>
</svg>
