<svg width="56" height="56" viewBox="0 0 56 56" fill="none" xmlns="http://www.w3.org/2000/svg">
<path d="M49.9626 13.8776L44.8491 17.1085C44.6784 17.2171 44.4774 17.2685 44.2754 17.2553C44.0735 17.2422 43.8809 17.165 43.7257 17.0351L41.6174 15.2753C41.4696 15.1522 41.3625 14.9873 41.3101 14.8023L40.6406 12.4558C40.5813 12.2502 40.5929 12.0307 40.6735 11.8325C40.7541 11.6343 40.8991 11.469 41.085 11.3632L46.9274 8.01726C45.6035 6.90498 43.9752 6.2172 42.2548 6.04353C40.5344 5.86986 38.8015 6.21835 37.282 7.04359C35.7625 7.86884 34.5267 9.13257 33.7358 10.6702C32.9448 12.2077 32.6353 13.9479 32.8476 15.6639C32.9107 16.1093 32.8708 16.5631 32.7309 16.9907C32.5911 17.4182 32.355 17.8079 32.0409 18.1299L18.1328 32.0446C17.8136 32.3576 17.4269 32.5931 17.0024 32.7329C16.5778 32.8728 16.1269 32.9133 15.6842 32.8512C15.3277 32.8055 14.9686 32.7824 14.6091 32.7823C13.3666 32.7736 12.1371 33.0358 11.0062 33.5507C9.87537 34.0656 8.87036 34.8208 8.06118 35.7638C7.25201 36.7067 6.65812 37.8147 6.32088 39.0106C5.98364 40.2064 5.91116 41.4615 6.10848 42.6882L11.9164 39.0218C12.0872 38.9132 12.2881 38.8617 12.4901 38.8749C12.6921 38.8881 12.8846 38.9652 13.0398 39.0951L15.1481 40.855C15.2958 40.9779 15.4029 41.1425 15.4554 41.3272L16.1249 43.6737C16.1842 43.8793 16.1726 44.0988 16.092 44.297C16.0114 44.4952 15.8665 44.6605 15.6805 44.7663L9.49203 48.3022C11.1222 49.5179 13.132 50.1134 15.1613 49.9821C16.3391 49.907 17.4888 49.5903 18.539 49.052C19.5892 48.5136 20.5174 47.7649 21.2659 46.8526C22.0144 45.9402 22.5672 44.8836 22.89 43.7486C23.2127 42.6135 23.2986 41.4241 23.1421 40.2544C23.0763 39.8132 23.1136 39.3627 23.2508 38.9382C23.3881 38.5137 23.6217 38.1267 23.9333 37.8075L37.7931 23.9485C38.1125 23.6337 38.5004 23.3971 38.9265 23.2572C39.3525 23.1173 39.8052 23.0778 40.249 23.1419C41.4651 23.305 42.702 23.2062 43.8768 22.8521C45.0516 22.498 46.1371 21.8969 47.0605 21.089C47.9839 20.2811 48.7239 19.2851 49.2309 18.1679C49.7379 17.0506 50.0001 15.8378 50 14.6109C50 14.3623 49.9831 14.1203 49.9626 13.8776Z" stroke="url(#paint0_linear_3202_3406)" stroke-width="2" stroke-miterlimit="10" stroke-linecap="round" stroke-linejoin="round"/>
<defs>
<linearGradient id="paint0_linear_3202_3406" x1="15.8154" y1="7.375" x2="59.5384" y2="38.3841" gradientUnits="userSpaceOnUse">
<stop stop-color="#CDFF7C"/>
<stop offset="0.460938" stop-color="#8CFFAC"/>
<stop offset="0.994792" stop-color="#93FFEB"/>
</linearGradient>
</defs>
</svg>
